<svg width="25" height="25" viewBox="0 0 25 25" fill="none" xmlns="http://www.w3.org/2000/svg">
<rect width="25" height="25" rx="12.5" fill="#ECF2FC"/>
<path d="M8.04927 8.05952C7.702 8.40679 7.702 8.96981 8.04927 9.31708L11.2373 12.5051L8.04927 15.6931C7.702 16.0404 7.702 16.6034 8.04927 16.9507C8.39653 17.2979 8.95956 17.2979 9.30683 16.9507L12.4948 13.7626L15.6829 16.9507C16.0301 17.2979 16.5932 17.2979 16.9404 16.9507C17.2877 16.6034 17.2877 16.0404 16.9404 15.6931L13.7524 12.5051L16.9404 9.31709C17.2877 8.96983 17.2877 8.4068 16.9404 8.05954C16.5931 7.71227 16.0301 7.71227 15.6829 8.05954L12.4948 11.2475L9.30683 8.05952C8.95956 7.71226 8.39653 7.71226 8.04927 8.05952Z" fill="#2F73C2"/>
</svg>
