<?xml version="1.0" encoding="utf-8"?>
<svg width="43px" height="179px" viewBox="0 0 43 179" version="1.1" xmlns:xlink="http://www.w3.org/1999/xlink" xmlns="http://www.w3.org/2000/svg">
  <defs>
    <rect width="43" height="179" id="artboard_1" />
    <clipPath id="clip_1">
      <use xlink:href="#artboard_1" clip-rule="evenodd" />
    </clipPath>
  </defs>
  <g id="homeSprite" clip-path="url(#clip_1)">
    <g id="100%-Original" artboard="6b777901-9e22-43a4-8f49-68f6d2510f25">
      <g id="Home-Page">
        <g id="Homepage-final-Web">
          <g id="100%-Original">
            <g id="Group-20">
              <g id="Group-4">
                <g id="Group-39495">
                  <path d="M35.8789 21.1137C31.9917 36.8331 18.9525 42.6462 18.9525 42.6462C18.9525 42.6462 5.90824 36.8331 2.02111 21.1137C2.02111 21.1137 0.366695 14.506 0.844416 8.93433C0.896692 8.32511 1.15724 7.75255 1.58221 7.3129C2.00718 6.87329 2.57061 6.5935 3.17769 6.52059C6.33567 6.12332 12.5913 4.91144 17.3182 1.30089C17.7874 0.944029 18.3605 0.750793 18.95 0.750793C19.5394 0.750793 20.1126 0.944029 20.5818 1.30089C25.3137 4.91144 31.5693 6.12332 34.7223 6.52059C35.3295 6.5942 35.8931 6.8741 36.3188 7.31345C36.7444 7.75285 37.0063 8.32501 37.0606 8.93433C37.5333 14.506 35.8789 21.1137 35.8789 21.1137L35.8789 21.1137Z" id="Path" fill="#FFFFFF" fill-rule="evenodd" stroke="none" />
                  <path d="M18.9499 0C19.7043 0 20.438 0.246533 21.0392 0.701968C25.593 4.17782 31.6277 5.36763 34.8165 5.77064C35.6169 5.87224 36.3318 6.2489 36.8634 6.79898C37.395 7.34907 37.7434 8.07263 37.8103 8.8682C38.2924 14.4979 36.68 21.0114 36.6097 21.2927C34.556 29.5979 29.9615 35.1414 26.4667 38.33C22.7466 41.7253 19.5236 43.2155 19.2706 43.3295C18.4573 43.255 15.2009 41.7688 11.4332 38.3299C7.93835 35.1414 3.34386 29.5979 1.29021 21.2929C1.16833 20.7913 -0.383997 14.4033 0.089592 8.86826C0.158926 8.07092 0.507948 7.34786 1.03882 6.79852C1.57056 6.2483 2.28476 5.87232 3.08334 5.77064C6.27218 5.36763 12.3068 4.17782 16.8606 0.702077C17.4618 0.246533 18.1956 0 18.9499 0L18.9499 0ZM18.9523 1.50729C18.5279 1.50505 18.1142 1.64295 17.7757 1.89966C12.9361 5.58962 6.6104 6.84883 3.27203 7.2655C2.83651 7.32012 2.43277 7.52188 2.12762 7.83737C1.82248 8.15286 1.63425 8.56309 1.59413 9.00016C1.34416 11.9311 1.70665 15.1944 2.16845 18.0282C2.46395 19.753 2.74932 20.9049 2.75775 20.9323C6.16174 34.7097 16.9051 40.7632 18.9751 41.7957C20.9948 40.7683 31.7382 34.7097 35.1429 20.9295C35.1623 20.8668 36.7692 14.3746 36.3058 9.00043C36.2666 8.56285 36.0786 8.15203 35.7733 7.83636C35.468 7.52069 35.0636 7.31918 34.6278 7.26549C31.2895 6.84883 24.9638 5.58962 20.1243 1.89974C19.7871 1.64403 19.3754 1.50618 18.9523 1.50729L18.9523 1.50729Z" id="Shape" fill="#373737" fill-rule="evenodd" stroke="#FFFFFF" stroke-width="0.1" />
                  <g id="Group-7" transform="translate(5.9161377 6.2180176)">
                    <path d="M24.5807 14.8465C21.9299 25.5697 13.0362 29.5392 13.0362 29.5392C13.0362 29.5392 4.138 25.5697 1.48719 14.8465C1.48719 14.8465 0.0219364 9.00767 0.905525 5.02036C0.905525 5.02036 8.60041 4.71843 13.0362 0.3759C17.472 4.71843 25.1624 5.02036 25.1624 5.02036C26.046 9.00767 24.5807 14.8465 24.5807 14.8465L24.5807 14.8465Z" id="Path#1" fill="#FFBD59" fill-rule="evenodd" stroke="none" />
                    <path d="M13.0361 30.2186L12.783 30.1031C12.4056 29.9388 3.57844 25.8894 0.88323 14.9975C0.829948 14.7755 -0.479897 9.47833 0.190575 5.44218C0.237988 5.15872 0.378559 4.89914 0.590061 4.70453C0.801575 4.50991 1.07194 4.39136 1.35833 4.36765C2.97901 4.22556 8.53815 3.52401 12.1747 0.322609C12.4126 0.114628 12.7179 0 13.0339 0C13.3499 0 13.6551 0.114628 13.8931 0.322609C17.5296 3.52401 23.0932 4.22556 24.7094 4.36765C24.9958 4.39136 25.2662 4.50991 25.4777 4.70453C25.6892 4.89914 25.8298 5.15872 25.8772 5.44218C26.5477 9.47389 25.2422 14.7622 25.1845 14.9975C22.4893 25.8894 13.6622 29.9388 13.2892 30.1031L13.0361 30.2186L13.0361 30.2186ZM13.0361 1.24174C13.0218 1.24174 13.0078 1.24667 12.9962 1.25507C9.07546 4.70511 3.17886 5.45551 1.46494 5.60647C1.4542 5.60727 1.44398 5.61162 1.43595 5.61886C1.42791 5.6261 1.42249 5.63578 1.42054 5.64643C0.79003 9.43394 2.07769 14.6423 2.09101 14.6956C4.39104 24.0023 11.5886 28.105 13.0317 28.8465C14.4748 28.105 21.6812 23.9845 23.9768 14.7C23.9901 14.6467 25.2778 9.42949 24.6517 5.65088C24.6496 5.63951 24.6436 5.62925 24.6346 5.62193C24.6257 5.6146 24.6145 5.61069 24.6029 5.61091C22.889 5.45995 16.9924 4.70955 13.0717 1.25951L13.0361 1.24174L13.0361 1.24174Z" id="Shape#1" fill="#373737" fill-rule="evenodd" stroke="none" />
                    <path d="M18.4389 9.8683C18.7449 9.8683 19.0588 10.0037 19.3067 10.3042C19.5265 10.5706 19.6378 10.9032 19.6378 11.2365C19.6378 11.5698 19.5265 11.9025 19.3067 12.1689L12.7558 20.1084C12.5078 20.4089 12.2552 20.5443 11.888 20.5443C11.5208 20.5443 11.2682 20.4089 11.0202 20.1084L7.98446 16.4291C7.76466 16.1627 7.65332 15.8301 7.65332 15.4968C7.65332 15.1635 7.76466 14.8308 7.98446 14.5644C8.23239 14.2639 8.54624 14.1285 8.85221 14.1285C9.15819 14.1285 9.47204 14.2639 9.71997 14.5644L11.888 17.192L17.5712 10.3042C17.8191 10.0037 18.133 9.8683 18.4389 9.8683L18.4389 9.8683Z" id="Path#2" fill="#FFFFFF" fill-rule="evenodd" stroke="#373737" stroke-width="0.8" />
                  </g>
                </g>
              </g>
            </g>
          </g>
        </g>
      </g>
    </g>
    <g id="Certified-by-Brands" transform="translate(0 48.636)" artboard="6aad61e0-f08c-4418-bdfa-0b8f9a4ae6f1">
      <g id="Home-Page">
        <g id="Homepage-final-Web">
          <g id="Certified-by-Brands">
            <g id="Group-44">
              <g id="Frame-17134">
                <path d="M20.7273 6.30415C17.8747 6.30415 15.0861 7.15006 12.7143 8.73489C10.3424 10.3197 8.49376 12.5723 7.4021 15.2078C6.31046 17.8433 6.02482 20.7433 6.58134 23.541C7.13787 26.339 8.51154 28.9089 10.5286 30.9259C12.5458 32.9431 15.1157 34.3167 17.9135 34.8733C20.7112 35.4297 23.6114 35.1441 26.2468 34.0525C28.8824 32.9609 31.135 31.1122 32.7197 28.7403C34.3046 26.3684 35.1505 23.5799 35.1505 20.7274C35.1462 16.9033 33.6252 13.2373 30.9212 10.5333C28.2173 7.8294 24.5513 6.30846 20.7273 6.30415L20.7273 6.30415L20.7273 6.30415ZM20.7273 4.77589C23.8822 4.77589 26.9662 5.71141 29.5893 7.46417C32.2125 9.21694 34.2571 11.7082 35.4644 14.6229C36.6719 17.5377 36.9876 20.7449 36.3722 23.8392C35.7566 26.9336 34.2376 29.7758 32.0066 32.0067C29.7757 34.2374 26.9335 35.7567 23.8391 36.3721C20.745 36.9877 17.5377 36.6717 14.6229 35.4645C11.7082 34.2572 9.21693 32.2126 7.46418 29.5895C5.71141 26.9663 4.77588 23.8821 4.77588 20.7274C4.77588 16.4967 6.45647 12.4394 9.44794 9.44794C12.4394 6.45646 16.4967 4.77589 20.7273 4.77589L20.7273 4.77589L20.7273 4.77589Z" id="Shape" fill="#373737" fill-rule="evenodd" stroke="none" />
                <path d="M20.7273 1.52829C16.9301 1.52829 13.2182 2.65429 10.0609 4.76391C6.90369 6.87351 4.4429 9.87198 2.98978 13.3801C1.53663 16.8883 1.15643 20.7486 1.89724 24.4728C2.63804 28.197 4.46655 31.618 7.15158 34.3031C9.83662 36.9879 13.2575 38.8165 16.9818 39.5574C20.7061 40.2981 24.5662 39.9178 28.0745 38.4649C31.5827 37.0117 34.581 34.5509 36.6908 31.3936C38.8004 28.2364 39.9263 24.5244 39.9263 20.7274C39.9206 15.6372 37.896 10.7572 34.2968 7.15791C30.6974 3.55864 25.8175 1.53405 20.7273 1.52829L20.7273 1.52829L20.7273 1.52829ZM20.7273 0C24.8267 0 28.8342 1.21565 32.2427 3.49319C35.6514 5.77073 38.3079 9.00789 39.8767 12.7953C41.4456 16.5827 41.856 20.7502 41.0564 24.7711C40.2565 28.7917 38.2824 32.4848 35.3838 35.3836C32.4849 38.2825 28.7916 40.2566 24.7709 41.0562C20.7503 41.8561 16.5827 41.4457 12.7953 39.8769C9.00787 38.308 5.77073 35.6513 3.49317 32.2428C1.21563 28.8341 0 24.8268 0 20.7274C0 15.2301 2.18376 9.958 6.07088 6.07088C9.958 2.18378 15.2301 0 20.7273 0L20.7273 0L20.7273 0Z" id="Shape#1" fill="#373737" fill-rule="evenodd" stroke="none" />
                <path d="M20.7731 26.2805L14.7908 29.2714L16.2864 23.2893L11.7996 18.304L18.2804 17.8054L20.7731 12.3217L23.2657 17.8056L29.7464 18.3042L25.2598 23.2902L26.7554 29.2723L20.7731 26.2805Z" id="Path" fill="#FFBD59" fill-rule="evenodd" stroke="none" />
                <path d="M26.7553 30.0355C26.6366 30.0353 26.5199 30.0074 26.4139 29.9542L20.7731 27.1346L15.1325 29.9542C15.0018 30.0197 14.8551 30.0461 14.7098 30.0305C14.5645 30.015 14.4267 29.9582 14.3127 29.8667C14.1987 29.7753 14.1133 29.653 14.0667 29.5146C14.0201 29.3762 14.0141 29.2272 14.0495 29.0853L15.4466 23.4982L11.2318 18.8152C11.1363 18.709 11.0725 18.5784 11.0475 18.4379C11.0225 18.2974 11.0373 18.1527 11.0903 18.0202C11.1433 17.8877 11.2324 17.7727 11.3474 17.6882C11.4624 17.6037 11.5988 17.5531 11.7411 17.5421L17.7717 17.0785L20.0774 12.0056C20.1382 11.872 20.2361 11.7587 20.3595 11.6793C20.4827 11.5999 20.6264 11.5576 20.7731 11.5576C20.9198 11.5576 21.0635 11.5999 21.1868 11.6793C21.3102 11.7587 21.4081 11.872 21.4689 12.0056L23.7747 17.0785L29.8052 17.5423C29.9475 17.5533 30.0838 17.6039 30.1987 17.6884C30.3139 17.7729 30.403 17.8879 30.456 18.0204C30.509 18.1529 30.5237 18.2976 30.4988 18.4382C30.4737 18.5787 30.4099 18.7092 30.3144 18.8154L26.0998 23.4982L27.4968 29.0862C27.5249 29.1989 27.5272 29.3165 27.503 29.4301C27.4789 29.5436 27.4293 29.6502 27.3577 29.7417C27.2863 29.8333 27.1949 29.9073 27.0906 29.9582C26.9862 30.0091 26.8716 30.0355 26.7555 30.0355L26.7553 30.0355L26.7553 30.0355ZM20.7732 25.5163C20.8918 25.5163 21.009 25.5439 21.1149 25.5969L25.6116 27.8449L24.5186 23.4744C24.4882 23.3531 24.488 23.2262 24.5184 23.1046C24.5485 22.9832 24.6079 22.871 24.6918 22.778L28.1401 18.9469L23.2072 18.5674C23.0709 18.557 22.9399 18.51 22.8277 18.4317C22.7158 18.3533 22.6266 18.2462 22.5702 18.1217L20.7732 14.1683L18.9761 18.1217C18.9197 18.2462 18.8306 18.3533 18.7186 18.4317C18.6065 18.51 18.4754 18.557 18.3391 18.5674L13.4064 18.9469L16.8546 22.778C16.9383 22.871 16.9978 22.9832 17.028 23.1046C17.0583 23.2262 17.0582 23.3531 17.0278 23.4744L15.9351 27.8449L20.4314 25.5969C20.5376 25.5439 20.6546 25.5163 20.7732 25.5163L20.7732 25.5163Z" id="Shape#2" fill="#373737" fill-rule="evenodd" stroke="none" />
              </g>
            </g>
          </g>
        </g>
      </g>
    </g>
    <g id="Direct-Sourcing" transform="translate(0 99.50345)" artboard="ae0c432e-b496-440e-9d6c-11195e954642">
      <g id="Home-Page">
        <g id="Homepage-final-Web">
          <g id="Direct-Sourcing">
            <g id="Group-45">
              <g id="Frame-17132">
                <path d="M2.51956 0.606598L22.4776 0.606598L23.5618 1.66812L23.5618 18.4136L0.471436 18.4136L0.471436 2.15076L1.55548 0.606598L2.51956 0.606598Z" id="Path" fill="#FFBD59" fill-rule="evenodd" stroke="none" />
                <path d="M1.51637 0.530762L22.5087 0.530762L23.6377 1.63702L23.6377 18.4901L0.395752 18.4901L0.395752 2.1275L0.409525 2.10795L1.51637 0.530762L1.51637 0.530762ZM22.4467 0.682404L1.59512 0.682404L0.547363 2.17475L0.547363 18.3386L23.4858 18.3386L23.4858 1.7007L22.4467 0.682404L22.4467 0.682404Z" id="Shape" fill="#707070" fill-rule="evenodd" stroke="none" />
                <path d="M39.4488 23.1805L36.5533 23.1805C36.3926 23.1805 36.2382 23.1167 36.1244 23.0029C36.0107 22.8891 35.9468 22.7348 35.9468 22.574C35.9468 22.4131 36.0107 22.2587 36.1244 22.145C36.2382 22.0312 36.3926 21.9674 36.5533 21.9674L39.449 21.9674C39.5794 21.9674 39.7046 21.9155 39.7969 21.8233C39.8891 21.731 39.941 21.606 39.941 21.4756L39.941 12.8884C39.9305 12.8722 39.917 12.6835 39.9082 12.6663L36.2133 5.47705C36.1712 5.39462 36.1068 5.32565 36.0277 5.27793C35.9483 5.23022 35.8574 5.20568 35.7648 5.20711L24.179 5.20711L24.179 22.5738C24.179 22.7346 24.115 22.8889 24.0012 23.0027C23.8875 23.1165 23.7333 23.1803 23.5723 23.1803C23.4114 23.1803 23.2572 23.1165 23.1435 23.0027C23.0297 22.8889 22.9657 22.7346 22.9657 22.5738L22.9657 4.60051C22.9657 4.43965 23.0297 4.28535 23.1435 4.1716C23.2572 4.05784 23.4114 3.99385 23.5723 3.99385L35.7541 3.99385C36.0717 3.99091 36.3838 4.07629 36.6557 4.24055C36.9274 4.4048 37.1482 4.64144 37.2932 4.92399L40.9868 12.1121C41.1462 12.3769 41.2023 12.691 41.1443 12.9945L41.1537 21.4758C41.1537 21.9281 40.974 22.3616 40.6543 22.6814C40.3345 23.0012 39.9009 23.1809 39.4486 23.1809L39.4488 23.1805L39.4488 23.1805Z" id="Path#1" fill="#373737" stroke="none" />
                <path d="M37.4517 14.1938L27.5665 14.1938C27.4056 14.1938 27.2514 14.13 27.1376 14.0162C27.0238 13.9025 26.9598 13.7483 26.9598 13.5873L26.9598 7.59615C26.9598 7.43529 27.0238 7.28098 27.1376 7.16723C27.2514 7.05348 27.4056 6.98956 27.5665 6.98956L34.556 6.98956C34.67 6.98956 34.7817 7.02177 34.8782 7.08236C34.9748 7.14295 35.0524 7.22951 35.102 7.33214L37.9977 13.3233C38.0425 13.4158 38.0629 13.5181 38.0572 13.6206C38.0516 13.7232 38.02 13.8226 37.9655 13.9096C37.9109 13.9966 37.8351 14.0682 37.7453 14.118C37.6555 14.1678 37.5544 14.1938 37.4517 14.1938L37.4517 14.1938L37.4517 14.1938ZM28.1731 12.9807L36.4848 12.9807L34.1756 8.20273L28.1731 8.20273L28.1731 12.9807L28.1731 12.9807Z" id="Shape#1" fill="#373737" fill-rule="evenodd" stroke="none" />
                <path d="M27.5665 23.1805L12.5888 23.1805C12.4279 23.1805 12.2736 23.1167 12.1598 23.0029C12.0461 22.8891 11.9822 22.7348 11.9822 22.574C11.9822 22.4131 12.0461 22.2587 12.1598 22.145C12.2736 22.0312 12.4279 21.9674 12.5888 21.9674L27.5665 21.9674C27.7275 21.9674 27.8816 22.0312 27.9954 22.145C28.1092 22.2587 28.1732 22.4131 28.1732 22.574C28.1732 22.7348 28.1092 22.8891 27.9954 23.0029C27.8816 23.1167 27.7275 23.1805 27.5665 23.1805L27.5665 23.1805Z" id="Path#2" fill="#373737" stroke="none" />
                <path d="M4.60069 23.1805L0.60659 23.1805C0.445713 23.1805 0.291424 23.1167 0.177666 23.0029C0.0639076 22.8891 0 22.7348 0 22.574L0 2.20419C0.000682831 1.61981 0.23313 1.05956 0.646349 0.646336C1.05957 0.233116 1.61982 0.000673294 2.20419 0L21.9748 0C22.5591 0.000673294 23.1194 0.233116 23.5327 0.646336C23.9459 1.05956 24.1783 1.61981 24.179 2.20419L24.179 6.29866C24.179 6.45955 24.115 6.61383 24.0013 6.7276C23.8875 6.84135 23.7333 6.90525 23.5724 6.90525C23.4115 6.90525 23.2573 6.84135 23.1435 6.7276C23.0297 6.61383 22.9657 6.45955 22.9657 6.29866L22.9657 2.20419C22.9656 1.94146 22.861 1.68957 22.6751 1.5038C22.4893 1.31801 22.2375 1.2135 21.9748 1.21318L2.20419 1.21318C1.94146 1.2135 1.68958 1.31801 1.5038 1.5038C1.31802 1.68957 1.2135 1.94146 1.21318 2.20419L1.21318 21.9674L4.60069 21.9674C4.76156 21.9674 4.91586 22.0312 5.02961 22.145C5.14336 22.2587 5.20728 22.4131 5.20728 22.574C5.20728 22.7348 5.14336 22.8891 5.02961 23.0029C4.91586 23.1167 4.76156 23.1805 4.60069 23.1805L4.60069 23.1805Z" id="Path#3" fill="#373737" stroke="none" />
                <path d="M23.5904 19.1905L13.5816 19.1905C13.4207 19.1905 13.2664 19.1265 13.1526 19.0129C13.0389 18.8991 12.975 18.7448 12.975 18.5838C12.975 18.4231 13.0389 18.2687 13.1526 18.155C13.2664 18.0412 13.4207 17.9774 13.5816 17.9774L23.5904 17.9774C23.7511 17.9774 23.9055 18.0412 24.0193 18.155C24.133 18.2687 24.1968 18.4231 24.1968 18.5838C24.1968 18.7448 24.133 18.8991 24.0193 19.0129C23.9055 19.1265 23.7511 19.1905 23.5904 19.1905L23.5904 19.1905Z" id="Path#4" fill="#373737" stroke="none" />
                <path d="M16.4637 19.1905L0.690573 19.1905C0.529696 19.1905 0.375408 19.1265 0.26165 19.0129C0.147892 18.8991 0.0839844 18.7448 0.0839844 18.5838C0.0839844 18.4231 0.147892 18.2687 0.26165 18.155C0.375408 18.0412 0.529696 17.9774 0.690573 17.9774L16.4637 17.9774C16.6246 17.9774 16.7789 18.0412 16.8927 18.155C17.0064 18.2687 17.0703 18.4231 17.0703 18.5838C17.0703 18.7448 17.0064 18.8991 16.8927 19.0129C16.7789 19.1265 16.6246 19.1905 16.4637 19.1905L16.4637 19.1905Z" id="Path#5" fill="#373737" stroke="none" />
                <path d="M8.57713 17.9774C11.0857 17.9774 13.1265 20.0522 13.1265 22.6026C13.1265 25.1529 11.0857 27.2279 8.57713 27.2279C6.06858 27.2279 4.02771 25.1529 4.02771 22.6026C4.02771 20.0522 6.06858 17.9774 8.57713 17.9774L8.57713 17.9774ZM8.57708 26.0146C10.4167 26.0146 11.9133 24.484 11.9133 22.6026C11.9133 20.7211 10.4167 19.1905 8.57708 19.1905C6.73744 19.1905 5.24084 20.7211 5.24084 22.6026C5.24084 24.484 6.73744 26.0146 8.57708 26.0146L8.57708 26.0146Z" id="Shape#2" fill="#373737" fill-rule="evenodd" stroke="none" />
                <path d="M32.5375 17.9774C35.0461 17.9774 37.0868 20.0522 37.0868 22.6026C37.0868 25.1529 35.0461 27.2279 32.5375 27.2279C30.029 27.2279 27.988 25.1529 27.988 22.6026C27.988 20.0522 30.029 17.9774 32.5375 17.9774L32.5375 17.9774ZM32.5375 26.0146C34.3771 26.0146 35.8737 24.484 35.8737 22.6026C35.8737 20.7211 34.3771 19.1905 32.5375 19.1905C30.6978 19.1905 29.2012 20.7211 29.2012 22.6026C29.2012 24.484 30.6978 26.0146 32.5375 26.0146L32.5375 26.0146Z" id="Shape#3" fill="#373737" fill-rule="evenodd" stroke="none" />
              </g>
            </g>
          </g>
        </g>
      </g>
    </g>
    <g id="Secure-Packaging" transform="translate(0 138.82236)" artboard="469b2a43-d291-4dbc-978a-5b584c779e51">
      <g id="Home-Page">
        <g id="Homepage-final-Web">
          <g id="Group-69">
            <g id="Group-46">
              <g id="Frame-17131">
                <path d="M2.01778 1.24173C1.81203 1.24173 1.61478 1.32382 1.46929 1.46932C1.32379 1.61481 1.2417 1.81206 1.2417 2.01781L1.2417 31.6641C1.2417 31.8697 1.32379 32.067 1.46929 32.2126C1.61478 32.3579 1.81203 32.4401 2.01778 32.4401L31.6641 32.4401C31.8697 32.4401 32.0669 32.3579 32.2125 32.2126C32.3579 32.067 32.4401 31.8697 32.4401 31.6641L32.4401 2.01781C32.4401 1.81206 32.3579 1.61481 32.2125 1.46932C32.0669 1.32382 31.8697 1.24173 31.6641 1.24173L2.01778 1.24173L2.01778 1.24173ZM2.0178 0L31.6641 0C32.1993 0 32.7123 0.212589 33.0909 0.591003C33.4692 0.969419 33.6818 1.48265 33.6818 2.0178L33.6818 31.6641C33.6818 32.1993 33.4692 32.7123 33.0909 33.0909C32.7123 33.4692 32.1993 33.6818 31.6641 33.6818L2.0178 33.6818C1.48265 33.6818 0.969419 33.4692 0.591003 33.0909C0.212589 32.7123 0 32.1993 0 31.6641L0 2.0178C0 1.48265 0.212589 0.969419 0.591003 0.591003C0.969419 0.212589 1.48265 0 2.0178 0L2.0178 0L2.0178 0Z" id="Shape" fill="#373737" fill-rule="evenodd" stroke="none" />
                <path d="M16.6082 0L9.62341 0L9.62341 33.6818L16.6082 33.6818L16.6082 0Z" id="Path" fill="#FFBD59" fill-rule="evenodd" stroke="none" />
                <path d="M10.8124 1.24173L10.8124 32.4401L15.4192 32.4401L15.4192 1.24173L10.8124 1.24173L10.8124 1.24173ZM9.62341 0L16.6082 0L16.6082 33.6818L9.62341 33.6818L9.62341 0L9.62341 0Z" id="Shape#1" fill="#373737" fill-rule="evenodd" stroke="none" />
                <path d="M0 9.93381L0 16.9186L33.6818 16.9186L33.6818 9.93381L0 9.93381Z" id="Path#1" fill="#FFBD59" fill-rule="evenodd" stroke="none" />
                <path d="M1.2417 15.6768L32.4401 15.6768L32.4401 11.1755L1.2417 11.1755L1.2417 15.6768L1.2417 15.6768ZM0 16.9186L0 9.93381L33.6818 9.93381L33.6818 16.9186L0 16.9186L0 16.9186Z" id="Shape#2" fill="#373737" fill-rule="evenodd" stroke="none" />
              </g>
            </g>
          </g>
        </g>
      </g>
    </g>
  </g>
</svg>