<svg width="136" height="46" viewBox="0 0 136 46" fill="none" xmlns="http://www.w3.org/2000/svg">
<path d="M6.9975 22.725C5.7675 22.725 4.59 22.5525 3.465 22.2075C2.34 21.8475 1.4475 21.39 0.7875 20.835L1.8 18.5625C2.43 19.0575 3.21 19.47 4.14 19.8C5.07 20.13 6.0225 20.295 6.9975 20.295C7.8225 20.295 8.49 20.205 9 20.025C9.51 19.845 9.885 19.605 10.125 19.305C10.365 18.99 10.485 18.6375 10.485 18.2475C10.485 17.7675 10.3125 17.385 9.9675 17.1C9.6225 16.8 9.1725 16.5675 8.6175 16.4025C8.0775 16.2225 7.47 16.0575 6.795 15.9075C6.135 15.7575 5.4675 15.585 4.7925 15.39C4.1325 15.18 3.525 14.9175 2.97 14.6025C2.43 14.2725 1.9875 13.8375 1.6425 13.2975C1.2975 12.7575 1.125 12.0675 1.125 11.2275C1.125 10.3725 1.35 9.5925 1.8 8.8875C2.265 8.1675 2.9625 7.5975 3.8925 7.1775C4.8375 6.7425 6.03 6.525 7.47 6.525C8.415 6.525 9.3525 6.645 10.2825 6.885C11.2125 7.125 12.0225 7.47 12.7125 7.92L11.79 10.1925C11.085 9.7725 10.3575 9.465 9.6075 9.27C8.8575 9.06 8.1375 8.955 7.4475 8.955C6.6375 8.955 5.9775 9.0525 5.4675 9.2475C4.9725 9.4425 4.605 9.6975 4.365 10.0125C4.14 10.3275 4.0275 10.6875 4.0275 11.0925C4.0275 11.5725 4.1925 11.9625 4.5225 12.2625C4.8675 12.5475 5.31 12.7725 5.85 12.9375C6.405 13.1025 7.02 13.2675 7.695 13.4325C8.37 13.5825 9.0375 13.755 9.6975 13.95C10.3725 14.145 10.98 14.4 11.52 14.715C12.075 15.03 12.5175 15.4575 12.8475 15.9975C13.1925 16.5375 13.365 17.22 13.365 18.045C13.365 18.885 13.1325 19.665 12.6675 20.385C12.2175 21.09 11.52 21.66 10.575 22.095C9.63 22.515 8.4375 22.725 6.9975 22.725ZM19.8058 22.5V16.2675L20.4583 18.0675L13.6183 6.75H16.7458L22.2358 15.8625H20.4808L26.0158 6.75H28.8958L22.0558 18.0675L22.7308 16.2675V22.5H19.8058ZM35.3642 22.725C34.1342 22.725 32.9567 22.5525 31.8317 22.2075C30.7067 21.8475 29.8142 21.39 29.1542 20.835L30.1667 18.5625C30.7967 19.0575 31.5767 19.47 32.5067 19.8C33.4367 20.13 34.3892 20.295 35.3642 20.295C36.1892 20.295 36.8567 20.205 37.3667 20.025C37.8767 19.845 38.2517 19.605 38.4917 19.305C38.7317 18.99 38.8517 18.6375 38.8517 18.2475C38.8517 17.7675 38.6792 17.385 38.3342 17.1C37.9892 16.8 37.5392 16.5675 36.9842 16.4025C36.4442 16.2225 35.8367 16.0575 35.1617 15.9075C34.5017 15.7575 33.8342 15.585 33.1592 15.39C32.4992 15.18 31.8917 14.9175 31.3367 14.6025C30.7967 14.2725 30.3542 13.8375 30.0092 13.2975C29.6642 12.7575 29.4917 12.0675 29.4917 11.2275C29.4917 10.3725 29.7167 9.5925 30.1667 8.8875C30.6317 8.1675 31.3292 7.5975 32.2592 7.1775C33.2042 6.7425 34.3967 6.525 35.8367 6.525C36.7817 6.525 37.7192 6.645 38.6492 6.885C39.5792 7.125 40.3892 7.47 41.0792 7.92L40.1567 10.1925C39.4517 9.7725 38.7242 9.465 37.9742 9.27C37.2242 9.06 36.5042 8.955 35.8142 8.955C35.0042 8.955 34.3442 9.0525 33.8342 9.2475C33.3392 9.4425 32.9717 9.6975 32.7317 10.0125C32.5067 10.3275 32.3942 10.6875 32.3942 11.0925C32.3942 11.5725 32.5592 11.9625 32.8892 12.2625C33.2342 12.5475 33.6767 12.7725 34.2167 12.9375C34.7717 13.1025 35.3867 13.2675 36.0617 13.4325C36.7367 13.5825 37.4042 13.755 38.0642 13.95C38.7392 14.145 39.3467 14.4 39.8867 14.715C40.4417 15.03 40.8842 15.4575 41.2142 15.9975C41.5592 16.5375 41.7317 17.22 41.7317 18.045C41.7317 18.885 41.4992 19.665 41.0342 20.385C40.5842 21.09 39.8867 21.66 38.9417 22.095C37.9967 22.515 36.8042 22.725 35.3642 22.725ZM47.6074 22.5V9.225H42.3874V6.75H55.7524V9.225H50.5324V22.5H47.6074ZM64.4344 22.725C62.2744 22.725 60.5794 22.1175 59.3494 20.9025C58.1344 19.6875 57.5269 17.9325 57.5269 15.6375V6.75H60.4519V15.525C60.4519 17.145 60.7969 18.3225 61.4869 19.0575C62.1919 19.7925 63.1819 20.16 64.4569 20.16C65.7319 20.16 66.7144 19.7925 67.4044 19.0575C68.0944 18.3225 68.4394 17.145 68.4394 15.525V6.75H71.3194V15.6375C71.3194 17.9325 70.7044 19.6875 69.4744 20.9025C68.2594 22.1175 66.5794 22.725 64.4344 22.725ZM75.4158 22.5V6.75H77.8233L84.7083 18.2475H83.4483L90.2208 6.75H92.6283L92.6508 22.5H89.8833L89.8608 11.0925H90.4458L84.6858 20.7H83.3808L77.5308 11.0925H78.2058V22.5H75.4158ZM96.905 22.5V6.75H99.3125L106.198 18.2475H104.938L111.71 6.75H114.118L114.14 22.5H111.373L111.35 11.0925H111.935L106.175 20.7H104.87L99.02 11.0925H99.695V22.5H96.905ZM118.394 22.5V6.75H120.802L127.687 18.2475H126.427L133.199 6.75H135.607L135.629 22.5H132.862L132.839 11.0925H133.424L127.664 20.7H126.359L120.509 11.0925H121.184V22.5H118.394Z" fill="white"/>
</svg>
