<?xml version="1.0" encoding="utf-8"?>
<svg width="94px" height="104px" viewBox="0 0 94 104" version="1.1" xmlns:xlink="http://www.w3.org/1999/xlink" xmlns="http://www.w3.org/2000/svg">
  <defs>
    <path d="M0 0L94 0L94 104L0 104L0 0Z" id="path_1" />
    <path d="M0 0L24 0L24 24L0 24L0 0Z" id="path_2" />
    <clipPath id="clip_1">
      <use xlink:href="#path_1" />
    </clipPath>
    <clipPath id="clip_2">
      <use xlink:href="#path_2" />
    </clipPath>
  </defs>
  <g id="menu-sprite" clip-path="url(#clip_1)">
    <path d="M0 0L94 0L94 104L0 104L0 0Z" id="menu-sprite" fill="none" fill-rule="evenodd" stroke="none" />
    <g id="Layer_1_00000147900649838143989000000007084207098207886527_" transform="translate(11.275024 0.5361786)">
      <path d="M60.9 0.463826L59.2 0.463826C58.8 0.463826 58.5 0.663826 58.3 0.963826C58.1 1.26383 58.1 1.66383 58.3 1.96383C58.5 2.26383 58.9 2.46383 59.2 2.46383L60.3 2.46383L63.6 10.3638L62.4 12.2638C61.5 13.6638 62.6 15.4638 64.1 15.4638L75.2 15.4638C75.6 15.4638 75.9 15.2638 76.1 14.9638C76.3 14.6638 76.3 14.2638 76.1 13.9638C75.9 13.6638 75.6 13.4638 75.2 13.4638L64.1 13.4638C64 13.4638 64 13.4638 64 13.3638L64 13.3638L65.3 11.4638L72.8 11.4638C73.5 11.4638 74.2 11.0638 74.5 10.4638L78.1 3.96383C78.4 3.26383 78 2.46383 77.2 2.46383L62.5 2.46383L61.9 1.06383C61.7 0.663826 61.4 0.463826 60.9 0.463826L60.9 0.463826ZM64.2 16.4638C63.1 16.4638 62.2 17.3638 62.2 18.4638C62.2 19.5638 63.1 20.4638 64.2 20.4638C65.3 20.4638 66.2 19.5638 66.2 18.4638C66.2 17.3638 65.3 16.4638 64.2 16.4638L64.2 16.4638ZM74.2 16.4638C73.1 16.4638 72.2 17.3638 72.2 18.4638C72.2 19.5638 73.1 20.4638 74.2 20.4638C75.3 20.4638 76.2 19.5638 76.2 18.4638C76.2 17.3638 75.3 16.4638 74.2 16.4638L74.2 16.4638Z" id="Symbols" fill="#FFFFFF" fill-rule="evenodd" stroke="none" />
      <path d="M41.1 6.66383C40.9 6.66383 40.7 6.56383 40.5 6.46383L35.3 1.46383C35 1.16383 35 0.663826 35.3 0.263826C35.6 -0.136174 36.2 -0.0361741 36.5 0.263826L41.1 4.66383L45.7 0.263826C46 -0.0361743 46.6 -0.0361743 46.9 0.263826C47.2 0.563826 47.2 1.06383 46.9 1.46383L41.7 6.46383C41.5 6.56383 41.3 6.66383 41.1 6.66383L41.1 6.66383L41.1 6.66383Z" id="Layer_1_00000047034005703285466860000000012380915416477069_" fill="#FFFFFF" stroke="none" />
      <g id="iconsSearchDark" transform="translate(31.499977 12.463826)">
        <path d="M0 0L21 0L21 20L0 20L0 0Z" id="Rectangle" fill="#000000" fill-opacity="0" fill-rule="evenodd" stroke="none" />
        <path d="M19.5 20C19.2 20 19 19.9 18.8 19.7L13.4 14.3C12 15.4 10.3 16 8.5 16C4.1 16 0.5 12.4 0.5 8C0.5 3.6 4.1 0 8.5 0C12.9 0 16.5 3.6 16.5 8C16.5 9.8 15.9 11.5 14.8 12.9L20.2 18.3C20.5 18.6 20.6 19 20.4 19.4C20.2 19.8 19.9 20 19.5 20L19.5 20ZM8.5 2C5.2 2 2.5 4.7 2.5 8C2.5 11.3 5.2 14 8.5 14C11.8 14 14.5 11.3 14.5 8C14.5 4.7 11.8 2 8.5 2L8.5 2Z" id="Shape" fill="#000000" fill-rule="evenodd" stroke="none" />
      </g>
      <path d="M-2.47955e-05 11.7638L18.2 11.7638L18.2 13.4638L-2.47955e-05 13.4638L-2.47955e-05 11.7638ZM-2.47955e-05 19.2638L11.1 19.2638L11.1 20.9638L-2.47955e-05 20.9638L-2.47955e-05 19.2638ZM-2.47955e-05 26.7638L16.1 26.7638L16.1 28.4638L-2.47955e-05 28.4638L-2.47955e-05 26.7638Z" id="Group" fill="#232A37" stroke="none" />
    </g>
    <g id="Group 25" clip-path="url(#clip_2)" transform="translate(55 42)">
      <path d="M0 0L24 0L24 24L0 24L0 0Z" id="Group-25" fill="none" fill-rule="evenodd" stroke="none" />
      <g id="Menu-2.0">
        <g id="Menu,-Sub-category-Mobile">
          <g id="Group-4">
            <g id="Group-25">
              <path d="M0 0L24 0L24 24L0 24L0 0Z" id="Rectangle-Copy-18" fill="none" fill-rule="evenodd" stroke="none" />
              <g id="Group-24" transform="translate(4 2)">
                <path d="M7.60655 0.845851L7.6113 19.6518C7.60655 19.6536 0 16.8773 0 9.55566L0 3.3227C3.76653 3.3227 7.60655 0.845851 7.60655 0.845851L7.60655 0.845851Z" id="Combined-Shape" fill="#E6E6E6" fill-rule="evenodd" stroke="none" />
                <path d="M15.2131 2.47685L15.2134 2.4903C15.2135 2.49338 15.2135 2.49702 15.2136 2.50125L15.2142 2.53393C15.2144 2.54063 15.2145 2.54798 15.2146 2.55602L15.2155 2.6126C15.2179 2.77565 15.2215 3.1051 15.2236 3.7027L15.2244 3.95628C15.2245 4.00101 15.2246 4.04699 15.2247 4.09425L15.2248 5.49015C15.2235 6.32664 15.2201 7.38249 15.2131 8.7098C15.186 15.9074 7.86129 18.7123 7.613 18.8053L7.60655 0C7.60655 0 11.3914 2.47685 15.2131 2.47685L15.2131 2.47685Z" id="Combined-Shape#1" fill="#CCCCCC" fill-rule="evenodd" stroke="none" />
                <g id="Stroke-13">
                  <path d="M7.60655 18.8077C7.60655 18.8077 0 16.0315 0 8.7098L0 2.47685C3.76653 2.47685 7.60655 0 7.60655 0C7.60655 0 11.3914 2.47685 15.2131 2.47685C15.2131 2.47685 15.2406 3.51115 15.2131 8.7098C15.1855 16.0315 7.60655 18.8077 7.60655 18.8077L7.60655 18.8077Z" id="path-1" fill="none" stroke="#000000" stroke-width="1" />
                  <path d="M7.60577 0.294674C8.30515 0.724593 11.5926 2.63341 14.9669 2.72355C14.9695 2.93596 14.9724 3.27779 14.974 3.826L14.975 5.2853C14.9741 6.15201 14.9707 7.271 14.9631 8.70886C14.9387 15.1745 8.88943 18.0066 7.71626 18.4951L7.60653 18.5398C7.07349 18.3277 4.17049 17.0848 2.17175 14.4314C1.07372 12.9738 0.25 11.0879 0.25 8.7098L0.25 2.72333C3.5792 2.63038 6.90113 0.722273 7.60577 0.294674L7.60577 0.294674Z" id="Shape" fill="none" fill-rule="evenodd" stroke="#FFFFFF" stroke-width="0.5" />
                </g>
                <path d="M10.9961 5.92096L9.85468 11.8419L8.27307 11.8419L6.63434 9.08446L6.10441 11.8419L4.22925 11.8419L5.37065 5.92096L6.9523 5.92096L8.59099 8.67841L9.12094 5.92096L10.9961 5.92096Z" id="Fill-14" fill="#242A36" fill-rule="evenodd" stroke="none" />
              </g>
            </g>
          </g>
        </g>
      </g>
    </g>
    <g id="Group 26" clip-path="url(#clip_2)" transform="translate(29 71)">
      <path d="M0 0L24 0L24 24L0 24L0 0Z" id="Group-26" fill="none" fill-rule="evenodd" stroke="none" />
      <g id="Menu-2.0">
        <g id="Menu,-Sub-category-Mobile">
          <g id="Group-10">
            <g id="Group-31">
              <path d="M0 0L24 0L24 24L0 24L0 0Z" id="Rectangle-Copy-20" fill="none" fill-rule="evenodd" stroke="none" />
              <g id="Group-4" transform="translate(3 3)">
                <path d="M0 10.3527L11.06 0L12.1334 0.0282762L16.994 0.156318L17.491 6.36854L6.79759 16.4799" id="Rectangle" fill="#E6E6E6" fill-opacity="0.48864454" fill-rule="evenodd" stroke="none" />
                <path d="M6.79759 8.97194L6.79759 13.4329C6.79759 13.6088 7.02108 13.7515 7.29759 13.7515C7.57411 13.7515 7.79759 13.6088 7.79759 13.4329L7.79759 8.97194C7.79759 8.79606 7.57411 8.65331 7.29759 8.65331C7.02108 8.65331 6.79759 8.79602 6.79759 8.97194L6.79759 8.97194Z" id="Path" fill="#000000" stroke="none" />
                <path d="M8.49699 9.50301C8.49699 9.97159 8.87805 10.3527 9.34669 10.3527C9.81533 10.3527 10.1964 9.97165 10.1964 9.50301C10.1964 9.03442 9.81533 8.65331 9.34669 8.65331C8.87805 8.65331 8.49699 9.03437 8.49699 9.50301L8.49699 9.50301Z" id="Path#1" fill="#000000" stroke="none" />
                <path d="M4.2485 11.2024C4.2485 11.671 4.62956 12.0521 5.09819 12.0521C5.56678 12.0521 5.94789 11.671 5.94789 11.2024C5.94789 10.7338 5.56678 10.3527 5.09819 10.3527C4.62956 10.3527 4.2485 10.7338 4.2485 11.2024L4.2485 11.2024Z" id="Path#2" fill="#000000" stroke="none" />
                <path d="M16.3545 0.156318L11.5892 0.156318C10.6678 0.156318 9.98126 0.449676 9.29386 1.13709C9.17743 1.25356 9.17743 1.44179 9.29386 1.55822C9.41033 1.67469 9.59856 1.67469 9.71499 1.55822C10.2952 0.978034 10.8208 0.751968 11.5892 0.751968L16.3545 0.751968C16.8472 0.751968 17.248 1.15286 17.248 1.64548L17.248 6.41089C17.248 7.17962 17.022 7.70498 16.4415 8.28517L7.5965 17.1429C7.25875 17.4803 6.66995 17.48 6.33311 17.1429L0.857442 11.6671C0.688586 11.4982 0.595641 11.274 0.595641 11.0351C0.595641 10.7965 0.688551 10.5722 0.857442 10.4037L8.85186 2.42046C8.97458 2.45173 9.09789 2.48301 9.22535 2.51724C10.4372 2.84187 11.3933 3.17726 12.106 3.47686C11.9657 3.73626 11.8871 4.02728 11.8871 4.32601C11.8871 5.31156 12.6885 6.11303 13.6741 6.11303C14.6596 6.11303 15.461 5.31156 15.461 4.32601C15.461 3.34046 14.6596 2.53899 13.6741 2.53899C13.5094 2.53899 13.3762 2.67242 13.3762 2.83681C13.3762 3.00121 13.5094 3.13464 13.6741 3.13464C14.3311 3.13464 14.8654 3.66897 14.8654 4.32597C14.8654 4.98302 14.3311 5.51731 13.6741 5.51731C13.0171 5.51731 12.4827 4.98298 12.4827 4.32597C12.4827 4.11153 12.5414 3.90215 12.6495 3.71989C13.1654 3.96679 13.4879 4.17499 13.6154 4.30783C13.5609 4.32332 13.4766 4.3406 13.3495 4.35159C13.1857 4.36618 13.0645 4.51065 13.079 4.67444C13.0928 4.82931 13.2226 4.94637 13.3754 4.94637C13.384 4.94637 13.393 4.94578 13.4019 4.94518C13.5851 4.92881 14.1423 4.87967 14.2495 4.48025C14.5429 3.38451 10.2443 2.17349 9.37965 1.94177C8.05696 1.58733 6.78642 1.3449 5.80239 1.25914C4.59229 1.15311 4.00349 1.29101 3.89299 1.70499C3.8397 1.90365 3.69852 2.4311 6.11302 3.38329C6.26669 3.44346 6.43914 3.3687 6.49959 3.2153C6.55976 3.0625 6.48469 2.88945 6.33192 2.82931C5.16532 2.36915 4.68192 2.03199 4.52647 1.87325C4.8943 1.76544 6.15026 1.79671 8.17253 2.25656L0.436312 9.98225C0.154861 10.2637 0 10.6375 0 11.0351C0 11.433 0.154861 11.8071 0.436312 12.0882L5.91195 17.564C6.19308 17.8451 6.56688 18 6.96477 18C7.36238 18 7.73614 17.8451 8.01791 17.5637L16.8629 8.70631C17.5506 8.0189 17.8437 7.33239 17.8437 6.41089L17.8437 1.64551" id="Path#3" fill="#000000" stroke="none" />
              </g>
            </g>
          </g>
        </g>
      </g>
    </g>
    <g id="Menu-2.0" transform="translate(0 42)">
      <g id="Menu,-Sub-category-Mobile">
        <g id="Group-2">
          <g id="Group-22">
            <path d="M0 0L24 0L24 24L0 24L0 0Z" id="Rectangle" fill="none" fill-rule="evenodd" stroke="none" />
            <g id="Group-9" transform="translate(3 3)">
              <path d="M9 0C4.0374 0 0 4.0374 0 9C0 11.1735 0.7746 13.1694 2.0622 14.7264C2.0655 14.7309 2.0658 14.7366 2.0694 14.7408C2.9991 15.8619 4.1667 16.7214 5.4678 17.2767C5.4828 17.283 5.4975 17.2899 5.5125 17.2962C5.6178 17.3406 5.7243 17.3817 5.8311 17.4219C5.8731 17.4378 5.9151 17.454 5.9577 17.4693C6.0498 17.5023 6.1425 17.5335 6.2358 17.5635C6.2955 17.5827 6.3552 17.6016 6.4155 17.6196C6.498 17.6442 6.5808 17.6679 6.6642 17.6904C6.7374 17.7102 6.8112 17.7285 6.885 17.7462C6.9597 17.7642 7.0347 17.7822 7.11 17.7981C7.194 17.8161 7.2789 17.832 7.3641 17.8476C7.4325 17.8602 7.5006 17.8734 7.5696 17.8845C7.6641 17.8998 7.7592 17.9118 7.8546 17.9241C7.9161 17.9319 7.9773 17.9409 8.0391 17.9475C8.1471 17.9589 8.256 17.967 8.3652 17.9745C8.4159 17.9781 8.4663 17.9835 8.5173 17.9862C8.6766 17.9952 8.8377 18 9 18C9.1623 18 9.3234 17.9952 9.4833 17.9868C9.5343 17.9841 9.5847 17.9787 9.6354 17.9751C9.7446 17.9673 9.8535 17.9595 9.9615 17.9481C10.0233 17.9415 10.0845 17.9325 10.146 17.9247C10.2414 17.9124 10.3365 17.9004 10.431 17.8851C10.4997 17.874 10.5681 17.8608 10.6365 17.8482C10.7214 17.8326 10.8063 17.8167 10.8906 17.7987C10.9659 17.7825 11.0406 17.7648 11.1156 17.7468C11.1894 17.7288 11.2632 17.7105 11.3364 17.691C11.4198 17.6688 11.5026 17.6448 11.5851 17.6202C11.6454 17.6022 11.7051 17.5833 11.7648 17.5641C11.8581 17.5341 11.9508 17.5029 12.0429 17.4699C12.0852 17.4546 12.1272 17.4384 12.1695 17.4225C12.2766 17.3823 12.3828 17.3409 12.4881 17.2968C12.5031 17.2905 12.5178 17.2836 12.5328 17.2773C13.8336 16.722 15.0015 15.8625 15.9312 14.7414C15.9348 14.7372 15.9351 14.7312 15.9384 14.727C17.2254 13.1694 18 11.1735 18 9C18 4.0374 13.9626 0 9 0L9 0ZM12.6471 16.566C12.6426 16.5681 12.6384 16.5705 12.6339 16.5726C12.5268 16.6242 12.4179 16.6728 12.3081 16.7202C12.2832 16.7307 12.2586 16.7415 12.2337 16.752C12.1377 16.7922 12.0405 16.8303 11.9427 16.8669C11.9019 16.8822 11.8611 16.8972 11.82 16.9116C11.7333 16.9425 11.6463 16.9722 11.5584 17.0004C11.5038 17.0178 11.4489 17.0343 11.394 17.0505C11.316 17.0739 11.2377 17.0964 11.1585 17.1174C11.0919 17.1351 11.0247 17.1513 10.9575 17.1672C10.887 17.184 10.8168 17.2011 10.7457 17.2161C10.668 17.2326 10.5897 17.2467 10.5117 17.2608C10.4484 17.2725 10.3854 17.2848 10.3215 17.295C10.2336 17.3088 10.1448 17.3199 10.0563 17.331C10.0002 17.3382 9.9444 17.3466 9.8877 17.3526C9.7866 17.3634 9.6846 17.3703 9.5829 17.3775C9.5376 17.3805 9.4926 17.3856 9.4467 17.388C9.2982 17.3958 9.1494 17.4 9 17.4C8.8506 17.4 8.7018 17.3958 8.5536 17.388C8.508 17.3856 8.463 17.3808 8.4174 17.3775C8.3154 17.3706 8.2137 17.3634 8.1126 17.3526C8.0559 17.3466 8.0001 17.3382 7.944 17.331C7.8555 17.3199 7.7667 17.3088 7.6788 17.295C7.6149 17.2848 7.5519 17.2725 7.4886 17.2608C7.4103 17.2467 7.332 17.2323 7.2546 17.2161C7.1835 17.2011 7.113 17.184 7.0428 17.1672C6.9756 17.151 6.9084 17.1351 6.8418 17.1174C6.7629 17.0964 6.6843 17.0736 6.6063 17.0505C6.5514 17.0343 6.4965 17.0178 6.4419 17.0004C6.354 16.9722 6.2667 16.9425 6.1803 16.9116C6.1392 16.8969 6.0984 16.8819 6.0576 16.8669C5.9598 16.8303 5.8626 16.7922 5.7666 16.752C5.7417 16.7418 5.7174 16.731 5.6925 16.7205C5.5827 16.6734 5.4738 16.6245 5.3664 16.5729C5.3619 16.5708 5.3577 16.5687 5.3532 16.5663C4.3065 16.0599 3.3819 15.3411 2.6316 14.4681C3.2115 12.3327 4.8531 10.6113 6.9651 9.9264C7.0068 9.9519 7.0503 9.9747 7.0932 9.9987C7.1184 10.0128 7.1433 10.0278 7.1688 10.0413C7.2582 10.0887 7.3488 10.1331 7.4415 10.173C7.5126 10.2042 7.5861 10.2306 7.6593 10.2576C7.6737 10.2627 7.6881 10.2684 7.7025 10.2735C8.1093 10.4175 8.5446 10.5 9 10.5C9.4554 10.5 9.8907 10.4175 10.2972 10.2735C10.3116 10.2684 10.326 10.2627 10.3404 10.2576C10.4136 10.2306 10.4871 10.2042 10.5582 10.173C10.6509 10.1331 10.7415 10.0887 10.8309 10.0413C10.8564 10.0275 10.8813 10.0128 10.9065 9.9987C10.9494 9.9747 10.9932 9.9519 11.0352 9.9261C13.1472 10.6113 14.7885 12.3327 15.3687 14.4678C14.6184 15.3405 13.6938 16.0593 12.6471 16.566L12.6471 16.566ZM5.7 6.6C5.7 4.7805 7.1805 3.3 9 3.3C10.8195 3.3 12.3 4.7805 12.3 6.6C12.3 7.7574 11.6997 8.7759 10.7952 9.3651C10.677 9.4419 10.554 9.5106 10.4277 9.5706C10.4127 9.5778 10.398 9.5853 10.383 9.5922C9.5142 9.9873 8.4858 9.9873 7.617 9.5922C7.602 9.5853 7.587 9.5778 7.5723 9.5706C7.4457 9.5106 7.323 9.4419 7.2048 9.3651C6.3003 8.7759 5.7 7.7574 5.7 6.6L5.7 6.6ZM15.8187 13.8969C15.1386 11.8887 13.587 10.2657 11.6046 9.4947C12.3975 8.7804 12.9 7.749 12.9 6.6C12.9 4.4496 11.1504 2.7 9 2.7C6.8496 2.7 5.1 4.4496 5.1 6.6C5.1 7.749 5.6025 8.7804 6.3957 9.4947C4.4133 10.266 2.8617 11.8887 2.1816 13.8969C1.1877 12.5172 0.6 10.8264 0.6 9C0.6 4.3683 4.3683 0.6 9 0.6C13.6317 0.6 17.4 4.3683 17.4 9C17.4 10.8264 16.8123 12.5172 15.8187 13.8969L15.8187 13.8969Z" id="user-(6)" fill="#000000" fill-rule="evenodd" stroke="none" />
              <path d="M12.6471 16.566C12.6426 16.5681 12.6384 16.5705 12.6339 16.5726C12.5268 16.6242 12.4179 16.6728 12.3081 16.7202C12.2832 16.7307 12.2586 16.7415 12.2337 16.752C12.1377 16.7922 12.0405 16.8303 11.9427 16.8669C11.9019 16.8822 11.8611 16.8972 11.82 16.9116C11.7333 16.9425 11.6463 16.9722 11.5584 17.0004C11.5038 17.0178 11.4489 17.0343 11.394 17.0505C11.316 17.0739 11.2377 17.0964 11.1585 17.1174C11.0919 17.1351 11.0247 17.1513 10.9575 17.1672C10.887 17.184 10.8168 17.2011 10.7457 17.2161C10.668 17.2326 10.5897 17.2467 10.5117 17.2608C10.4484 17.2725 10.3854 17.2848 10.3215 17.295C10.2336 17.3088 10.1448 17.3199 10.0563 17.331C10.0002 17.3382 9.9444 17.3466 9.8877 17.3526C9.7866 17.3634 9.6846 17.3703 9.5829 17.3775C9.5376 17.3805 9.4926 17.3856 9.4467 17.388C9.2982 17.3958 9.1494 17.4 9 17.4C8.8506 17.4 8.7018 17.3958 8.5536 17.388C8.508 17.3856 8.463 17.3808 8.4174 17.3775C8.3154 17.3706 8.2137 17.3634 8.1126 17.3526C8.0559 17.3466 8.0001 17.3382 7.944 17.331C7.8555 17.3199 7.7667 17.3088 7.6788 17.295C7.6149 17.2848 7.5519 17.2725 7.4886 17.2608C7.4103 17.2467 7.332 17.2323 7.2546 17.2161C7.1835 17.2011 7.113 17.184 7.0428 17.1672C6.9756 17.151 6.9084 17.1351 6.8418 17.1174C6.7629 17.0964 6.6843 17.0736 6.6063 17.0505C6.5514 17.0343 6.4965 17.0178 6.4419 17.0004C6.354 16.9722 6.2667 16.9425 6.1803 16.9116C6.1392 16.8969 6.0984 16.8819 6.0576 16.8669C5.9598 16.8303 5.8626 16.7922 5.7666 16.752C5.7417 16.7418 5.7174 16.731 5.6925 16.7205C5.5827 16.6734 5.4738 16.6245 5.3664 16.5729C5.3619 16.5708 5.3577 16.5687 5.3532 16.5663C4.3065 16.0599 3.3819 15.3411 2.6316 14.4681C3.2115 12.3327 4.8531 10.6113 6.9651 9.9264C7.0068 9.9519 7.0503 9.9747 7.0932 9.9987C7.1184 10.0128 7.1433 10.0278 7.1688 10.0413C7.2582 10.0887 7.3488 10.1331 7.4415 10.173C7.5126 10.2042 7.5861 10.2306 7.6593 10.2576C7.6737 10.2627 7.6881 10.2684 7.7025 10.2735C8.1093 10.4175 8.5446 10.5 9 10.5C9.4554 10.5 9.8907 10.4175 10.2972 10.2735C10.3116 10.2684 10.326 10.2627 10.3404 10.2576C10.4136 10.2306 10.4871 10.2042 10.5582 10.173C10.6509 10.1331 10.7415 10.0887 10.8309 10.0413C10.8564 10.0275 10.8813 10.0128 10.9065 9.9987C10.9494 9.9747 10.9932 9.9519 11.0352 9.9261C13.1472 10.6113 14.7885 12.3327 15.3687 14.4678C14.6184 15.3405 13.6938 16.0593 12.6471 16.566L12.6471 16.566Z" id="Path" fill="#D8D8D8" fill-rule="evenodd" stroke="none" />
              <path d="M5.7 6.6C5.7 4.7805 7.1805 3.3 9 3.3C10.8195 3.3 12.3 4.7805 12.3 6.6C12.3 7.7574 11.6997 8.7759 10.7952 9.3651C10.677 9.4419 10.554 9.5106 10.4277 9.5706C10.4127 9.5778 10.398 9.5853 10.383 9.5922C9.5142 9.9873 8.4858 9.9873 7.617 9.5922C7.602 9.5853 7.587 9.5778 7.5723 9.5706C7.4457 9.5106 7.323 9.4419 7.2048 9.3651C6.3003 8.7759 5.7 7.7574 5.7 6.6L5.7 6.6Z" id="Path#1" fill="#D8D8D8" fill-rule="evenodd" stroke="none" />
              <path d="M15.8187 13.8969C15.1386 11.8887 13.587 10.2657 11.6046 9.4947C12.3975 8.7804 12.9 7.749 12.9 6.6C12.9 4.4496 11.1504 2.7 9 2.7C6.8496 2.7 5.1 4.4496 5.1 6.6C5.1 7.749 5.6025 8.7804 6.3957 9.4947C4.4133 10.266 2.8617 11.8887 2.1816 13.8969C1.1877 12.5172 0.6 10.8264 0.6 9C0.6 4.3683 4.3683 0.6 9 0.6C13.6317 0.6 17.4 4.3683 17.4 9C17.4 10.8264 16.8123 12.5172 15.8187 13.8969L15.8187 13.8969Z" id="Path#2" fill="#EAEAEA" fill-rule="evenodd" stroke="none" />
            </g>
          </g>
        </g>
      </g>
    </g>
    <g id="Menu-2.0" transform="translate(27 42)">
      <g id="Menu,-Sub-category-Mobile">
        <g id="Group-3">
          <g id="Group-23">
            <path d="M0 0L24 0L24 24L0 24L0 0Z" id="Rectangle-Copy-17" fill="none" fill-rule="evenodd" stroke="none" />
            <g id="Group-8" transform="translate(3 3)">
              <path d="M9 9L17.454 5.32978L18 14.4L9.2636 18.1868L9 9Z" id="Rectangle" fill="#D8D8D8" fill-rule="evenodd" stroke="none" />
              <path d="M9 9L0.546025 5.32978L0 14.4L8.7364 18.1868L9 9Z" id="Rectangle#1" fill="#E6E6E6" fill-rule="evenodd" stroke="none" />
              <g id="Group-7">
                <path d="M7.03518 10.0837C6.81547 9.83875 6.45914 9.83875 6.23939 10.0837L3.72678 12.8853L2.76061 11.808C2.5409 11.563 2.18457 11.563 1.96482 11.808C1.74506 12.053 1.74506 12.4503 1.96482 12.6953L3.32893 14.2162C3.43881 14.3387 3.58285 14.4 3.72681 14.4C3.87078 14.4 4.01486 14.3387 4.12469 14.2162L7.03518 10.971C7.25494 10.726 7.25494 10.3288 7.03518 10.0837L7.03518 10.0837Z" id="Group-2" fill="#000000" stroke="none" />
                <path d="M17.9812 4.79006C17.9623 4.7515 17.9623 4.73223 17.9247 4.69368C17.9059 4.65513 17.8682 4.63585 17.8117 4.61657L13.5 2.32274L9.1318 0.0289137C9.05649 -0.00963783 8.96234 -0.00963783 8.88703 0.0289137L4.5 2.32274L0.169456 4.61657C0.112971 4.63585 0.0564854 4.69368 0.0376568 4.7515C0.0188284 4.79006 0.0188284 4.80933 0 4.84788L0 4.86716L0 14.0425C0 14.1389 0.0564854 14.2352 0.150628 14.2931L8.8682 18.8614C8.88703 18.8807 8.90586 18.8807 8.92469 18.8807L8.94351 18.8807C8.96234 18.8807 8.98117 18.9 9.01883 18.9C9.05649 18.9 9.07531 18.9 9.11297 18.8807C9.11297 18.8807 9.1318 18.8807 9.1318 18.8614C9.1318 18.8614 9.15063 18.8614 9.15063 18.8422L17.8494 14.2931C17.9435 14.2352 18 14.1389 18 14.0425L18 4.86716C18 4.82861 18 4.80933 17.9812 4.79006L17.9812 4.79006ZM9 0.587914L13.2364 2.82392L17.1339 4.86716L13.3682 6.85258L5.23431 2.57333L9 0.587914L9 0.587914ZM8.7364 18.1868L0.546025 13.869L0.546025 5.32978L4.51883 7.41158L8.7364 9.6283L8.7364 18.1868L8.7364 18.1868ZM9 9.14641L4.7636 6.9104L0.866109 4.86716L4.6318 2.88174L12.7657 7.16099L9 9.14641L9 9.14641ZM17.454 13.8883L9.2636 18.1675L9.2636 9.6283L13.4812 7.41158L17.454 5.32978L17.454 13.8883L17.454 13.8883L17.454 13.8883ZM15.2625 8.58889C15.2801 8.58889 15.2625 8.57037 15.2625 8.55185C15.1921 8.34815 15.0337 8.21852 14.8577 8.14444C14.6641 8.07037 14.4353 8.08889 14.2241 8.2L12.2879 9.18148C12.0767 9.29259 11.9007 9.47778 11.795 9.68148C11.6894 9.88519 11.6718 10.1259 11.7422 10.3296C11.8126 10.5333 11.9711 10.6815 12.1471 10.7556C12.3407 10.8296 12.5695 10.8111 12.7807 10.7L14.7169 9.71852C14.9281 9.60741 15.1041 9.42222 15.2097 9.21852C15.2977 9.01481 15.333 8.79259 15.2625 8.58889L15.2625 8.58889ZM14.7521 9.07037C14.7169 9.14444 14.6465 9.21852 14.5761 9.25556L12.6399 10.237C12.5519 10.2741 12.4639 10.2926 12.3935 10.2556C12.3231 10.237 12.2703 10.1815 12.2351 10.1074L12.2351 10.0889C12.2175 10.0148 12.2175 9.92222 12.2527 9.84815C12.2879 9.77407 12.3583 9.7 12.4287 9.66296L14.3649 8.68148C14.4529 8.64444 14.5409 8.62593 14.6113 8.66296C14.6817 8.68148 14.7345 8.73704 14.7697 8.82963C14.8049 8.9037 14.7873 8.9963 14.7521 9.07037L14.7521 9.07037Z" id="box" fill="#000000" stroke="none" />
                <path d="M4.64121 2.88174L12.7657 7.2L9.2636 9.14641L0.866109 4.86716L4.64121 2.88174Z" id="Rectangle#2" fill="#CCCCCC" fill-rule="evenodd" stroke="none" />
                <path d="M9 0.587914L17.1339 4.86716L13.3588 6.85258L5.23431 2.57333L9 0.587914Z" id="Rectangle#3" fill="#CCCCCC" fill-rule="evenodd" stroke="none" />
              </g>
            </g>
          </g>
        </g>
      </g>
    </g>
    <g id="Menu-2.0" transform="translate(57 71)">
      <g id="Menu,-Sub-category-Mobile">
        <g id="Group-21">
          <g id="Group-32">
            <path d="M0 0L24 0L24 24L0 24L0 0Z" id="Rectangle-Copy-30" fill="none" fill-rule="evenodd" stroke="none" />
            <g id="Group-10" transform="translate(3 3)">
              <path d="M17.0091 11.2319C16.8209 11.4126 16.5693 11.5099 16.3099 11.5023C16.0506 11.4948 15.805 11.3829 15.6274 11.1916L11.4073 6.66638C11.2872 6.53762 11.0868 6.53174 10.9595 6.65324C10.8323 6.77475 10.8265 6.97764 10.9465 7.1064L15.1676 11.6313C15.4074 11.8883 15.4935 12.2553 15.3934 12.594C15.2933 12.9327 15.0223 13.1916 14.6824 13.2732C14.3426 13.3549 13.9855 13.2468 13.7457 12.9898L9.52495 8.46428C9.44728 8.38098 9.3316 8.34595 9.22148 8.37237C9.11137 8.39879 9.02354 8.48266 8.9911 8.59238C8.95865 8.7021 8.98651 8.821 9.06418 8.9043L13.2836 13.4285C13.6168 13.7855 13.6405 14.3359 13.3392 14.7208C13.0379 15.1058 12.5031 15.2085 12.0834 14.962C12.1491 14.5042 12.018 14.0398 11.7232 13.6862C11.4284 13.3327 10.9982 13.1237 10.5412 13.1122C10.1928 13.1029 10.3195 13.2362 10.3284 12.8837C10.341 12.4514 10.1833 12.0317 9.88995 11.7172C9.59664 11.4026 9.1918 11.2189 8.7646 11.2066C8.41625 11.1954 8.54134 11.3348 8.55179 10.9781C8.56423 10.5458 8.40641 10.1262 8.11307 9.81167C7.81972 9.49714 7.4149 9.31345 6.9877 9.30105C6.63713 9.29112 6.76444 9.43213 6.77489 9.07255C6.79198 8.41419 6.41643 7.80994 5.82264 7.54042C5.22886 7.2709 4.53319 7.38891 4.05871 7.83966C1.79444 10.0026 2.5757 9.25715 2.40691 9.41835L1.95785 8.93763C0.116348 6.96084 0.207018 3.8476 2.16037 1.98401C4.11372 0.12041 7.19006 0.212168 9.03156 2.18895L6.43794 4.66755C6.192 4.9062 6.04724 5.23218 6.03417 5.57675C6.0025 6.89296 7.93711 7.72173 9.11928 6.58947L11.483 4.33201C11.544 4.27359 11.6255 4.24212 11.7095 4.24453C11.7935 4.24693 11.8731 4.28301 11.9308 4.34482C12.5521 5.0111 16.453 9.19465 17.049 9.83337C17.227 10.0241 17.3229 10.2787 17.3154 10.541C17.3079 10.8033 17.1977 11.0519 17.0091 11.2319L17.0091 11.2319L17.0091 11.2319Z" id="Shape-path" fill="#E6E6E6" fill-rule="evenodd" stroke="none" />
              <g id="handshake-(1)">
                <path d="M17.5006 1.74733C16.5013 0.673043 15.1207 0.0452156 13.6635 0.00234795C12.2062 -0.0405197 10.7919 0.505095 9.73269 1.51883L9.49233 1.74861C7.41061 -0.48579 3.93316 -0.589314 1.72525 1.51739C-0.482666 3.62409 -0.584963 7.14324 1.49676 9.37765L2.03797 9.95804C1.80945 10.4935 1.88248 11.1118 2.22926 11.5777C2.57603 12.0436 3.14319 12.2852 3.7148 12.2107C3.61802 12.7204 3.76927 13.2462 4.1213 13.6237C4.47333 14.0013 4.98323 14.1845 5.4917 14.1163C5.39492 14.6259 5.54613 15.1516 5.8981 15.5291C6.25008 15.9065 6.75989 16.0898 7.26828 16.0215C7.14232 16.7137 7.47017 17.4095 8.08096 17.7461C8.69174 18.0828 9.44713 17.9841 9.95342 17.5015C11.7607 15.7748 11.704 15.861 11.8747 15.57C12.4033 15.8332 13.0321 15.781 13.5113 15.4341C13.9904 15.0872 14.2423 14.5018 14.1669 13.9105C14.6705 14.006 15.1888 13.8518 15.5612 13.4956C15.9335 13.1394 16.1148 12.6243 16.0489 12.1101C16.7369 12.238 17.4277 11.9012 17.7577 11.277C18.0877 10.6528 17.9812 9.88428 17.4942 9.37604C19.4995 7.23898 19.5023 3.8878 17.5006 1.74733L17.5006 1.74733ZM2.84614 9.88208L4.49288 8.30853C4.88666 7.94045 5.49985 7.96179 5.86771 8.35637C6.23557 8.75096 6.22097 9.3717 5.83498 9.74812L4.18824 11.3217C3.7954 11.6962 3.17707 11.6782 2.80624 11.2813C2.43625 10.8835 2.45409 10.2577 2.84614 9.88208L2.84614 9.88208ZM4.58314 13.1869C4.21279 12.7892 4.23065 12.1631 4.62304 11.7877L6.26978 10.2141C6.66252 9.83913 7.28126 9.85736 7.65178 10.2548C8.0223 10.6522 8.0043 11.2784 7.61156 11.6534L5.96482 13.2273C5.57152 13.601 4.95357 13.5822 4.58314 13.1853L4.58314 13.1869L4.58314 13.1869ZM6.35972 15.0921C5.98985 14.6943 6.00784 14.0686 6.39994 13.6932L8.04668 12.1197C8.44192 11.7685 9.04086 11.7968 9.40212 12.1836C9.76339 12.5704 9.75749 13.1772 9.38878 13.5567L7.74203 15.1303C7.34946 15.5056 6.73061 15.4878 6.35972 15.0905L6.35972 15.0921L6.35972 15.0921ZM9.51862 17.0381C9.26456 17.2807 8.90191 17.3677 8.56726 17.2664C8.2326 17.165 7.9768 16.8907 7.89621 16.5467C7.81561 16.2028 7.92247 15.8414 8.17652 15.5988L9.82326 14.0249C10.217 13.6569 10.8302 13.6782 11.1981 14.0728C11.566 14.4674 11.5514 15.0881 11.1654 15.4645L9.51862 17.0381L9.51862 17.0381ZM16.3099 11.5023C16.0506 11.4948 15.805 11.3829 15.6274 11.1916L11.4073 6.66638C11.2872 6.53762 11.0868 6.53174 10.9595 6.65324C10.8323 6.77475 10.8265 6.97764 10.9465 7.1064L15.1676 11.6313C15.4074 11.8883 15.4935 12.2553 15.3934 12.594C15.2933 12.9327 15.0223 13.1916 14.6824 13.2732C14.3426 13.3549 13.9855 13.2468 13.7457 12.9898L9.52495 8.46428C9.44728 8.38098 9.3316 8.34595 9.22148 8.37237C9.11137 8.39879 9.02354 8.48266 8.9911 8.59238C8.95865 8.7021 8.98651 8.821 9.06418 8.9043L13.2836 13.4285C13.6168 13.7855 13.6405 14.3359 13.3392 14.7208C13.0379 15.1058 12.5031 15.2085 12.0834 14.962C12.1491 14.5042 12.018 14.0398 11.7232 13.6862C11.4284 13.3327 10.9982 13.1237 10.5412 13.1122C10.1928 13.1029 10.3195 13.2362 10.3284 12.8837C10.341 12.4514 10.1833 12.0317 9.88995 11.7172C9.59664 11.4026 9.1918 11.2189 8.7646 11.2066C8.41625 11.1954 8.54134 11.3348 8.55179 10.9781C8.56423 10.5458 8.40641 10.1262 8.11307 9.81167C7.81972 9.49714 7.4149 9.31345 6.9877 9.30105C6.63713 9.29112 6.76444 9.43213 6.77489 9.07255C6.79198 8.41419 6.41643 7.80994 5.82264 7.54042C5.22886 7.2709 4.53319 7.38891 4.05871 7.83966C1.79444 10.0026 2.5757 9.25715 2.40691 9.41835L1.95785 8.93763C0.116348 6.96084 0.207018 3.8476 2.16037 1.98401C4.11372 0.12041 7.19006 0.212168 9.03156 2.18895L6.43794 4.66755C6.192 4.9062 6.04724 5.23218 6.03417 5.57675C6.0025 6.89296 7.93711 7.72173 9.11928 6.58947L11.483 4.33201C11.544 4.27359 11.6255 4.24212 11.7095 4.24453C11.7935 4.24693 11.8731 4.28301 11.9308 4.34482C12.5521 5.0111 16.453 9.19465 17.049 9.83337C17.227 10.0241 17.3229 10.2787 17.3154 10.541C17.3079 10.8033 17.1977 11.0519 17.0091 11.2319C16.8209 11.4126 16.5693 11.5099 16.3099 11.5023L16.3099 11.5023ZM17.0632 8.91487L12.3912 3.9048C12.2183 3.71938 11.9796 3.61109 11.7277 3.60375C11.4758 3.59642 11.2314 3.69065 11.0482 3.86571L8.68416 6.12381C8.4331 6.36364 8.09799 6.4924 7.7529 6.48164C7.40782 6.47088 7.08118 6.32147 6.84519 6.06644C6.72638 5.93897 6.66258 5.7689 6.66787 5.59375C6.67315 5.4186 6.7471 5.25278 6.87338 5.13289L10.1669 1.98481C12.0743 0.157456 15.071 0.193639 16.9348 2.06652C18.7985 3.93941 18.8554 6.97176 17.0632 8.91487L17.0632 8.91487Z" id="Shape" fill="#000000" fill-rule="evenodd" stroke="none" />
                <path d="M17.0044 9.09281L12.3324 4.08274C12.1594 3.89731 11.9207 3.78902 11.6688 3.78169C11.417 3.77435 11.1725 3.86858 10.9893 4.04364L8.62529 6.30174C8.37423 6.54157 8.03912 6.67034 7.69404 6.65957C7.34895 6.64881 7.02232 6.4994 6.78633 6.24438C6.66751 6.11691 6.60371 5.94683 6.609 5.77168C6.61429 5.59653 6.68823 5.43071 6.81451 5.31082L10.108 2.16274C12.0154 0.335388 15.0121 0.371571 16.8759 2.24445C18.7397 4.11734 18.7966 7.14969 17.0044 9.09281L17.0044 9.09281Z" id="Shape-path#1" fill="#CCCCCC" fill-rule="evenodd" stroke="none" />
                <path d="M2.84614 9.88208L4.49288 8.30853C4.88666 7.94045 5.49985 7.96179 5.86771 8.35637C6.23557 8.75096 6.22097 9.3717 5.83498 9.74812L4.18824 11.3217C3.7954 11.6962 3.17707 11.6782 2.80624 11.2813C2.43625 10.8835 2.45409 10.2577 2.84614 9.88208L2.84614 9.88208Z" id="Shape-path#2" fill="#E6E6E6" fill-rule="evenodd" stroke="none" />
                <path d="M4.58314 13.1869C4.21279 12.7892 4.23065 12.1631 4.62304 11.7877L6.26978 10.2141C6.66252 9.83913 7.28126 9.85736 7.65178 10.2548C8.0223 10.6522 8.0043 11.2784 7.61156 11.6534L5.96482 13.2273C5.57152 13.601 4.95357 13.5822 4.58314 13.1853L4.58314 13.1869L4.58314 13.1869Z" id="Shape-path#3" fill="#E6E6E6" fill-rule="evenodd" stroke="none" />
                <path d="M6.35972 15.0921C5.98985 14.6943 6.00784 14.0686 6.39994 13.6932L8.04668 12.1197C8.44192 11.7685 9.04086 11.7968 9.40212 12.1836C9.76339 12.5704 9.75749 13.1772 9.38878 13.5567L7.74203 15.1303C7.34946 15.5056 6.73061 15.4878 6.35972 15.0905L6.35972 15.0921L6.35972 15.0921Z" id="Shape-path#4" fill="#E6E6E6" fill-rule="evenodd" stroke="none" />
                <path d="M9.51862 17.0381C9.26456 17.2807 8.90191 17.3677 8.56726 17.2664C8.2326 17.165 7.9768 16.8907 7.89621 16.5467C7.81561 16.2028 7.92247 15.8414 8.17652 15.5988L9.82326 14.0249C10.217 13.6569 10.8302 13.6782 11.1981 14.0728C11.566 14.4674 11.5514 15.0881 11.1654 15.4645L9.51862 17.0381L9.51862 17.0381Z" id="Shape-path#5" fill="#E6E6E6" fill-rule="evenodd" stroke="none" />
              </g>
            </g>
          </g>
        </g>
      </g>
    </g>
    <g id="Group 30" clip-path="url(#clip_2)" transform="translate(0 71)">
      <path d="M0 0L24 0L24 24L0 24L0 0Z" id="Group-30" fill="none" fill-rule="evenodd" stroke="none" />
      <g id="Menu-2.0">
        <g id="Menu,-Sub-category-Mobile">
          <g id="Group-12">
            <g id="Group-30">
              <path d="M0 0L24 0L24 24L0 24L0 0Z" id="Rectangle-Copy-19" fill="none" fill-rule="evenodd" stroke="none" />
              <g id="Group-11" transform="translate(3 4)">
                <g id="shopping-store">
                  <path d="M16.5443 16L1.45574 16C1.3145 16 1.2 15.8842 1.2 15.7414L1.2 6.77708C1.2 6.63428 1.3145 6.51852 1.45574 6.51852C1.59698 6.51852 1.71148 6.63428 1.71148 6.77708L1.71148 15.4829L16.2885 15.4829L16.2885 6.77708C16.2885 6.63428 16.403 6.51852 16.5443 6.51852C16.6855 6.51852 16.8 6.63428 16.8 6.77708L16.8 15.7414C16.8 15.8842 16.6855 16 16.5443 16L16.5443 16Z" id="Path" fill="#000000" stroke="none" />
                  <path d="M17.7428 4.74074L0.255946 4.74074C0.168115 4.74034 0.0865693 4.69647 0.039691 4.6244C-0.0071876 4.55233 -0.0129144 4.46204 0.0245032 4.38494L2.08178 0.14322C2.12401 0.0561795 2.21407 0.000454903 2.31322 0L15.6855 0C15.7851 0 15.8758 0.0557728 15.9182 0.14322L17.9755 4.38494C18.013 4.46224 18.0072 4.55279 17.96 4.62493C17.9128 4.69707 17.8308 4.74074 17.7428 4.74074L17.7428 4.74074ZM0.661229 4.24172L17.3375 4.24172L15.5222 0.499025L2.47652 0.499025L0.661229 4.24172L0.661229 4.24172Z" id="Shape" fill="#000000" fill-rule="evenodd" stroke="none" />
                  <path d="M16.4999 7.11111C15.6718 7.10997 15.0009 6.33845 15 5.38647L15 4.40683C15 4.26396 15.1007 4.14815 15.225 4.14815L17.775 4.14815C17.8993 4.14815 18 4.26396 18 4.40683L18 5.38647C17.999 6.33849 17.328 7.10997 16.4999 7.11111L16.4999 7.11111ZM15.45 4.66552L15.45 5.38647C15.4445 5.82195 15.6434 6.22711 15.9705 6.44671C16.2977 6.66632 16.7023 6.66632 17.0295 6.44671C17.3566 6.22711 17.5555 5.82195 17.55 5.38647L17.55 4.66552L15.45 4.66552L15.45 4.66552Z" id="Shape#1" fill="#000000" fill-rule="evenodd" stroke="none" />
                  <path d="M13.5 7.11111C12.672 7.10997 12.001 6.33849 12 5.38647L12 4.40683C12 4.26396 12.1007 4.14815 12.225 4.14815L14.775 4.14815C14.8993 4.14815 15 4.26396 15 4.40683L15 5.38647C14.999 6.33849 14.328 7.10997 13.5 7.11111L13.5 7.11111ZM12.45 4.66552L12.45 5.38647C12.45 6.05323 12.9201 6.59374 13.5 6.59374C14.0799 6.59374 14.55 6.05323 14.55 5.38647L14.55 4.66552L12.45 4.66552L12.45 4.66552Z" id="Shape#2" fill="#000000" fill-rule="evenodd" stroke="none" />
                  <path d="M10.5001 7.11111C9.67203 7.10997 9.00099 6.33849 9 5.38647L9 4.40683C9 4.26396 9.10074 4.14815 9.22501 4.14815L11.775 4.14815C11.8993 4.14815 12 4.26396 12 4.40683L12 5.38647C11.9991 6.33845 11.3282 7.10997 10.5001 7.11111L10.5001 7.11111ZM9.45001 4.66552L9.45001 5.38647C9.44447 5.82195 9.64337 6.22711 9.97052 6.44671C10.2977 6.66632 10.7023 6.66632 11.0295 6.44671C11.3566 6.22711 11.5555 5.82195 11.55 5.38647L11.55 4.66552L9.45001 4.66552L9.45001 4.66552Z" id="Shape#3" fill="#000000" fill-rule="evenodd" stroke="none" />
                  <path d="M7.49989 7.11111C6.67185 7.10997 6.00087 6.33845 6 5.38647L6 4.40683C6 4.26396 6.10074 4.14815 6.22501 4.14815L8.77499 4.14815C8.89926 4.14815 9 4.26396 9 4.40683L9 5.38647C8.99901 6.33849 8.32797 7.10997 7.49989 7.11111L7.49989 7.11111ZM6.45001 4.66552L6.45001 5.38647C6.44447 5.82195 6.64337 6.22711 6.97052 6.44671C7.29766 6.66632 7.70234 6.66632 8.02948 6.44671C8.35663 6.22711 8.55553 5.82195 8.54999 5.38647L8.54999 4.66552L6.45001 4.66552L6.45001 4.66552Z" id="Shape#4" fill="#000000" fill-rule="evenodd" stroke="none" />
                  <path d="M4.5 7.11111C3.67198 7.10997 3.00099 6.33849 3 5.38647L3 4.40683C3 4.26396 3.10073 4.14815 3.22499 4.14815L5.77501 4.14815C5.89927 4.14815 6 4.26396 6 4.40683L6 5.38647C5.99901 6.33849 5.32802 7.10997 4.5 7.11111L4.5 7.11111ZM3.44998 4.66552L3.44998 5.38647C3.44998 6.05323 3.92009 6.59374 4.5 6.59374C5.07991 6.59374 5.55002 6.05323 5.55002 5.38647L5.55002 4.66552L3.44998 4.66552L3.44998 4.66552Z" id="Shape#5" fill="#000000" fill-rule="evenodd" stroke="none" />
                  <path d="M1.50011 7.11111C0.672035 7.10997 0.000991821 6.33849 0 5.38647L0 4.40683C0 4.26396 0.100739 4.14815 0.225006 4.14815L2.77499 4.14815C2.89926 4.14815 3 4.26396 3 4.40683L3 5.38647C2.99913 6.33845 2.32815 7.10997 1.50011 7.11111L1.50011 7.11111ZM0.450011 4.66552L0.450011 5.38647C0.444466 5.82195 0.643371 6.22711 0.970518 6.44671C1.29767 6.66632 1.70233 6.66632 2.02948 6.44671C2.35663 6.22711 2.55553 5.82195 2.54999 5.38647L2.54999 4.66552L0.450011 4.66552L0.450011 4.66552Z" id="Shape#6" fill="#000000" fill-rule="evenodd" stroke="none" />
                  <path d="M15.2923 4.74074C15.1489 4.74059 15.0246 4.65983 14.9929 4.54614L13.8062 0.299434C13.773 0.166419 13.8766 0.0362315 14.0395 0.00623083C14.2024 -0.0237703 14.365 0.0573912 14.4057 0.18902L15.5924 4.43573C15.6131 4.50983 15.5911 4.58755 15.5327 4.64691C15.4743 4.70626 15.3859 4.7408 15.2923 4.74074L15.2923 4.74074L15.2923 4.74074Z" id="Path#1" fill="#000000" stroke="none" />
                  <path d="M11.7612 4.74074C11.6457 4.74055 11.5468 4.65379 11.5266 4.53477L10.8033 0.290539C10.7819 0.155627 10.8682 0.0278273 10.9969 0.00389385C11.1256 -0.0200396 11.2488 0.0688014 11.2732 0.203157L11.9963 4.44739C12.0193 4.58305 11.9329 4.71255 11.8032 4.73675C11.7894 4.73943 11.7753 4.74074 11.7612 4.74074L11.7612 4.74074Z" id="Path#2" fill="#000000" stroke="none" />
                  <path d="M3.30714 4.74074C3.21378 4.7408 3.12547 4.70634 3.06718 4.64713C3.00889 4.58792 2.98696 4.51038 3.00759 4.43645L4.19227 0.199762C4.21437 0.11115 4.29383 0.039206 4.39992 0.0117636C4.50601 -0.0156794 4.62208 0.00568438 4.70323 0.0675883C4.78437 0.129493 4.81787 0.222228 4.79075 0.309916L3.60607 4.5466C3.57442 4.66002 3.45036 4.74059 3.30714 4.74074L3.30714 4.74074Z" id="Path#3" fill="#000000" stroke="none" />
                  <path d="M6.23878 4.74074C6.22469 4.74074 6.21063 4.73943 6.19678 4.73675C6.06712 4.71255 5.98071 4.58305 6.0037 4.44739L6.72683 0.203157C6.75121 0.0688014 6.87437 -0.0200396 7.00307 0.00389385C7.13178 0.0278273 7.21813 0.155627 7.19675 0.290539L6.47338 4.53477C6.45316 4.65379 6.35433 4.74055 6.23878 4.74074L6.23878 4.74074Z" id="Path#4" fill="#000000" stroke="none" />
                  <path d="M9.5 4.74074C9.22386 4.74074 9 4.62903 9 4.49123L9 0.249513C9 0.111711 9.22386 0 9.5 0C9.77614 0 10 0.111711 10 0.249513L10 4.49123C10 4.62903 9.77614 4.74074 9.5 4.74074L9.5 4.74074Z" id="Path#5" fill="#000000" stroke="none" />
                  <path d="M2.47652 0.499025L15.6 0.499025L17.3375 4.14815L0.661229 4.14815L2.47652 0.499025Z" id="Rectangle" fill="#CCCCCC" fill-rule="evenodd" stroke="none" />
                  <path d="M1.56123 7.11111L14.3476 7.11111L14.9952 7.11111L16.2885 7.11111L16.2885 15.4829L1.5 15.4829L1.56123 7.11111Z" id="Rectangle#1" fill="#EAEAEA" fill-rule="evenodd" stroke="none" />
                </g>
                <path d="M12.0716 8.88889L11.0637 13.8667L9.66733 13.8667L8.22029 11.5478L7.7523 13.8667L6.09677 13.8667L7.10451 8.88889L8.50106 8.88889L9.9488 11.2071L10.4168 8.88889L12.0716 8.88889Z" id="Group-3" fill="#242A36" fill-rule="evenodd" stroke="none" />
              </g>
            </g>
          </g>
        </g>
      </g>
    </g>
  </g>
</svg>