<?xml version="1.0" encoding="utf-8"?>
<svg width="324px" height="295px" viewBox="0 0 324 295" version="1.1" xmlns:xlink="http://www.w3.org/1999/xlink" xmlns="http://www.w3.org/2000/svg">
  <defs>
    <linearGradient gradientUnits="userSpaceOnUse" x1="0.031680033" y1="9.26112" x2="15.492256" y2="9.26112" id="gradient_1">
      <stop offset="49.49%" stop-color="#E6E6E6" />
      <stop offset="49.689995%" stop-color="#E4E4E4" />
      <stop offset="49.759995%" stop-color="#DDDDDD" />
      <stop offset="49.81%" stop-color="#D2D2D2" />
      <stop offset="49.83%" stop-color="#CCCCCC" />
    </linearGradient>
    <path d="M0 0L20 0L20 20L0 20L0 0Z" id="path_1" />
    <path d="M0 0L28 0L28 28L0 28L0 0Z" id="path_2" />
    <path d="M0 3.49691e-07L8 3.49691e-07L8 8L0 8L0 3.49691e-07Z" id="path_3" />
    <rect width="324" height="295" id="artboard_1" />
    <clipPath id="clip_1">
      <use xlink:href="#artboard_1" clip-rule="evenodd" />
    </clipPath>
    <clipPath id="mask_1">
      <use xlink:href="#path_1" />
    </clipPath>
    <clipPath id="mask_2">
      <use xlink:href="#path_2" />
    </clipPath>
    <clipPath id="mask_3">
      <use xlink:href="#path_3" />
    </clipPath>
  </defs>
  <g id="sprite-pdp" clip-path="url(#clip_1)">
    <path d="M110.064 0.000600072C110.216 0.006002 110.366 0.0471636 110.495 0.123691C110.637 0.208321 110.778 0.347111 110.856 0.492963L110.856 0.492963L112.011 2.66991L114.473 3.13062C114.946 3.21976 115.267 3.66456 115.199 4.14173L115.199 4.14173L114.854 6.58244L116.574 8.40419C116.905 8.75441 116.902 9.30168 116.567 9.64741L116.567 9.64741L114.854 11.4199L115.175 13.9028C115.236 14.38 114.911 14.8223 114.438 14.9051L114.438 14.9051L112.009 15.3324L110.81 17.5323C110.648 17.8303 110.339 18 110.019 18C109.886 18 109.752 17.9707 109.625 17.9086L109.625 17.9086L107.411 16.8254L107.409 16.8254L105.146 17.8998C104.709 18.1068 104.191 17.9335 103.966 17.5076L103.966 17.5076L102.811 15.3307L100.347 14.87C99.8747 14.7808 99.5553 14.336 99.6229 13.8589L99.6229 13.8589L99.9675 11.4182L98.246 9.59817C97.9156 9.24794 97.9181 8.69892 98.253 8.35319L98.253 8.35319L99.9675 6.58244L99.6457 4.09777C99.5845 3.6206 99.9089 3.17829 100.382 3.09546L100.382 3.09546L102.811 2.66991L104.01 0.470104C104.241 0.0478529 104.761 -0.119537 105.195 0.0920391L105.195 0.0920391L107.411 1.17524L109.625 0.0920391C109.759 0.0263156 109.913 -0.00480186 110.064 0.000600072L110.064 0.000600072ZM109.658 2.07733L107.805 2.98469C107.555 3.10623 107.265 3.10623 107.015 2.98469L107.015 2.98469L105.178 2.08612L104.195 3.90259C104.064 4.14838 103.829 4.3191 103.556 4.36682L103.556 4.36682L101.541 4.72027L101.812 6.76533C101.852 7.04083 101.761 7.31893 101.568 7.51971L101.568 7.51971L100.147 8.988L101.568 10.4827C101.762 10.6834 101.852 10.9615 101.812 11.237L101.812 11.237L101.527 13.2593L103.556 13.6338C103.83 13.6815 104.064 13.8522 104.195 14.098L104.195 14.098L105.153 15.9057L107.015 15.0159C107.14 14.9547 107.276 14.9245 107.411 14.9245C107.546 14.9245 107.68 14.9556 107.805 15.0159L107.805 15.0159L109.642 15.9145L110.627 14.098C110.758 13.8531 110.992 13.6824 111.265 13.6338L111.265 13.6338L113.279 13.2804L113.01 11.2353C112.971 10.9607 113.06 10.6834 113.252 10.4844L113.252 10.4844L113.558 10.1679L114.673 9.01438L113.252 7.51795C113.059 7.31898 112.971 7.04169 113.01 6.76709L113.01 6.76709L113.295 4.74137L111.265 4.36682C110.992 4.3191 110.756 4.14838 110.625 3.90259L110.625 3.90259L109.658 2.07733L109.658 2.07733ZM109.574 4.99457L110.654 5.80521L105.248 13.006L104.168 12.1954L109.574 4.99457L109.574 4.99457ZM109.662 9.90063C110.407 9.90063 111.012 10.5057 111.012 11.2511C111.012 11.9966 110.407 12.6016 109.662 12.6016C108.916 12.6016 108.311 11.9966 108.311 11.2511C108.311 10.5057 108.916 9.90063 109.662 9.90063L109.662 9.90063ZM105.16 5.39905C105.906 5.39905 106.511 6.00406 106.511 6.74953C106.511 7.495 105.906 8.10001 105.16 8.10001C104.415 8.10001 103.81 7.495 103.81 6.74953C103.81 6.00406 104.415 5.39905 105.16 5.39905L105.16 5.39905Z" id="icons8-discount-copy-2" fill="#727272" fill-rule="evenodd" stroke="none" artboard="f4ca4657-c0e5-49f3-afe0-407ea76d8d54" />
    <path d="M124.803 5L121.938 8.18417C121.627 8.52917 121.627 9.08917 121.938 9.43417L121.938 9.43417C122.248 9.77917 122.752 9.77917 123.063 9.43417L126.523 5.58917C126.816 5.26333 126.816 4.73583 126.523 4.41083L123.063 0.565833C122.752 0.220833 122.248 0.220833 121.938 0.565833L121.938 0.565833C121.627 0.910833 121.627 1.47083 121.938 1.81583L124.803 5L124.803 5Z" id="Group" fill="#979797" fill-rule="evenodd" stroke="none" artboard="c4f84942-b2c6-489e-aee2-8667c5e06c8f" />
    <path d="M210 3.80325L206.816 0.937495C206.471 0.626995 205.911 0.626995 205.566 0.937495L205.566 0.937495C205.221 1.248 205.221 1.752 205.566 2.0625L209.411 5.523C209.737 5.81625 210.264 5.81625 210.589 5.523L214.434 2.0625C214.779 1.752 214.779 1.248 214.434 0.937495L214.434 0.937495C214.089 0.626995 213.529 0.626995 213.184 0.937495L210 3.80325L210 3.80325Z" id="Group#1" fill="#979797" fill-rule="evenodd" stroke="none" artboard="43e0c549-fab9-461e-82e2-35c8c1281233" />
    <g id="Group-8" transform="translate(60 0)" artboard="1ff9d716-fdcd-40b4-a326-8cd048f62ad1">
      <g id="Mask-Group">
        <path d="M0 0L20 0L20 20L0 20L0 0Z" id="path-1" fill="none" fill-rule="evenodd" stroke="none" />
        <g clip-path="url(#mask_1)">
          <path d="M0 0L20 0L20 20L0 20L0 0Z" id="path-1" fill="none" fill-rule="evenodd" stroke="#277833" stroke-width="2" />
        </g>
      </g>
      <path d="M5 10C5 7.23858 7.23858 5 10 5C12.7614 5 15 7.23858 15 10C15 12.7614 12.7614 15 10 15C7.23858 15 5 12.7614 5 10Z" id="Oval" fill="#277833" fill-rule="evenodd" stroke="none" />
    </g>
    <path d="M88 5.5L90.5253 5.5L88.7576 10L89.5152 10L93.5556 4.5L91.2828 4.5L93.303 0L90.0202 0L88 5.5L88 5.5Z" id="icons8-flash_on-copy" fill="#3F763B" fill-rule="evenodd" stroke="none" artboard="9053fffc-7550-457c-9dda-e5532fa31026" />
    <path d="M159 31.5L161.525 31.5L159.758 36L160.515 36L164.556 30.5L162.283 30.5L164.303 26L161.02 26L159 31.5L159 31.5Z" id="icons8-flash_on-copy#1" fill="#FF9A00" fill-rule="evenodd" stroke="none" artboard="6520e662-8d67-4d93-85de-f55cb25a8f2d" />
    <g id="Untitled-1" transform="translate(129.83997 1.0800018)" artboard="87237131-0b65-437d-8e28-ab2311fac961">
      <path d="M8.52 0C6.12001 1.8 3.84 3.24 0 3.72L0 9.36C0 14.52 3.48001 19.08 8.52 20.4C13.56 19.08 17.04 14.64 17.04 9.36L17.04 3.72C13.2 3.24 10.92 1.68 8.52 0L8.52 0ZM16.68 9.12C16.68 14.16 13.32 18.6 8.51999 20.16C3.71999 18.6 0.359985 14.16 0.359985 9.12L0.359985 4.2C3.71999 3.48 6.23999 2.04 8.51999 0.479996C10.8 2.16 13.2 3.36 16.68 4.2L16.68 9.12L16.68 9.12Z" id="Shape#1" fill="#232A37" fill-rule="evenodd" stroke="none" />
      <path d="M8.51997 19.68C3.95998 18.24 0.839966 14.04 0.839966 9.24L0.839966 4.56C4.07997 3.84 6.47998 2.64 8.51997 1.2C10.68 2.76 12.96 3.96 16.2 4.56L16.2 9.24C16.2 14.04 13.2 18.24 8.51997 19.68L8.51997 19.68Z" id="Path#5" fill="url(#gradient_1)" fill-rule="evenodd" stroke="none" />
      <path d="M12.84 6.84L11.52 13.68L9.48 13.68L7.55998 10.44L6.95999 13.68L4.67999 13.68L5.99998 6.84L7.91998 6.84L9.95999 9.96L10.56 6.72L12.84 6.72L12.84 6.84Z" id="Path#6" fill="#242A36" fill-rule="evenodd" stroke="none" />
    </g>
    <g id="Group-12" transform="translate(152.5 0.5)" artboard="121a38fd-5348-47f2-b012-6696f86b7604">
      <g id="Path#7">
        <path d="M0.5 11.5L3.50409 11.5L14.3 11.5L14.3 0.5L0.5 0.5L0.5 11.5Z" id="path-4" fill="#E6E6E6" fill-rule="evenodd" stroke="none" />
        <path d="M14.8 0L14.8 12L0 12L0 0L14.8 0L14.8 0Z" id="Shape" fill="none" fill-rule="evenodd" stroke="#222A37" stroke-width="1" />
        <path d="M0.5 11.5L3.50409 11.5L14.3 11.5L14.3 0.5L0.5 0.5L0.5 11.5Z" id="path-4" fill="none" fill-rule="evenodd" stroke="#FFFFFF" stroke-width="0.4" />
      </g>
      <g id="Path-Copy" transform="translate(15 2)">
        <path d="M0.5 9.5L1.18762 9.5L7.5 9.5L7.5 5.5625L3.65875 0.5L0.5 0.5L0.5 9.5Z" id="path-5" fill="#E6E6E6" fill-rule="evenodd" stroke="none" />
        <path d="M3.90701 0L8 5.39428L8 10L0 10L0 0L3.90701 0L3.90701 0Z" id="Shape" fill="none" fill-rule="evenodd" stroke="#222A37" stroke-width="1" />
        <path d="M0.5 9.5L1.18762 9.5L7.5 9.5L7.5 5.5625L3.65875 0.5L0.5 0.5L0.5 9.5Z" id="path-5" fill="none" fill-rule="evenodd" stroke="#FFFFFF" stroke-width="0.4" />
      </g>
      <g id="Oval-Copy-12" transform="translate(2.0999756 10.100006)">
        <path d="M0.400024 1.89999C0.400024 1.07157 1.0716 0.399994 1.90002 0.399994C2.72845 0.399994 3.40002 1.07157 3.40002 1.89999C3.40002 2.72842 2.72845 3.39999 1.90002 3.39999C1.0716 3.39999 0.400024 2.72842 0.400024 1.89999Z" id="path-6" fill="#CCCCCC" fill-rule="evenodd" stroke="none" />
        <path d="M0 1.9C0 0.850659 0.850659 0 1.9 0C2.94934 0 3.8 0.850659 3.8 1.9C3.8 2.94934 2.94934 3.8 1.9 3.8C0.850659 3.8 0 2.94934 0 1.9Z" id="Circle" fill="none" fill-rule="evenodd" stroke="#242A36" stroke-width="0.8" />
        <path d="M0.400024 1.89999C0.400024 1.07157 1.0716 0.399994 1.90002 0.399994C2.72845 0.399994 3.40002 1.07157 3.40002 1.89999C3.40002 2.72842 2.72845 3.39999 1.90002 3.39999C1.0716 3.39999 0.400024 2.72842 0.400024 1.89999Z" id="path-6" fill="none" fill-rule="evenodd" stroke="#FFFFFF" stroke-width="0.4" />
      </g>
      <g id="Oval-Copy-13" transform="translate(17.099976 10.100006)">
        <path d="M0.400024 1.89999C0.400024 1.07157 1.0716 0.399994 1.90002 0.399994C2.72845 0.399994 3.40002 1.07157 3.40002 1.89999C3.40002 2.72842 2.72845 3.39999 1.90002 3.39999C1.0716 3.39999 0.400024 2.72842 0.400024 1.89999Z" id="path-7" fill="#CCCCCC" fill-rule="evenodd" stroke="none" />
        <path d="M0 1.9C0 0.850659 0.850659 0 1.9 0C2.94934 0 3.8 0.850659 3.8 1.9C3.8 2.94934 2.94934 3.8 1.9 3.8C0.850659 3.8 0 2.94934 0 1.9Z" id="Circle" fill="none" fill-rule="evenodd" stroke="#242A36" stroke-width="0.8" />
        <path d="M0.400024 1.89999C0.400024 1.07157 1.0716 0.399994 1.90002 0.399994C2.72845 0.399994 3.40002 1.07157 3.40002 1.89999C3.40002 2.72842 2.72845 3.39999 1.90002 3.39999C1.0716 3.39999 0.400024 2.72842 0.400024 1.89999Z" id="path-7" fill="none" fill-rule="evenodd" stroke="#FFFFFF" stroke-width="0.4" />
      </g>
      <path d="M20.071 3.5L17.5 3.5L17.5 6.5L22.335 6.5L20.071 3.5Z" id="Path-2" fill="none" fill-rule="evenodd" stroke="#222A37" stroke-width="0.8" />
      <path d="M14.0357 2L3 2" id="Line-3" fill="none" fill-rule="evenodd" stroke="#222A37" stroke-width="1" stroke-linecap="square" />
      <path d="M2 10L0 10" id="Line-3-Copy" fill="none" fill-rule="evenodd" stroke="#222A37" stroke-width="1" stroke-linecap="square" />
      <path d="M14 10L7 10" id="Line-3-Copy-7" fill="none" fill-rule="evenodd" stroke="#222A37" stroke-width="1" stroke-linecap="square" />
    </g>
    <path d="M223.5 0C221.015 0 219 1.881 219 4.2C219 7.35 223.5 12 223.5 12C223.5 12 228 7.35 228 4.2C228 1.881 225.985 0 223.5 0L223.5 0ZM223.5 6C222.506 6 221.7 5.328 221.7 4.5C221.7 3.672 222.506 3 223.5 3C224.494 3 225.3 3.672 225.3 4.5C225.3 5.328 224.494 6 223.5 6L223.5 6Z" id="Location-Copy-2" fill="#2F73C2" fill-rule="evenodd" stroke="none" artboard="e73e8661-17ed-4eb6-aad0-2f66f4ed920c" />
    <g id="icons8-undo-copy" transform="translate(179.25269 1.8770599)" artboard="2a7f45de-d44f-4dd5-b4b6-633c86f19156">
      <g id="Path#8">
        <path d="M9.3353 14.1229L9.3353 12.1838L12.4045 12.1838C14.2222 12.1838 15.7011 10.7822 15.7011 9.05954C15.7011 7.33691 14.2222 5.93532 12.4045 5.93532L5.01561 5.93532L5.01561 8.80853L0.747314 4.96573L5.01561 1.12294L5.01561 3.99615L12.4045 3.99615C15.3506 3.99615 17.7473 6.26757 17.7473 9.05954C17.7473 11.8515 15.3506 14.1229 12.4045 14.1229L9.3353 14.1229L9.3353 14.1229Z" id="path-8" fill="#CCCCCC" stroke="none" />
        <path d="M5.51558 0L5.51558 3.49615L12.4045 3.49615C14.0122 3.49615 15.469 4.11758 16.5246 5.11794C17.5901 6.12777 18.2473 7.52278 18.2473 9.05954C18.2473 10.5963 17.5901 11.9913 16.5246 13.0011C15.469 14.0015 14.0122 14.6229 12.4045 14.6229L12.4045 14.6229L8.83527 14.6229L8.83527 11.6838L12.4045 11.6838C13.1787 11.6838 13.8817 11.3869 14.3905 10.9047C14.8893 10.432 15.2011 9.78009 15.2011 9.05954C15.2011 8.339 14.8893 7.68711 14.3905 7.21436C13.8817 6.73214 13.1787 6.43532 12.4045 6.43532L12.4045 6.43532L5.51558 6.43532L5.51558 9.93147L0 4.96573L5.51558 0L5.51558 0Z" id="Shape" fill="none" fill-rule="evenodd" stroke="#212A36" stroke-width="1" />
        <path d="M9.3353 14.1229L9.3353 12.1838L12.4045 12.1838C14.2222 12.1838 15.7011 10.7822 15.7011 9.05954C15.7011 7.33691 14.2222 5.93532 12.4045 5.93532L5.01561 5.93532L5.01561 8.80853L0.747314 4.96573L5.01561 1.12294L5.01561 3.99615L12.4045 3.99615C15.3506 3.99615 17.7473 6.26757 17.7473 9.05954C17.7473 11.8515 15.3506 14.1229 12.4045 14.1229L9.3353 14.1229L9.3353 14.1229Z" id="path-8" fill="none" stroke="#FFFFFF" stroke-width="0.4" />
      </g>
    </g>
    <path d="M121.61 69L122.2 65.382L119.7 62.8197L123.155 62.2918L124.7 59L126.245 62.2918L129.7 62.8197L127.2 65.382L127.79 69L124.7 67.2918L121.61 69L121.61 69Z" id="Star-Copy-20" fill="#373737" fill-rule="evenodd" stroke="none" artboard="e53a1126-fc01-43ac-80fe-3dea479e612d" />
    <g id="Group#3" transform="translate(239 0)" artboard="74e6a898-5fe0-470a-9fd6-034e045ee91f">
      <path d="M0 4C0 1.79086 1.79086 0 4 0C6.20914 0 8 1.79086 8 4C8 6.20914 6.20914 8 4 8C1.79086 8 0 6.20914 0 4Z" id="Oval#1" fill="#E3F0E2" fill-rule="evenodd" stroke="none" />
      <path d="M5.64707 3.05882L3.52942 5.17647" id="Line-5" fill="none" fill-rule="evenodd" stroke="#3F763B" stroke-width="1" stroke-linecap="square" />
      <path d="M2.58826 4.23529L3.5 5.2" id="Line-4" fill="none" fill-rule="evenodd" stroke="#3F763B" stroke-width="1" stroke-linecap="square" />
    </g>
    <g id="ic_thumb_up" transform="translate(252 0)" artboard="31cc23e3-584e-40ca-93b5-70a2c0b1dbb0">
      <path d="M0 0L10 0L10 10L0 10L0 0Z" id="Bounds" fill="none" fill-rule="evenodd" stroke="none" />
      <path d="M0.416687 8.75L2.08334 8.75L2.08334 3.75L0.416687 3.75L0.416687 8.75L0.416687 8.75L0.416687 8.75ZM9.58336 4.16667C9.58336 3.70834 9.20836 3.33334 8.75002 3.33334L6.12083 3.33334L6.51668 1.42917L6.52919 1.29584C6.52919 1.12501 6.45836 0.966672 6.34584 0.854172L5.90419 0.416672L3.16252 3.1625C3.00835 3.31251 2.91669 3.52084 2.91669 3.75001L2.91669 7.91667C2.91669 8.37501 3.29169 8.75 3.75002 8.75L7.50002 8.75C7.84584 8.75 8.14168 8.54167 8.26668 8.24167L9.52501 5.30417C9.56252 5.20834 9.58336 5.10834 9.58336 5.00001L9.58336 4.20417L9.57918 4.2L9.58336 4.16667L9.58336 4.16667L9.58336 4.16667Z" id="Icon" fill="#277833" fill-rule="evenodd" stroke="none" />
    </g>
    <path d="M173.85 25C172.94 25 172.2 25.7084 172.2 26.5789C172.2 26.7644 172.239 26.9398 172.301 27.1053L170 27.1053L170 30.2632L170.55 30.2632L170.55 33.9936C170.55 34.5489 171.021 35 171.602 35L179.398 35C179.979 35 180.45 34.5489 180.45 33.9936L180.45 30.2632L181 30.2632L181 27.1053L178.699 27.1053C178.761 26.9398 178.8 26.7644 178.8 26.5789C178.8 25.7084 178.06 25 177.15 25C176.726 25 176.343 25.1578 176.05 25.4102L176.05 25.403L176.007 25.4441C175.992 25.4576 175.978 25.4712 175.964 25.4852L175.5 25.9293L175.036 25.4852C175.022 25.4712 175.008 25.4576 174.993 25.4441L174.95 25.403L174.95 25.4102C174.657 25.1578 174.274 25 173.85 25L173.85 25ZM173.85 26.0526C174.154 26.0526 174.4 26.2889 174.4 26.5789C174.4 26.8689 174.154 27.1053 173.85 27.1053C173.546 27.1053 173.3 26.8689 173.3 26.5789C173.3 26.2889 173.546 26.0526 173.85 26.0526L173.85 26.0526ZM177.15 26.0526C177.454 26.0526 177.7 26.2889 177.7 26.5789C177.7 26.8689 177.454 27.1053 177.15 27.1053C176.846 27.1053 176.6 26.8689 176.6 26.5789C176.6 26.2889 176.846 26.0526 177.15 26.0526L177.15 26.0526ZM171.1 28.1579L179.9 28.1579L179.9 29.2105L171.1 29.2105L171.1 28.1579L171.1 28.1579ZM171.65 30.2632L174.95 30.2632L174.95 33.9474L171.65 33.9474L171.65 30.2632L171.65 30.2632ZM176.05 30.2632L179.35 30.2632L179.35 33.9474L176.05 33.9474L176.05 30.2632L176.05 30.2632Z" id="icons8-gift" fill="#FFFFFF" fill-rule="evenodd" stroke="none" artboard="f87054af-d75d-46c1-bb25-80a45532fc30" />
    <path d="M70.5 28.155L72.1963 29.8613C72.3801 30.0462 72.6784 30.0462 72.8622 29.8613L72.8622 29.8613C73.0459 29.6765 73.0459 29.3764 72.8622 29.1915L70.8139 27.131C70.6403 26.9563 70.3593 26.9563 70.1861 27.131L68.1378 29.1915C67.9541 29.3764 67.9541 29.6765 68.1378 29.8613L68.1378 29.8613C68.3216 30.0462 68.6199 30.0462 68.8037 29.8613L70.5 28.155L70.5 28.155Z" id="iconsactionarrow-up---inverse" fill="#727272" fill-rule="evenodd" stroke="none" artboard="a7180cf2-871b-4220-907e-6b9876529fd0" />
    <path d="M59.6033 70.81C60.1553 71.3792 61.0513 71.3792 61.6033 70.81L61.6033 70.81C62.1553 70.2407 62.1553 69.3167 61.6033 68.7475L55.4513 62.4032C54.93 61.8656 54.086 61.8656 53.566 62.4032L47.414 68.7475C46.862 69.3167 46.862 70.2407 47.414 70.81L47.414 70.81C47.966 71.3792 48.862 71.3792 49.414 70.81L54.5087 65.5561L59.6033 70.81L59.6033 70.81Z" id="Path#10" fill="#373737" fill-rule="evenodd" stroke="none" artboard="dacaa49f-2b84-43cf-98f1-5fef695185ed" />
    <path d="M80.8182 27C79.8136 27 79 27.7831 79 28.75L79 38.375L80.8182 38.375C80.8182 39.8249 82.0391 41 83.5455 41C85.0518 41 86.2727 39.8249 86.2727 38.375L90.8182 38.375L91.7273 38.375C91.7273 39.8249 92.9482 41 94.4545 41C95.9609 41 97.1818 39.8249 97.1818 38.375L98.0909 38.375L99 38.375L99 34L96.5231 29.2336C96.3694 28.937 96.0562 28.75 95.7116 28.75L92.6364 28.75L92.6364 27L80.8182 27L80.8182 27ZM80.8182 28.75L90.8182 28.75L90.8182 32.25L90.8182 34L90.8182 36.625L85.5643 36.625C85.0651 36.0918 84.3499 35.75 83.5454 35.75C82.741 35.75 82.0258 36.0918 81.5266 36.625L80.8182 36.625L80.8182 28.75L80.8182 28.75ZM92.6364 30.5L95.1488 30.5L96.0579 32.25L92.6364 32.25L92.6364 30.5L92.6364 30.5ZM92.6364 34L96.967 34L97.1818 34.4136L97.1818 34.875L97.1818 36.0627L97.1818 36.625L96.4734 36.625C95.9742 36.0918 95.259 35.75 94.4545 35.75C93.7526 35.75 93.1197 36.0127 92.6364 36.4319L92.6364 35.345L92.6364 34.875L92.6364 34L92.6364 34ZM83.5454 37.2813C84.1718 37.2813 84.6818 37.7721 84.6818 38.375C84.6818 38.9779 84.1718 39.4688 83.5454 39.4688C82.9191 39.4688 82.4091 38.9779 82.4091 38.375C82.4091 37.7721 82.9191 37.2813 83.5454 37.2813L83.5454 37.2813ZM94.4545 37.2813C95.0809 37.2813 95.5909 37.7721 95.5909 38.375C95.5909 38.9779 95.0809 39.4688 94.4545 39.4688C93.8282 39.4688 93.3182 38.9779 93.3182 38.375C93.3182 37.7721 93.8282 37.2813 94.4545 37.2813L94.4545 37.2813Z" id="iconsrepresentationshipping-copy" fill="#727272" fill-rule="evenodd" stroke="none" artboard="ccc2a795-43a9-4eab-905d-51f716838046" />
    <g id="Group-6" transform="translate(103.95007 26.95259)" artboard="bb3d453a-094a-4e91-8c57-f7b1b089d728">
      <path d="M0.411598 0L2.44008 0.529963C2.59055 0.566362 2.72178 0.650354 2.81946 0.765402C2.90824 0.869986 2.96928 1.00024 2.99166 1.14352C3.05738 1.14925 3.12071 1.15421 3.18295 1.15833C3.29 1.16537 3.3961 1.17065 3.49342 1.17405L3.49342 1.17405L4.13444 1.12849L4.13444 1.12849L8.45811 0.822866L8.93926 0.788809C8.95247 0.787912 8.96571 0.787743 8.97908 0.788307C9.19048 0.79788 9.39118 0.866554 9.56288 0.982124C9.73417 1.09741 9.87659 1.25939 9.97182 1.45588L9.97182 1.45588L11.0986 3.78012L11.1032 3.78965L11.2372 4.05253C11.4193 4.40998 11.5337 4.80071 11.574 5.20347L11.574 5.20347L11.8101 7.6316L19.5119 7.6316C19.9504 7.63211 20.3475 7.81752 20.635 8.11737C20.9218 8.41644 21.0994 8.8294 21.0999 9.28577L21.0999 9.28577L21.0999 15.4433C21.0994 15.8996 20.9218 16.3126 20.635 16.6116C20.3475 16.9115 19.9504 17.0969 19.5118 17.0974L19.5118 17.0974L7.9692 17.0974C7.53065 17.0969 7.13358 16.9115 6.84609 16.6116C6.55934 16.3126 6.38168 15.8996 6.38118 15.4432L6.38118 15.4432L6.38118 9.56306L5.93888 9.78231C5.7649 9.8445 5.58152 9.84917 5.41109 9.80246C5.24099 9.75583 5.08374 9.658 4.96177 9.5149C4.84023 9.37231 4.76561 9.19866 4.74123 9.01762C4.72031 8.8623 4.73639 8.70157 4.79141 8.55044C4.6376 8.55608 4.48383 8.56168 4.33013 8.56723L4.33013 8.56723L4.29939 8.56779C4.07549 8.56783 3.86989 8.47917 3.71506 8.3322C3.56094 8.18591 3.45717 7.98178 3.43626 7.75L3.43626 7.75L3.43406 7.72401C3.41206 7.43383 3.52635 7.15288 3.73647 6.96731L3.73647 6.96731L2.99753 6.70457C2.82314 6.64291 2.65781 6.55624 2.50632 6.44705L2.50632 6.44705L1.97392 6.06241L1.95927 6.11355C1.92426 6.21022 1.8712 6.29664 1.80478 6.36894L1.73408 6.43639C1.60877 6.54103 1.4504 6.60251 1.28051 6.60299C1.22586 6.60297 1.17139 6.59657 1.11815 6.58394L1.11815 6.58394L0.278091 6.38534C0.215683 6.37058 0.159386 6.33908 0.113983 6.29527C0.0689621 6.25183 0.0346603 6.19627 0.0158615 6.13305C-0.021637 6.00692 0.008461 5.8696 0.0943909 5.77272C0.137802 5.72379 0.192116 5.68884 0.251122 5.66976C0.310417 5.65059 0.374474 5.64742 0.437119 5.66223L0.437119 5.66223L1.27718 5.86084C1.27972 5.86144 1.28238 5.86087 1.28457 5.85943L1.28457 5.85943L1.29035 5.85049L2.28597 1.26961C2.2868 1.2658 2.2862 1.26194 2.28409 1.25882C2.28115 1.25449 2.27604 1.25182 2.26905 1.25014L2.26905 1.25014L0.270226 0.727928L0.411598 0L0.411598 0Z" id="Path#11" fill="#232A37" fill-rule="evenodd" stroke="#232A37" stroke-width="0.1" />
      <path d="M4.05124 7.47667L6.09155 7.70747L5.62651 8.38028L5.62651 8.38028L4.31026 8.47633C4.22941 8.48174 4.15442 8.42133 4.09796 8.3168C4.04299 8.21502 4.00566 8.07116 3.99883 7.90944L3.99883 7.90944L3.99789 7.8895C3.9914 7.73703 4.01183 7.59267 4.05124 7.47667L4.05124 7.47667L4.05124 7.47667Z" id="Path#12" fill="#EFEFEF" fill-rule="evenodd" stroke="#FFFFFF" stroke-width="0.2" />
      <path d="M6.50423 7.7618C6.79305 8.25499 6.68909 8.53153 6.60448 8.81033L6.60448 8.81033L5.43774 9.37798L6.50423 7.7618Z" id="Path#13" fill="#EFEFEF" fill-rule="evenodd" stroke="#FFFFFF" stroke-width="0.2" />
      <path d="M6.61682 6.99646L4.88393 6.33463L3.14079 5.92311L2.17233 5.36473C2.14626 5.34596 2.11758 5.33149 2.08728 5.32185L2.84753 1.82389C2.85365 1.82484 2.85967 1.826 2.8659 1.82658C2.96195 1.83552 3.05183 1.84272 3.14079 1.84859C3.26048 1.85649 3.3792 1.86227 3.49363 1.86578C3.50301 1.86609 3.5127 1.86593 3.52223 1.86528L4.17968 1.81856C5.62103 1.71694 7.06224 1.61507 8.50333 1.51295L8.96523 1.48024C9.1414 1.49364 9.29793 1.60242 9.37762 1.76684L10.5025 4.08717L10.5124 4.10732C10.5134 4.10937 10.5144 4.11142 10.5154 4.11346L10.6492 4.3761C10.7914 4.65508 10.8807 4.96003 10.9123 5.27425L11.1464 7.68159L10.3932 7.68159L10.1855 5.92311C10.1744 5.82927 10.1242 5.7453 10.0483 5.69363L9.6869 5.44772C9.68491 5.44629 9.68311 5.44468 9.68108 5.44329L8.73476 4.79983C8.52448 4.65695 8.26683 4.61135 8.02313 4.67389C7.77943 4.73642 7.57149 4.9015 7.44878 5.12983C7.39665 5.22659 7.36142 5.33223 7.34472 5.44183C7.34203 5.45796 7.33991 5.47463 7.33843 5.4908C7.3349 5.52422 7.33314 5.55782 7.33315 5.59145C7.33192 5.88163 7.45959 6.15606 7.67889 6.33463L10.0112 8.24981L10.5003 8.65145C10.552 8.69339 10.5928 8.74822 10.6189 8.81091C10.6521 8.89078 10.6606 8.97945 10.6433 9.06461C10.6366 9.09635 10.6263 9.12716 10.6127 9.15639C10.6121 9.15794 10.6112 9.1594 10.6106 9.16096C10.5435 9.30186 10.5441 9.34166 10.3932 9.34106C10.3244 9.34122 10.1079 9.19668 10.0483 9.16096L6.61682 6.99646L6.61682 6.99646Z" id="Path#14" fill="#EFEFEF" fill-rule="evenodd" stroke="#FFFFFF" stroke-width="0.2" />
      <g id="Path#15" transform="translate(8.276855 9.606598)">
        <path d="M2.79041 0L10.0646 0C10.1764 0.439762 10.5057 0.783226 10.9273 0.899803L10.9273 4.616C10.5057 4.73258 10.1764 5.07605 10.0646 5.5158L0.862724 5.5158C0.750954 5.07605 0.421638 4.73258 0 4.616L0 0.899803C0.421638 0.783226 0.750954 0.439766 0.862724 0L0.99411 0L1.47736 0.286961C1.90202 0.538963 2.43864 0.438915 2.75328 0.0490723C2.76618 0.0330124 2.77856 0.016655 2.79041 0L2.79041 0Z" id="path-9" fill="#EFEFEF" stroke="none" />
        <path d="M2.79041 0L10.0646 0C10.1764 0.439762 10.5057 0.783226 10.9273 0.899803L10.9273 4.616C10.5057 4.73258 10.1764 5.07605 10.0646 5.5158L0.862724 5.5158C0.750954 5.07605 0.421638 4.73258 0 4.616L0 0.899803C0.421638 0.783226 0.750954 0.439766 0.862724 0L0.99411 0L1.47736 0.286961C1.90202 0.538963 2.43864 0.438915 2.75328 0.0490723C2.76618 0.0330124 2.77856 0.016655 2.79041 0L2.79041 0Z" id="path-9" fill="none" stroke="#232A37" stroke-width="0.2" />
        <path d="M9.98923 0.10051C10.0541 0.306786 10.1643 0.490852 10.3076 0.640305C10.4515 0.790379 10.6287 0.905567 10.8273 0.973518L10.8273 0.973518L10.8273 4.54229C10.6287 4.61024 10.4515 4.72543 10.3076 4.8755C10.1642 5.02508 10.0539 5.20932 9.98907 5.41581L9.98907 5.41581L0.938225 5.41581C0.87336 5.20932 0.763138 5.02508 0.61972 4.8755C0.47583 4.72543 0.298538 4.61024 0.0999756 4.54229L0.0999756 4.54229L0.0999756 0.973518C0.298546 0.905567 0.47583 0.790379 0.61972 0.640305C0.753937 0.50032 0.859085 0.329971 0.925186 0.139442L0.925186 0.139442L1.4263 0.372955C1.66032 0.511829 1.92519 0.553566 2.17488 0.507011C2.40933 0.463303 2.63057 0.341667 2.80002 0.148758L2.80002 0.148758L9.98923 0.10051Z" id="Shape" fill="none" fill-rule="evenodd" stroke="#FFFFFF" stroke-width="0.2" />
      </g>
      <path d="M9.7153 7.19014L8.05872 5.82983C7.98853 5.77248 7.94778 5.68444 7.94837 5.59144C7.94837 5.58089 7.94893 5.57035 7.95006 5.55986C7.95038 5.55717 7.95054 5.55499 7.95078 5.5523C7.95126 5.54956 7.9517 5.54683 7.9521 5.54407C7.95733 5.50874 7.96864 5.47468 7.98547 5.44353C8.02491 5.37015 8.09175 5.31709 8.17007 5.29698C8.24841 5.27687 8.33122 5.2915 8.39883 5.33741L8.66176 5.51619C8.66215 5.51646 8.6625 5.51679 8.6629 5.51706L9.59235 6.14954L9.7153 7.19014L9.7153 7.19014Z" id="Path#16" fill="#EFEFEF" fill-rule="evenodd" stroke="#232A37" stroke-width="0.2" />
      <path d="M20.4347 15.4432C20.4341 15.9746 20.0212 16.4051 19.5118 16.4057L7.96924 16.4057C7.4598 16.4051 7.04697 15.9746 7.04639 15.4432L7.04639 9.28576C7.04686 8.97924 7.187 8.6912 7.4239 8.5098L8.5768 9.19439C8.56831 9.22404 8.56399 9.25481 8.56396 9.28576C8.56358 9.62817 8.29754 9.90565 7.96924 9.90604C7.88765 9.90604 7.80941 9.93983 7.75172 10C7.69402 10.0602 7.66162 10.1418 7.66162 10.2269L7.66162 14.5021C7.66162 14.5872 7.69402 14.6688 7.75172 14.729C7.80941 14.7892 7.88765 14.823 7.96924 14.823C8.29754 14.8233 8.56358 15.1008 8.56396 15.4432C8.56396 15.5283 8.59637 15.6099 8.65406 15.6701C8.71175 15.7303 8.78999 15.7641 8.87157 15.7641L18.6095 15.7641C18.6911 15.7641 18.7693 15.7303 18.827 15.6701C18.8847 15.6099 18.9171 15.5283 18.9171 15.4432C18.9175 15.1008 19.1835 14.8233 19.5118 14.823C19.5934 14.823 19.6716 14.7892 19.7293 14.729C19.787 14.6688 19.8194 14.5872 19.8194 14.5021L19.8194 10.2269C19.8194 10.1418 19.787 10.0602 19.7293 10C19.6716 9.93983 19.5934 9.90604 19.5118 9.90604C19.1835 9.90565 18.9175 9.62817 18.9171 9.28576C18.9171 9.20067 18.8847 9.11906 18.827 9.05889C18.7693 8.99872 18.6911 8.96492 18.6095 8.96492L11.2666 8.96492C11.2652 8.8236 11.2367 8.68401 11.1827 8.55436C11.1481 8.47163 11.1034 8.39394 11.0495 8.32326L19.5118 8.32326C20.0212 8.32386 20.4341 8.75443 20.4347 9.28576L20.4347 15.4432L20.4347 15.4432Z" id="Path#17" fill="#EFEFEF" fill-rule="evenodd" stroke="#FFFFFF" stroke-width="0.3" />
      <path d="M12.5467 11.6607C12.5467 11.7458 12.5791 11.8274 12.6368 11.8875C12.6945 11.9477 12.7727 11.9815 12.8543 11.9815L13.7591 11.9815C13.645 12.2068 13.4209 12.3479 13.1766 12.3482L12.8543 12.3482C12.7312 12.3482 12.6199 12.4248 12.5715 12.5428C12.5231 12.6609 12.5468 12.7977 12.6318 12.8906L13.9209 14.2982C13.9968 14.3811 14.1094 14.4155 14.2161 14.3883C14.3229 14.3612 14.4077 14.2768 14.4386 14.1667C14.4695 14.0567 14.4417 13.9379 14.3658 13.855L13.5268 12.9388C13.9646 12.8071 14.3022 12.4425 14.4131 11.9815L14.6268 11.9815C14.7967 11.9815 14.9344 11.8379 14.9344 11.6607C14.9344 11.4835 14.7967 11.3398 14.6268 11.3398L14.4132 11.3398C14.3824 11.2106 14.3331 11.087 14.2669 10.9732L14.6268 10.9732C14.7967 10.9732 14.9344 10.8295 14.9344 10.6523C14.9344 10.4751 14.7967 10.3315 14.6268 10.3315L12.8543 10.3315C12.6844 10.3315 12.5467 10.4751 12.5467 10.6523C12.5467 10.8295 12.6844 10.9732 12.8543 10.9732L13.1766 10.9732C13.4209 10.9734 13.645 11.1145 13.7591 11.3398L12.8543 11.3398C12.7727 11.3398 12.6945 11.3736 12.6368 11.4338C12.5791 11.494 12.5467 11.5756 12.5467 11.6607L12.5467 11.6607Z" id="Path#18" fill="#232A37" fill-rule="evenodd" stroke="none" />
    </g>
    <path d="M49.5 32C47.76 32 46.09 32.81 45 34.09C43.91 32.81 42.24 32 40.5 32C37.42 32 35 34.42 35 37.5C35 41.28 38.4 44.36 43.55 49.04L45 50.35L46.45 49.03C51.6 44.36 55 41.28 55 37.5C55 34.42 52.58 32 49.5 32L49.5 32L49.5 32Z" id="Icon#2" fill="#E2574C" fill-rule="evenodd" stroke="none" artboard="b5a87312-3bbf-404a-a2a8-c9105b98d4fe" />
    <g id="Group-7" transform="translate(131 27)" artboard="7209cf11-4485-4088-b906-409187677050">
      <path d="M0 6L0 3C0 2.17157 0.292893 1.46447 0.87868 0.87868C1.46447 0.292893 2.17157 0 3 0L19 0C19.8284 0 20.5355 0.292893 21.1213 0.87868C21.7071 1.46447 22 2.17157 22 3L22 19C22 19.8284 21.7071 20.5355 21.1213 21.1213C20.5355 21.7071 19.8284 22 19 22L3 22C2.17157 22 1.46447 21.7071 0.87868 21.1213C0.292893 20.5355 0 19.8284 0 19L0 6Z" id="Rectangle#1" fill="none" fill-rule="evenodd" stroke="#038300" stroke-width="2" />
      <path d="M5.54547 11C5.54547 7.98754 7.98755 5.54546 11 5.54546C14.0125 5.54546 16.4546 7.98754 16.4546 11C16.4546 14.0125 14.0125 16.4545 11 16.4545C7.98755 16.4545 5.54547 14.0125 5.54547 11Z" id="Oval#3" fill="#038300" fill-rule="evenodd" stroke="none" />
    </g>
    <g id="ic_thumb_up#1" transform="translate(202 25)" artboard="1095d6bb-13bc-4552-954d-c6d6926c1581">
      <path d="M0 0L10 0L10 10L0 10L0 0Z" id="Bounds#1" fill="none" fill-rule="evenodd" stroke="none" />
      <path d="M0.416687 8.75L2.08334 8.75L2.08334 3.75L0.416687 3.75L0.416687 8.75L0.416687 8.75L0.416687 8.75ZM9.58334 4.16667C9.58334 3.70834 9.20834 3.33334 8.75002 3.33334L6.12085 3.33334L6.51668 1.42917L6.52917 1.29584C6.52917 1.12501 6.45834 0.966673 6.34586 0.854172L5.90417 0.416672L3.16252 3.16251C3.00835 3.31251 2.91669 3.52084 2.91669 3.75001L2.91669 7.91667C2.91669 8.37501 3.29169 8.75001 3.75002 8.75001L7.50002 8.75001C7.84586 8.75001 8.14168 8.54167 8.26668 8.24167L9.52501 5.30417C9.56252 5.20834 9.58334 5.10834 9.58334 5.00001L9.58334 4.20417L9.57918 4.20001L9.58334 4.16667L9.58334 4.16667L9.58334 4.16667Z" id="Icon#3" fill="#727272" fill-rule="evenodd" stroke="none" />
    </g>
    <g id="Group#5" transform="translate(185 25)" artboard="96fb36ae-ee7a-4335-8bd3-9ddd0aa0575f">
      <path d="M0 6C0 2.68629 2.68629 0 6 0C9.31371 0 12 2.68629 12 6C12 9.31371 9.31371 12 6 12C2.68629 12 0 9.31371 0 6Z" id="Oval#4" fill="#E3F0E2" fill-rule="evenodd" stroke="none" />
      <path d="M8.4706 4.58824L5.29413 7.76471" id="Line-5#2" fill="none" fill-rule="evenodd" stroke="#3F763B" stroke-width="1.2" stroke-linecap="square" />
      <path d="M3.88232 6.35294L5.29999 7.8" id="Line-4#2" fill="none" fill-rule="evenodd" stroke="#3F763B" stroke-width="1.2" stroke-linecap="square" />
    </g>
    <g id="Group#6" transform="translate(22 58)" artboard="def9cbb2-8202-44dc-b8a1-45d9e7c83610">
      <path d="M0 10C0 4.47715 4.47715 0 10 0C15.5228 0 20 4.47715 20 10C20 15.5228 15.5228 20 10 20C4.47715 20 0 15.5228 0 10Z" id="Oval#5" fill="#3F763B" fill-rule="evenodd" stroke="none" />
      <path d="M13.6471 7L8.35297 12.4902M6 10.0501L8.35294 12.4902" id="Group-2" fill="none" fill-rule="evenodd" stroke="#FFFFFF" stroke-width="2" stroke-linecap="square" />
    </g>
    <path d="M5.77098 111.326L7.34258 102.163L0.685181 95.6738L9.88548 94.3369L14 86L18.1145 94.3369L27.3148 95.6738L20.6574 102.163L22.229 111.326L14 107L5.77098 111.326L5.77098 111.326Z" id="Star-Copy" fill="none" fill-rule="evenodd" stroke="#979797" stroke-width="1" artboard="8afce6c6-0b41-4e3d-8ec2-186ff53798d5" />
    <path d="M37.771 111.326L39.3426 102.163L32.6852 95.6738L41.8855 94.3369L46 86L50.1145 94.3369L59.3148 95.6738L52.6574 102.163L54.229 111.326L46 107L37.771 111.326L37.771 111.326Z" id="Star-Copy#1" fill="#FF9A00" fill-rule="evenodd" stroke="#FF9400" stroke-width="1" artboard="7f3aaacf-6c16-4c82-b69e-2ad7367d7923" />
    <path d="M9.44444 65.5556L9.44444 58.9444C9.44444 58.4231 9.02133 58 8.5 58C7.97867 58 7.55556 58.4231 7.55556 58.9444L7.55556 65.5556L0.944444 65.5556C0.423111 65.5556 0 65.9787 0 66.5C0 67.0213 0.423111 67.4444 0.944444 67.4444L7.55556 67.4444L7.55556 74.0556C7.55556 74.5769 7.97867 75 8.5 75C9.02133 75 9.44444 74.5769 9.44444 74.0556L9.44444 67.4444L16.0556 67.4444C16.5769 67.4444 17 67.0213 17 66.5C17 65.9787 16.5769 65.5556 16.0556 65.5556L9.44444 65.5556L9.44444 65.5556Z" id="Path#19" fill="#979797" fill-rule="evenodd" stroke="none" artboard="6a4a6b75-58b4-405e-ad85-729122f7db52" />
    <path d="M307.293 18.2929C306.902 18.6834 306.902 19.3166 307.293 19.7071C307.683 20.0976 308.317 20.0976 308.707 19.7071L317.707 10.7071C318.098 10.3166 318.098 9.68342 317.707 9.29289L308.707 0.292893C308.317 -0.0976311 307.683 -0.0976311 307.293 0.292893C306.902 0.683418 306.902 1.31658 307.293 1.70711L315.586 10L307.293 18.2929L307.293 18.2929Z" id="path-10" fill="#727272" stroke="#727272" stroke-width="1" artboard="9938f266-cfbf-46ee-9526-7e94875b7206" />
    <g id="Group-34" transform="matrix(-4.371139E-08 1 -1 -4.371139E-08 232.59998 21.99997)" artboard="12dd4618-faae-4748-abb4-ce2aeac77a0c">
      <g id="Symbols">
        <g id="Offers-PDP">
          <g id="Group-34">
            <path d="M0 0L16 0L16 16L0 16L0 0Z" id="Rectangle" fill="none" fill-rule="evenodd" stroke="none" />
            <path d="M9.071 8L5.25 11.821C4.836 12.235 4.836 12.907 5.25 13.321L5.25 13.321C5.664 13.735 6.336 13.735 6.75 13.321L11.364 8.707C11.755 8.316 11.755 7.683 11.364 7.293L6.75 2.679C6.336 2.265 5.664 2.265 5.25 2.679L5.25 2.679C4.836 3.093 4.836 3.765 5.25 4.179L9.071 8L9.071 8Z" id="iconsactionarrow-right-copy-13" fill="#979797" fill-rule="evenodd" stroke="none" />
          </g>
        </g>
      </g>
    </g>
    <g id="Group-6" transform="translate(89.99994 53.99997)" artboard="02733968-b24b-438d-9984-1c91423ebb1a">
      <g id="Symbols">
        <g id="Bestseller-PDP">
          <g id="Group-6">
            <path d="M12 0C5.37258 -2.89694e-07 2.89694e-07 5.37258 0 12C-2.89694e-07 18.6274 5.37258 24 12 24C18.6274 24 24 18.6274 24 12C24 5.37258 18.6274 2.89694e-07 12 0Z" id="Oval" fill="#F1F3F6" fill-rule="evenodd" stroke="none" />
            <path d="M10.2896 15.4208L13.8462 11.8643M10.2896 8.30769L13.8462 11.8643" id="Group-4" fill="none" fill-rule="evenodd" stroke="#2F73C2" stroke-width="2" stroke-linecap="square" />
          </g>
        </g>
      </g>
    </g>
    <g id="Close-icon_-Web-(2)" transform="translate(267 0)" artboard="351751fe-4db6-4e64-85b4-1fb9b8c4a22f">
      <g id="Product-Details-page">
        <g id="PDP,-7-days-replacement-pop-up-Web">
          <g id="Group-2">
            <g id="Group">
              <path d="M0 18C0 8.05887 8.05887 0 18 0C27.9411 0 36 8.05887 36 18C36 27.9411 27.9411 36 18 36C8.05887 36 0 27.9411 0 18Z" id="Oval" fill="#F1F3F6" fill-rule="evenodd" stroke="none" />
              <path d="M24.3 11.7L11.7 24.3M11.7 11.7L24.3 24.3" id="Group-5" fill="none" fill-rule="evenodd" stroke="#2F73C2" stroke-width="3" stroke-linecap="square" />
            </g>
          </g>
        </g>
      </g>
    </g>
    <g id="Group-41" transform="translate(66 56)" artboard="77dfcefb-11a8-4ec7-8d39-380d9af51fc5">
      <g id="Symbols">
        <g id="Group-41">
          <path d="M0 0L20 0L20 20L0 20L0 0Z" id="Rectangle" fill="none" fill-rule="evenodd" stroke="none" />
          <path d="M6.46667 13.1111L3.84074 13.1111C3.73028 13.1111 3.64074 13.2007 3.64074 13.3111C3.64074 13.3665 3.66375 13.4195 3.70427 13.4573L7.99687 17.4637C8.07762 17.5391 8.20418 17.5347 8.27954 17.454C8.31411 17.417 8.33333 17.3682 8.33333 17.3175L8.33333 2.42222C8.33333 2.31177 8.24379 2.22222 8.13333 2.22222L6.86667 2.22222C6.75621 2.22222 6.66667 2.31177 6.66667 2.42222L6.66667 12.9111C6.66667 13.0216 6.57712 13.1111 6.46667 13.1111L6.46667 13.1111ZM11.6667 4.55556L11.6667 17.5778C11.6667 17.6882 11.7562 17.7778 11.8667 17.7778L13.1333 17.7778C13.2438 17.7778 13.3333 17.6882 13.3333 17.5778L13.3333 7.08889C13.3333 6.97843 13.4229 6.88889 13.5333 6.88889L16.1593 6.88889C16.2697 6.88889 16.3593 6.79935 16.3593 6.68889C16.3593 6.63345 16.3363 6.5805 16.2957 6.54268L12.0031 2.53625C11.9224 2.46089 11.7958 2.46525 11.7205 2.546C11.6859 2.58304 11.6667 2.63181 11.6667 2.68247L11.6667 4.55556L11.6667 4.55556Z" id="9055020_bx_sort_icon" fill="#727272" fill-rule="evenodd" stroke="none" />
        </g>
      </g>
    </g>
    <g id="Group-43" transform="translate(133.39648 55.62497)" artboard="bb180974-22fa-4686-a2da-1f8e5730985e">
      <g id="Symbols">
        <g id="Sort-&amp;-Filter-review-Mobile">
          <g id="Group-43">
            <path d="M0 0L20 0L20 20L0 20L0 0Z" id="Rectangle-Copy-26" fill="none" fill-rule="evenodd" stroke="none" />
            <path d="M3.77778 5.714L3.84089 5.714C4.04045 6.55415 4.74647 7.14222 5.55556 7.14222C6.36464 7.14222 7.07066 6.55415 7.27022 5.714L16.2222 5.714C16.4677 5.714 16.6667 5.50079 16.6667 5.23778C16.6667 4.97477 16.4677 4.76156 16.2222 4.76156L7.27022 4.76156C7.07066 3.9214 6.36464 3.33333 5.55556 3.33333C4.74647 3.33333 4.04045 3.9214 3.84089 4.76156L3.77778 4.76156C3.53232 4.76156 3.33333 4.97477 3.33333 5.23778C3.33333 5.50079 3.53232 5.714 3.77778 5.714L3.77778 5.714ZM5.55556 4.28533C6.04648 4.28533 6.44444 4.71176 6.44444 5.23778C6.44444 5.7638 6.04648 6.19022 5.55556 6.19022C5.06464 6.19022 4.66667 5.7638 4.66667 5.23778C4.66667 4.71176 5.06464 4.28533 5.55556 4.28533L5.55556 4.28533ZM16.2222 9.52378L16.1591 9.52378C15.9595 8.68363 15.2535 8.09556 14.4444 8.09556C13.6354 8.09556 12.9293 8.68363 12.7298 9.52378L3.77778 9.52378C3.53232 9.52378 3.33333 9.73699 3.33333 10C3.33333 10.263 3.53232 10.4762 3.77778 10.4762L12.7298 10.4762C12.9293 11.3164 13.6354 11.9044 14.4444 11.9044C15.2535 11.9044 15.9595 11.3164 16.1591 10.4762L16.2222 10.4762C16.4677 10.4762 16.6667 10.263 16.6667 10C16.6667 9.73699 16.4677 9.52378 16.2222 9.52378L16.2222 9.52378ZM14.4444 10.9524C13.9535 10.9524 13.5556 10.526 13.5556 10C13.5556 9.47398 13.9535 9.04756 14.4444 9.04756C14.9354 9.04756 15.3333 9.47398 15.3333 10C15.3333 10.526 14.9354 10.9524 14.4444 10.9524L14.4444 10.9524ZM16.2222 14.286L11.7147 14.286C11.5151 13.4458 10.8091 12.8578 10 12.8578C9.19091 12.8578 8.4849 13.4458 8.28533 14.286L3.77778 14.286C3.53232 14.286 3.33333 14.4992 3.33333 14.7622C3.33333 15.0252 3.53232 15.2384 3.77778 15.2384L8.28533 15.2384C8.4849 16.0786 9.19091 16.6667 10 16.6667C10.8091 16.6667 11.5151 16.0786 11.7147 15.2384L16.2222 15.2384C16.4677 15.2384 16.6667 15.0252 16.6667 14.7622C16.6667 14.4992 16.4677 14.286 16.2222 14.286L16.2222 14.286ZM10 15.7147C9.50908 15.7147 9.11111 15.2882 9.11111 14.7622C9.11111 14.2362 9.50908 13.8098 10 13.8098C10.4909 13.8098 10.8889 14.2362 10.8889 14.7622C10.8889 15.2882 10.4909 15.7147 10 15.7147L10 15.7147Z" id="Filter" fill="#727272" fill-rule="evenodd" stroke="#727272" stroke-width="0.2" />
          </g>
        </g>
      </g>
    </g>
    <g id="ic_favorite_border" transform="translate(30.700012 -3.0517578E-05)" artboard="9efa85cd-5037-4d5f-beaf-a72085372eed">
      <g id="Product-Details-page">
        <g id="PDP,-Both-Variant-selected,-Closed-Mobile">
          <g id="Product-Title,-Image,-Badges,-Rating-PDP">
            <g id="PDP-Product-title-&amp;-Image-Mobile">
              <g id="Group-5">
                <g id="ic_favorite_border">
                  <path d="M0 0L28 0L28 28L0 28L0 0Z" id="Bounds" fill="none" fill-rule="evenodd" stroke="none" />
                  <path d="M19.25 3.5C17.22 3.5 15.2717 4.445 14 5.93833C12.7283 4.445 10.78 3.5 8.75 3.5C5.15667 3.5 2.33333 6.32333 2.33333 9.91667C2.33333 14.3267 6.3 17.92 12.3083 23.38L14 24.9083L15.6917 23.3683C21.7 17.92 25.6667 14.3267 25.6667 9.91667C25.6667 6.32333 22.8433 3.5 19.25 3.5L19.25 3.5L19.25 3.5ZM14.1167 21.6417L14 21.7583L13.8833 21.6417C8.33 16.6133 4.66667 13.2883 4.66667 9.91667C4.66667 7.58333 6.41667 5.83333 8.75 5.83333C10.5467 5.83333 12.2967 6.98833 12.915 8.58667L15.0967 8.58667C15.7033 6.98833 17.4533 5.83333 19.25 5.83333C21.5833 5.83333 23.3333 7.58333 23.3333 9.91667C23.3333 13.2883 19.67 16.6133 14.1167 21.6417L14.1167 21.6417L14.1167 21.6417Z" id="Icon" fill="#727272" fill-rule="evenodd" stroke="none" />
                </g>
              </g>
            </g>
          </g>
        </g>
      </g>
    </g>
    <g id="Group-2" transform="translate(0 -3.0517578E-05)" artboard="6be085dc-e002-43fd-800a-fc2566c8cfee">
      <path d="M0 0L28 0L28 28L0 28L0 0Z" id="Background" fill="#FFFFFF" fill-opacity="0" fill-rule="evenodd" stroke="none" />
      <g clip-path="url(#mask_2)">
        <g id="Product-Details-page">
          <g id="PDP,-Both-Variant-selected,-Closed-Mobile">
            <g id="Product-Title,-Image,-Badges,-Rating-PDP">
              <g id="PDP-Product-title-&amp;-Image-Mobile">
                <g id="Group">
                  <path d="M0 0L28 0L28 27.0345L0 27.0345L0 0Z" id="Rectangle" fill="none" fill-rule="evenodd" stroke="none" />
                  <path d="M25.2 13.6074L16.4889 5.4069L16.4889 10.0929C7.77778 11.2644 4.04444 17.1218 2.8 22.9793C5.91111 18.8791 10.2667 17.0047 16.4889 17.0047L16.4889 21.8078L25.2 13.6074L25.2 13.6074Z" id="Path" fill="none" fill-rule="evenodd" stroke="#727272" stroke-width="2" />
                </g>
              </g>
            </g>
          </g>
        </g>
      </g>
    </g>
    <g id="Group-9" transform="translate(65.79999 82.74997)" artboard="d4daa0c8-da55-4a54-b47e-36ee0cf8ee5c">
      <g id="Product-Details-page">
        <g id="PDP,-Share-pop-up-Web">
          <g id="Group">
            <g id="Group-9">
              <path d="M0 20C0 8.9543 8.9543 0 20 0C31.0457 0 40 8.9543 40 20C40 31.0457 31.0457 40 20 40C8.9543 40 0 31.0457 0 20Z" id="Oval" fill="#F4F4F4" fill-rule="evenodd" stroke="none" />
              <path d="M23.1906 13.32L25 13.32L25 10.14C24.1239 10.0454 23.2437 9.99865 22.3628 10C19.7449 10 17.9548 11.66 17.9548 14.7L17.9548 17.32L15 17.32L15 20.88L17.9548 20.88L17.9548 30L21.4966 30L21.4966 20.88L24.4418 20.88L24.8845 17.32L21.4966 17.32L21.4966 15.05C21.4966 14 21.7661 13.32 23.1906 13.32L23.1906 13.32Z" id="facebook" fill="#727272" fill-rule="evenodd" stroke="none" />
            </g>
          </g>
        </g>
      </g>
    </g>
    <g id="Group-13" transform="translate(110.79999 82.74997)" artboard="db1d8956-cc4a-4eec-bfef-c7181c6daa05">
      <g id="Product-Details-page">
        <g id="PDP,-Share-pop-up-Web">
          <g id="Group">
            <g id="Group-13">
              <path d="M0 20C0 8.9543 8.9543 0 20 0C31.0457 0 40 8.9543 40 20C40 31.0457 31.0457 40 20 40C8.9543 40 0 31.0457 0 20Z" id="Oval-Copy-2" fill="#F4F4F4" fill-rule="evenodd" stroke="none" />
              <path d="M27.3 14L13.7 14C12.765 14 12.0085 14.7312 12.0085 15.625L12 25.375C12 26.2687 12.765 27 13.7 27L27.3 27C28.235 27 29 26.2687 29 25.375L29 15.625C29 14.7312 28.235 14 27.3 14L27.3 14ZM26.96 17.4531L20.9505 21.0444C20.6785 21.2069 20.3215 21.2069 20.0495 21.0444L14.04 17.4531C13.8275 17.3231 13.7 17.1038 13.7 16.8681C13.7 16.3237 14.3205 15.9987 14.805 16.2831L20.5 19.6875L26.195 16.2831C26.6795 15.9987 27.3 16.3237 27.3 16.8681C27.3 17.1038 27.1725 17.3231 26.96 17.4531L26.96 17.4531Z" id="email" fill="#727272" fill-rule="evenodd" stroke="none" />
            </g>
          </g>
        </g>
      </g>
    </g>
    <g id="Group-12" transform="translate(156.2215 82.74997)" artboard="2c42f39d-5a37-495b-8606-af4e94a988a4">
      <g id="Product-Details-page">
        <g id="PDP,-Share-pop-up-Web">
          <g id="Group">
            <g id="Group-12">
              <path d="M0 20C0 8.9543 8.9543 0 20 0C31.0457 0 40 8.9543 40 20C40 31.0457 31.0457 40 20 40C8.9543 40 0 31.0457 0 20Z" id="Oval-Copy" fill="#F4F4F4" fill-rule="evenodd" stroke="none" />
              <path d="M29 14.7972C28.3235 15.0977 27.6081 15.2963 26.876 15.3869C27.6484 14.9145 28.2271 14.1715 28.505 13.2955C27.7792 13.7378 26.9847 14.0494 26.156 14.2168C25.0168 12.9521 23.1866 12.6352 21.7044 13.4458C20.2222 14.2565 19.4623 15.99 19.856 17.6625C16.8881 17.5088 14.1236 16.0721 12.251 13.7101C11.9262 14.2907 11.7556 14.9481 11.756 15.6172C11.7537 16.8791 12.3686 18.0584 13.394 18.7588C12.8072 18.7425 12.2329 18.5813 11.72 18.2889L11.72 18.335C11.7291 20.1297 12.9705 21.67 14.69 22.0202C14.3689 22.1202 14.0356 22.173 13.7 22.1768C13.4677 22.174 13.236 22.1525 13.007 22.1123C13.4939 23.6473 14.8777 24.6978 16.454 24.7288C15.1555 25.7747 13.5523 26.3456 11.9 26.3503C11.5992 26.3513 11.2986 26.3328 11 26.295C12.687 27.41 14.6529 28.0019 16.661 27.9994C19.4602 28.0292 22.1537 26.9059 24.1357 24.8822C26.1177 22.8585 27.2219 20.1042 27.2 17.2387C27.2 17.082 27.2 16.9162 27.2 16.7504C27.9062 16.2112 28.5153 15.5503 29 14.7972L29 14.7972Z" id="twitter" fill="#727272" fill-rule="evenodd" stroke="none" />
            </g>
          </g>
        </g>
      </g>
    </g>
    <g id="Group-34-Copy-2" transform="translate(154.59998 59.24997)" artboard="2f80af2d-e710-4c47-be52-d94ff80a28df">
      <path d="M0 3.49691e-07L8 3.49691e-07L8 8L0 8L0 3.49691e-07Z" id="Background" fill="#FFFFFF" fill-opacity="0" fill-rule="evenodd" stroke="none" />
      <g clip-path="url(#mask_3)">
        <g id="Product-Details-page">
          <g id="PDP,-Add-to-Cart-clicked,-logged-in-state--Mobile">
            <g id="Group-34-Copy-2">
              <path d="M0 3.49691e-07L3.49691e-07 8L8 8L8 0L0 3.49691e-07Z" id="Rectangle" fill="none" fill-rule="evenodd" stroke="none" />
              <path d="M4.5355 4L2.625 2.0895C2.418 1.8825 2.418 1.5465 2.625 1.3395L2.625 1.3395C2.832 1.1325 3.168 1.1325 3.375 1.3395L5.682 3.6465C5.8775 3.842 5.8775 4.1585 5.682 4.3535L3.375 6.6605C3.168 6.8675 2.832 6.8675 2.625 6.6605L2.625 6.6605C2.418 6.4535 2.418 6.1175 2.625 5.9105L4.5355 4L4.5355 4Z" id="iconsactionarrow-right-copy-13" fill="#979797" fill-rule="evenodd" stroke="none" />
            </g>
          </g>
        </g>
      </g>
    </g>
    <path d="M10.543 149.8L0 149.8L0 119.8L10.543 119.8C11.0953 119.8 11.543 120.248 11.543 120.8C11.543 120.923 11.5203 121.045 11.4761 121.16L6.21976 134.8L6.21976 134.8L11.4761 148.44C11.6747 148.956 11.4179 149.535 10.9026 149.733C10.7878 149.777 10.6659 149.8 10.543 149.8L10.543 149.8Z" id="Rectangle-1-Copy" fill="#277833" fill-rule="evenodd" stroke="none" artboard="47eaff8b-4aad-4832-818f-582e3b2bb5b4" />
    <g id="arrow" transform="translate(167.22968 44.75)" artboard="d90ffbf9-710b-4b06-94bc-0ea08d24dd26">
      <g id="Symbols">
        <g id="Rating-&amp;-Reviews,-PDP-Desktop">
          <g id="Group-6">
            <path d="M16 0C7.16344 -3.86258e-07 3.86258e-07 7.16344 0 16C-3.86258e-07 24.8366 7.16344 32 16 32C24.8366 32 32 24.8366 32 16C32 7.16344 24.8366 3.86258e-07 16 0Z" id="Oval" fill="#ECF2FC" fill-rule="evenodd" stroke="none" />
            <path d="M13.7195 20.5611L18.4615 15.819M13.7195 11.0769L18.4615 15.819" id="Group-4" fill="none" fill-rule="evenodd" stroke="#2F73C2" stroke-width="2" stroke-linecap="square" />
          </g>
        </g>
      </g>
    </g>
  </g>
</svg>