<?xml version="1.0" encoding="utf-8"?>
<svg width="361px" height="295px" viewBox="0 0 361 295" version="1.1" xmlns:xlink="http://www.w3.org/1999/xlink" xmlns="http://www.w3.org/2000/svg">
  <defs>
    <linearGradient gradientUnits="userSpaceOnUse" x1="9.810092" y1="1.5110755" x2="-5.7016897" y2="17.601809" id="gradient_1">
      <stop offset="0%" stop-color="#E82B36" />
      <stop offset="100%" stop-color="#B4005A" />
    </linearGradient>
    <linearGradient gradientUnits="userSpaceOnUse" x1="5.6010094" y1="2.9521232" x2="-10.903944" y2="2.9521232" id="gradient_2">
      <stop offset="0%" stop-color="#FFD700" />
      <stop offset="7.4999995%" stop-color="#FECE00" />
      <stop offset="48%" stop-color="#FCA704" />
      <stop offset="80.3%" stop-color="#FA8E07" />
      <stop offset="100%" stop-color="#FA8608" />
    </linearGradient>
    <linearGradient gradientUnits="userSpaceOnUse" x1="-5.7697244" y1="-8.797831" x2="6.896357" y2="4.3382816" id="gradient_3">
      <stop offset="0%" stop-color="#2F8E5B" />
      <stop offset="39%" stop-color="#4EA157" />
      <stop offset="76.8%" stop-color="#67B054" />
      <stop offset="100%" stop-color="#70B653" />
    </linearGradient>
    <path d="M0 0L26 0L26 26L0 26L0 0Z" id="path_1" />
    <path d="M0 0L32 0L32 21L0 21L0 0Z" id="path_2" />
    <clipPath id="mask_1">
      <use xlink:href="#path_1" />
    </clipPath>
    <clipPath id="mask_2">
      <use xlink:href="#path_2" />
    </clipPath>
  </defs>
  <g id="sprite">
    <path d="M0 0L361 0L361 295L0 295L0 0Z" id="sprite" fill="none" fill-rule="evenodd" stroke="none" />
    <g id="Camera-(1)" transform="translate(246 175)">
      <path d="M0 0L26 0L26 26L0 26L0 0Z" id="Background" fill="#FFFFFF" fill-opacity="0" fill-rule="evenodd" stroke="none" />
      <g clip-path="url(#mask_1)">
        <path d="M9.1 0.867188L6.721 3.60322L2.6 3.60322C1.17 3.60322 0 4.83443 0 6.33925L0 22.7554C0 24.2603 1.17 25.4915 2.6 25.4915L23.4 25.4915C24.83 25.4915 26 24.2603 26 22.7554L26 6.33925C26 4.83443 24.83 3.60322 23.4 3.60322L19.279 3.60322L16.9 0.867188L9.1 0.867188L9.1 0.867188L9.1 0.867188ZM13 7.70727C16.588 7.70727 19.5 10.7716 19.5 14.5473C19.5 18.3231 16.588 21.3874 13 21.3874C9.412 21.3874 6.5 18.3231 6.5 14.5473C6.5 10.7716 9.412 7.70727 13 7.70727L13 7.70727ZM13 10.1697C10.7025 10.1697 8.84 12.1296 8.84 14.5473C8.84 16.9651 10.7025 18.925 13 18.925C15.2975 18.925 17.16 16.9651 17.16 14.5473C17.16 12.1296 15.2975 10.1697 13 10.1697L13 10.1697Z" id="Accounts-page" fill="#979797" fill-rule="evenodd" stroke="none" />
      </g>
    </g>
    <path d="M181.586 260.632L185.407 256.81C185.821 256.397 185.821 255.725 185.407 255.311L185.407 255.311C184.993 254.896 184.321 254.896 183.907 255.311L179.293 259.924C178.902 260.315 178.902 260.948 179.293 261.339L183.907 265.953C184.321 266.366 184.993 266.366 185.407 265.953L185.407 265.953C185.821 265.539 185.821 264.867 185.407 264.453L181.586 260.632L181.586 260.632Z" id="Product-Listing-Page" fill="#373737" stroke="none" />
    <g id="Home-Page-2" transform="matrix(-1 -8.742278E-08 8.742278E-08 -1 152.99997 277.99997)">
      <g id="Homepage-final-Web">
        <g id="Group-11-Copy">
          <path d="M19.574 28.4941C20.142 29.0709 20.142 30.006 19.574 30.5828C19.0059 31.1596 18.085 31.1596 17.5169 30.5828L4.42603 17.2905C3.85799 16.7137 3.85799 15.7786 4.42603 15.2018L17.5169 1.9095C18.085 1.33273 19.0059 1.33273 19.574 1.9095C20.142 2.48628 20.142 3.42141 19.574 3.99819L7.51158 16.2462L19.574 28.4941L19.574 28.4941Z" id="path-1" fill="#000000" stroke="none" />
          <path d="M17.1314 29.2686C17.7562 29.8935 17.7562 30.9065 17.1314 31.5314C16.5065 32.1562 15.4935 32.1562 14.8686 31.5314L0.46863 17.1314C-0.15621 16.5065 -0.15621 15.4935 0.46863 14.8686L14.8686 0.468629C15.4935 -0.15621 16.5065 -0.15621 17.1314 0.468629C17.7562 1.09347 17.7562 2.10653 17.1314 2.73137L3.86274 16L17.1314 29.2686L17.1314 29.2686Z" id="path-3" fill="#FFFFFF" stroke="none" />
        </g>
      </g>
    </g>
    <g id="Group-4" transform="translate(87.25 251)">
      <path d="M13.1551 10.4553C13.1742 8.9192 13.9649 7.50027 15.2498 6.69595C14.4357 5.51104 13.1207 4.78659 11.7016 4.74121C10.209 4.58168 8.76091 5.65261 8.00217 5.65261C7.22663 5.65261 6.05112 4.75777 4.7927 4.78317C3.13328 4.83807 1.62383 5.77583 0.816353 7.2535C-0.902737 10.2858 0.379536 14.7412 2.026 17.1939C2.85032 18.394 3.81446 19.7332 5.07397 19.6863C6.30693 19.6344 6.76651 18.8864 8.25581 18.8864C9.73102 18.8864 10.1635 19.6863 11.449 19.6559C12.7719 19.6339 13.6049 18.4498 14.3994 17.2386C14.9927 16.384 15.4485 15.4387 15.75 14.4382C14.1785 13.7615 13.1567 12.1931 13.1551 10.4553" id="Path-Copy" fill="#9B9B9B" fill-rule="evenodd" stroke="none" />
      <path d="M10.7964 3.28567C11.5276 2.36911 11.8875 1.1901 11.7994 0C10.6842 0.122167 9.654 0.67948 8.9143 1.56078C8.18261 2.43048 7.81185 3.56886 7.88382 4.7248C9.01469 4.73672 10.0883 4.20568 10.7969 3.28395" id="Path-Copy-2" fill="#9B9B9B" fill-rule="evenodd" stroke="none" />
    </g>
    <g id="video-call-icon-(1)" transform="translate(278 179)">
      <path d="M0 0L32 0L32 21L0 21L0 0Z" id="Background" fill="#FFFFFF" fill-opacity="0" fill-rule="evenodd" stroke="none" />
      <g clip-path="url(#mask_2)">
        <path d="M19.4904 0C21.1323 0 22.4782 1.3459 22.4782 2.98778L22.4782 6.17103L32 0.446771L32 18.5131L22.4782 13.3752L22.4782 17.519C22.4782 19.1609 21.1323 20.5068 19.4904 20.5068L2.99337 20.5068C1.3459 20.5068 0 19.1609 0 17.519L0 2.98778C0 1.3459 1.3459 0 2.99337 0L19.4904 0L19.4904 0Z" id="Accounts-page" fill="#979797" fill-rule="evenodd" stroke="none" />
      </g>
    </g>
    <g id="Warning-(1)" transform="translate(23 248)">
      <g id="Accounts-page">
        <g id="My-Account,-Return-window-closed-Mobile">
          <g id="ic_error">
            <path d="M0 0L24 0L24 24L0 24L0 0Z" id="Bounds" fill="none" fill-rule="evenodd" stroke="none" />
            <path d="M12 2C6.48 2 2 6.48 2 12C2 17.52 6.48 22 12 22C17.52 22 22 17.52 22 12C22 6.48 17.52 2 12 2L12 2L12 2ZM13 17L11 17L11 15L13 15L13 17L13 17L13 17ZM13 13L11 13L11 7L13 7L13 13L13 13L13 13Z" id="Icon" fill="#8C0000" fill-rule="evenodd" stroke="none" />
          </g>
        </g>
      </g>
    </g>
    <g id="twitter" transform="translate(230.04999 33)">
      <path d="M0 7.9C0 3.53695 3.53695 0 7.9 0C12.263 0 15.8 3.53695 15.8 7.9C15.8 12.263 12.263 15.8 7.9 15.8C3.53695 15.8 0 12.263 0 7.9Z" id="Oval" fill="#55ACEE" fill-rule="evenodd" stroke="none" />
      <path d="M12.8 5.7C12.5 5.90001 12.1 6 11.7 6C12.1 5.8 12.4 5.40001 12.5 4.90001C12.1 5.1 11.7 5.3 11.3 5.40001C11 5 10.5 4.8 9.99998 4.8C8.99998 4.8 8.09999 5.7 8.09999 6.7C8.09999 6.8 8.09999 7 8.09999 7.1C6.49998 7 5.09999 6.3 4.19998 5.1C3.99998 5.40001 3.89998 5.8 3.89998 6.1C3.89998 6.8 4.19998 7.3 4.69998 7.7C4.39998 7.7 4.09999 7.6 3.79999 7.5L3.79999 7.5C3.79999 8.40001 4.49998 9.2 5.29999 9.40001C5.09999 9.40001 4.99998 9.5 4.79999 9.5C4.69998 9.5 4.59999 9.5 4.39998 9.5C4.59999 10.3 5.29999 10.8 6.19998 10.8C5.59999 11.3 4.69998 11.6 3.79999 11.6C3.59999 11.6 3.49998 11.6 3.29999 11.6C4.09999 12.1 5.09999 12.5 6.19998 12.5C9.69998 12.5 11.6 9.6 11.6 7.1C11.6 7 11.6 6.90001 11.6 6.90001C12.2 6.40001 12.6 6.1 12.8 5.7L12.8 5.7L12.8 5.7Z" id="Path" fill="#F1F2F2" fill-rule="evenodd" stroke="none" />
    </g>
    <path d="M173.05 1C169.15 1 166.05 4.1 166.05 8C166.05 11.9 169.15 15 173.05 15C174.75 15 176.35 14.3 177.65 13.3L178.05 13.7L178.05 15L184.05 21L186.05 19L180.05 13L178.75 13L178.35 12.6C179.35 11.3 180.05 9.7 180.05 8C180.05 4.1 176.95 1 173.05 1L173.05 1ZM173.05 3C175.85 3 178.05 5.2 178.05 8C178.05 10.8 175.85 13 173.05 13C170.25 13 168.05 10.8 168.05 8C168.05 5.2 170.25 3 173.05 3L173.05 3Z" id="Group" fill="#898989" fill-rule="evenodd" stroke="none" />
    <g id="iconsSearchDark" transform="translate(23.050003 0)">
      <path d="M0 0L21 0L21 20L0 20L0 0Z" id="Rectangle" fill="#000000" fill-opacity="0" fill-rule="evenodd" stroke="none" />
      <path d="M19.5 20C19.2 20 19 19.9 18.8 19.7L13.4 14.3C12 15.4 10.3 16 8.5 16C4.1 16 0.5 12.4 0.5 8C0.5 3.6 4.1 0 8.5 0C12.9 0 16.5 3.6 16.5 8C16.5 9.8 15.9 11.5 14.8 12.9L20.2 18.3C20.5 18.6 20.6 19 20.4 19.4C20.2 19.8 19.9 20 19.5 20L19.5 20ZM8.5 2C5.2 2 2.5 4.7 2.5 8C2.5 11.3 5.2 14 8.5 14C11.8 14 14.5 11.3 14.5 8C14.5 4.7 11.8 2 8.5 2L8.5 2Z" id="Shape_00000103953996989636571220000004546621672110050206_" fill="#000000" fill-rule="evenodd" stroke="none" />
    </g>
    <path d="M166.525 3.77499L163.625 0.874994C163.325 0.574994 162.825 0.574994 162.525 0.874994L162.525 0.874994C162.225 1.17499 162.225 1.67499 162.525 1.97499L166.025 5.47499C166.325 5.77499 166.825 5.77499 167.125 5.47499L170.625 1.97499C170.925 1.67499 170.925 1.17499 170.625 0.874994L170.625 0.874994C170.325 0.574994 169.825 0.574994 169.525 0.874994L166.525 3.77499L166.525 3.77499Z" id="icons8-expand_arrow" fill="none" fill-rule="evenodd" stroke="none" />
    <path d="M185.55 0.5L176.55 9.5M176.55 0.5L185.55 9.5" id="Group_00000132076357529796010840000013150901088939252867_" fill="none" fill-rule="evenodd" stroke="none" />
    <path d="M55.2 63.2L49.8 63.2L49.8 57.8C49.8 57.4 49.5 57 49 57C48.5 57 48.2 57.3 48.2 57.8L48.2 63.2L42.8 63.2C42.4 63.2 42 63.5 42 64C42 64.4 42.3 64.8 42.8 64.8L48.2 64.8L48.2 70.2C48.2 70.6 48.5 71 49 71C49.5 71 49.8 70.7 49.8 70.2L49.8 64.8L55.2 64.8C55.6 64.8 56 64.5 56 64C56 63.6 55.8 63.2 55.2 63.2L55.2 63.2Z" id="Path_00000014605392694102535480000005682358346320989085_" fill="#373737" fill-rule="evenodd" stroke="none" />
    <path d="M74.2 63L68.8 63L67.2 63L61.8 63C61.4 63 61 63.3 61 63.8C61 64.2 61.3 64.6 61.8 64.6L67.2 64.6L68.8 64.6L74.2 64.6C74.6 64.6 75 64.3 75 63.8C75.1 63.3 74.8 63 74.2 63L74.2 63Z" id="Path_00000066487149551631871800000007784255154592290198_" fill="#373737" fill-rule="evenodd" stroke="none" />
    <path d="M67.325 190.025L64.425 192.925C64.125 193.225 64.125 193.725 64.425 194.025L64.425 194.025C64.725 194.325 65.225 194.325 65.525 194.025L69.025 190.525C69.325 190.225 69.325 189.725 69.025 189.425L65.525 185.925C65.225 185.625 64.725 185.625 64.425 185.925L64.425 185.925C64.125 186.225 64.125 186.725 64.425 187.025L67.325 190.025L67.325 190.025Z" id="Group_00000134228719619733653750000017228317385091282344_" fill="#898989" fill-rule="evenodd" stroke="none" />
    <path d="M6.05 86.1L2.25 82.2C1.85 81.8 1.15 81.8 0.749997 82.2L0.749997 82.2C0.349997 82.6 0.349997 83.3 0.749997 83.7L5.35 88.3C5.75 88.7 6.35 88.7 6.75 88.3L11.35 83.7C11.75 83.3 11.75 82.6 11.35 82.2L11.35 82.2C10.95 81.8 10.25 81.8 9.85 82.2L6.05 86.1L6.05 86.1Z" id="Group_00000175317692681789074920000000524876402092880820_" fill="#898989" fill-rule="evenodd" stroke="none" />
    <path d="M85.05 180C82.85 180 81.05 181.8 81.05 184C81.05 186.2 82.85 188 85.05 188C87.25 188 89.05 186.2 89.05 184C89.05 181.8 87.25 180 85.05 180L85.05 180ZM85.05 182C86.15 182 87.05 182.9 87.05 184C87.05 185.1 86.15 186 85.05 186C83.95 186 83.05 185.1 83.05 184C83.05 182.9 83.95 182 85.05 182L85.05 182ZM85.05 191C83.35 191 81.25 191.4 79.45 192.1C78.55 192.4 77.75 192.9 77.15 193.4C76.55 193.9 76.05 194.6 76.05 195.5L76.05 198L94.05 198L94.05 197L94.05 195.5C94.05 194.6 93.55 193.9 92.85 193.4C92.15 192.9 91.45 192.5 90.55 192.1C88.85 191.4 86.75 191 85.05 191L85.05 191ZM85.05 193C86.45 193 88.35 193.4 89.85 194C90.55 194.3 91.25 194.6 91.55 195C91.95 195.3 91.95 195.5 91.95 195.6L91.95 196L78.05 196L78.05 195.5C78.05 195.4 78.15 195.2 78.45 194.9C78.75 194.6 79.45 194.2 80.15 193.9C81.75 193.4 83.65 193 85.05 193L85.05 193Z" id="icons8-user" fill="#898989" fill-rule="evenodd" stroke="none" />
    <path d="M101.55 180C100.15 180 99.05 181 99.05 182.4C99.05 183.8 100.15 184.8 101.55 184.8C101.85 184.8 102.15 184.7 102.45 184.6L103.65 185.7L102.45 186.8C102.15 186.7 101.85 186.6 101.55 186.6C100.15 186.6 99.05 187.7 99.05 189C99.05 190.3 100.15 191.4 101.55 191.4C102.95 191.4 104.05 190.3 104.05 189C104.05 188.7 103.95 188.3 103.85 188.1L104.95 187.1L108.35 190.5L111.05 190.5L103.85 183.3C103.95 183 104.05 182.7 104.05 182.4C104.05 181 102.95 180 101.55 180L101.55 180ZM108.35 180.9L105.65 183.7L106.95 185L111.05 180.9L108.35 180.9L108.35 180.9ZM101.55 181.4C102.05 181.4 102.55 181.9 102.55 182.3C102.55 182.7 102.05 183.3 101.55 183.3C101.05 183.3 100.55 182.8 100.55 182.4C100.55 182 101.05 181.4 101.55 181.4L101.55 181.4ZM110.05 184.7L110.05 186.6L112.05 186.6L112.05 184.7L110.05 184.7L110.05 184.7ZM114.05 184.7L114.05 186.6L116.05 186.6L116.05 188.5L118.05 188.5L118.05 186.6C118.05 185.6 117.15 184.7 116.05 184.7L114.05 184.7L114.05 184.7L114.05 184.7ZM105.05 185.4C105.383 185.4 105.55 185.567 105.55 185.9C105.55 186.067 105.383 186.4 105.05 186.4C104.717 186.4 104.55 186.067 104.55 185.9C104.55 185.567 104.717 185.4 105.05 185.4L105.05 185.4ZM101.55 188.1C102.05 188.1 102.55 188.6 102.55 189C102.55 189.4 102.05 189.9 101.55 189.9C101.05 189.9 100.55 189.4 100.55 189C100.55 188.6 101.05 188.1 101.55 188.1L101.55 188.1ZM116.05 190.4L116.05 192.3L118.05 192.3L118.05 190.4L116.05 190.4L116.05 190.4ZM100.05 194.2L100.05 196.1C100.05 197.1 100.95 198 102.05 198L104.05 198L104.05 196.1L102.05 196.1L102.05 194.2C102.05 194.2 100.05 194.2 100.05 194.2L100.05 194.2ZM116.05 194.2L116.05 196.1L114.05 196.1L114.05 198L116.05 198C117.15 198 118.05 197.2 118.05 196.1L118.05 194.2C118.05 194.2 116.05 194.2 116.05 194.2L116.05 194.2ZM106.05 196.1L106.05 198L108.05 198L108.05 196.1L106.05 196.1L106.05 196.1ZM110.05 196.1L110.05 198L112.05 198L112.05 196.1L110.05 196.1L110.05 196.1Z" id="icons8-cutting_coupon" fill="#898989" fill-rule="evenodd" stroke="none" />
    <path d="M140.65 181C140.55 181 140.35 181 140.25 181L125.05 185L132.95 185L138.95 183.4C139.25 183.8 139.65 184 140.05 184.1L140.25 185L142.35 185L141.55 181.7C141.35 181.3 141.05 181.1 140.65 181L140.65 181ZM124.05 187C123.45 187 123.05 187.4 123.05 188L123.05 198C123.05 198.6 123.45 199 124.05 199L142.05 199C142.65 199 143.05 198.6 143.05 198L143.05 188C143.05 187.4 142.65 187 142.05 187L124.05 187L124.05 187ZM125.95 189L140.15 189C140.35 189.4 140.65 189.8 141.05 189.9L141.05 196.1C140.65 196.3 140.25 196.6 140.15 197L125.95 197C125.75 196.6 125.45 196.2 125.05 196.1L125.05 189.9C125.45 189.8 125.85 189.4 125.95 189L125.95 189ZM133.05 190C131.35 190 130.05 191.3 130.05 193C130.05 194.7 131.35 196 133.05 196C134.75 196 136.05 194.7 136.05 193C136.05 191.3 134.75 190 133.05 190L133.05 190L133.05 190ZM128.05 192C127.45 192 127.05 192.4 127.05 193C127.05 193.6 127.45 194 128.05 194C128.65 194 129.05 193.6 129.05 193C129.05 192.4 128.65 192 128.05 192L128.05 192ZM138.05 192C137.45 192 137.05 192.4 137.05 193C137.05 193.6 137.45 194 138.05 194C138.65 194 139.05 193.6 139.05 193C139.05 192.4 138.65 192 138.05 192L138.05 192Z" id="icons8-banknotes" fill="#898989" fill-rule="evenodd" stroke="none" />
    <path d="M155.05 180C151.15 180 148.05 183.1 148.05 187C148.05 191.5 154.05 198.8 154.25 199.1L155.05 200L155.85 199.1C156.05 198.8 162.05 191.5 162.05 187C162.05 183.1 158.95 180 155.05 180L155.05 180ZM155.05 182C157.85 182 160.05 184.2 160.05 187C160.05 189.7 156.95 194.4 155.05 196.8C153.15 194.4 150.05 189.7 150.05 187C150.05 184.3 152.25 182 155.05 182L155.05 182ZM155.05 184.5C153.65 184.5 152.55 185.6 152.55 187C152.55 188.4 153.65 189.5 155.05 189.5C156.45 189.5 157.55 188.4 157.55 187C157.55 185.6 156.45 184.5 155.05 184.5L155.05 184.5Z" id="icons8-marker" fill="#898989" fill-rule="evenodd" stroke="none" />
    <path d="M167.05 180L167.05 196C167.05 197.1 167.95 198 169.05 198L185.05 198L185.05 196L169.05 196L169.05 180L167.05 180L167.05 180ZM183.35 183.3L179.05 187.6L176.05 184.7L170.35 190.2L171.75 191.6L176.05 187.5L179.05 190.4L184.75 184.7L183.35 183.3L183.35 183.3Z" id="icons8-graph" fill="#898989" fill-rule="evenodd" stroke="none" />
    <path d="M198.05 180C196.95 180 196.05 180.9 196.05 182C196.05 183.1 196.95 184 198.05 184C199.15 184 200.05 183.1 200.05 182C200.05 180.9 199.15 180 198.05 180L198.05 180ZM195.85 185L191.25 187.3L190.15 190.7L192.05 191.3L192.95 188.7L194.75 187.8L192.05 200L194.05 200L195.45 193.5C195.95 194 196.75 195 197.05 195.3L197.05 200L199.05 200L199.05 194.7L197.85 192.9L198.65 189.4C198.95 189.9 199.25 190.3 199.65 190.7C200.55 191.5 201.75 192 202.95 192L202.95 190C202.15 190 201.55 189.8 200.95 189.2C200.45 188.7 200.05 188 199.85 187.1C199.55 185.5 197.85 185 197.05 185L195.85 185L195.85 185Z" id="icons8-walking" fill="#898989" fill-rule="evenodd" stroke="none" />
    <path d="M209.286 92.5C208.986 92.9 208.986 93.4 209.286 93.8C209.586 94.2 210.086 94.2 210.486 93.8L217.886 85.7C218.186 85.3 218.186 84.8 217.886 84.4L210.486 76.3C210.186 75.9 209.686 75.9 209.286 76.3C208.886 76.7 208.986 77.2 209.286 77.6L216.086 85L209.286 92.5L209.286 92.5Z" id="Icon" fill="#000000" fill-rule="evenodd" stroke="none" />
    <path d="M286.264 151.5C285.964 151.9 285.964 152.4 286.264 152.8C286.564 153.2 287.064 153.2 287.464 152.8L294.864 144.7C295.164 144.3 295.164 143.8 294.864 143.4L287.464 135.3C287.164 134.9 286.664 134.9 286.264 135.3C285.864 135.7 285.964 136.2 286.264 136.6L293.064 144L286.264 151.5L286.264 151.5Z" id="Icon-2" fill="#FFFFFF" fill-rule="evenodd" stroke="none" />
    <path d="M90.3 18.3C89.9 18.7 89.9 19.3 90.3 19.7C90.7 20.1 91.3 20.1 91.7 19.7L100.7 10.7C101.1 10.3 101.1 9.7 100.7 9.3L91.7 0.3C91.3 -0.1 90.7 -0.1 90.3 0.3C89.9 0.7 89.9 1.3 90.3 1.7L98.6 10L90.3 18.3L90.3 18.3Z" id="Path_00000143605854777278573730000011667768157747909559_" fill="#000000" fill-rule="evenodd" stroke="none" />
    <path d="M226.85 200C226.85 200.6 227.35 201 227.95 201L237.95 201C238.55 201 238.95 200.6 239.05 200L239.75 185.3L226.15 185.3L226.85 200L226.85 200ZM235.25 189C235.25 188.8 235.45 188.6 235.75 188.6L236.45 188.6C236.75 188.6 236.95 188.8 236.95 189L236.95 197.5C236.95 197.7 236.75 197.9 236.45 197.9L235.75 197.9C235.45 197.9 235.25 197.7 235.25 197.5L235.25 189L235.25 189ZM232.25 189C232.25 188.8 232.45 188.6 232.75 188.6L233.45 188.6C233.75 188.6 233.95 188.8 233.95 189L233.95 197.5C233.95 197.7 233.75 197.9 233.45 197.9L232.65 197.9C232.35 197.9 232.15 197.7 232.15 197.5L232.25 189L232.25 189L232.25 189ZM229.15 189C229.15 188.8 229.35 188.6 229.65 188.6L230.35 188.6C230.65 188.6 230.85 188.8 230.85 189L230.85 197.5C230.85 197.7 230.65 197.9 230.35 197.9L229.65 197.9C229.35 197.9 229.15 197.7 229.15 197.5L229.15 189L229.15 189ZM240.15 181.1L235.55 181.1L235.55 180.2C235.55 180.1 235.45 180 235.35 180L230.55 180C230.35 180 230.25 180.1 230.25 180.2L230.25 181.1L225.75 181.1C225.35 181.1 225.05 181.4 225.05 181.8L225.05 183.9L240.75 183.9L240.75 181.8C240.75 181.4 240.45 181.1 240.15 181.1L240.15 181.1Z" id="rubbish-bin" fill="#898989" fill-rule="evenodd" stroke="none" />
    <path d="M193.65 83.5367L188.55 78.6367C187.95 78.0367 187.95 77.1367 188.45 76.5367C188.95 75.9367 189.95 75.9367 190.55 76.4367L197.15 82.8367C198.35 83.9367 198.35 85.8367 197.25 87.0367C197.15 87.1367 197.15 87.1367 197.15 87.1367L190.55 93.5367C189.95 94.1367 189.05 94.0367 188.45 93.4367C187.85 92.8366 187.95 91.8366 188.55 91.3366L193.65 86.4367L179.65 86.4367C178.85 86.4367 178.15 85.7366 178.15 84.9367C178.15 84.1367 178.85 83.4367 179.65 83.4367L193.65 83.5367L193.65 83.5367L193.65 83.5367Z" id="Glyph" fill="#000000" fill-rule="evenodd" stroke="none" />
    <path d="M133.6 63.1L130.8 60.4C130.5 60.1 130.5 59.6 130.8 59.2C131.1 58.9 131.6 58.9 131.9 59.2L135.5 62.7C136.1 63.3 136.2 64.4 135.6 65C135.6 65 135.6 65 135.5 65.1L131.9 68.6C131.6 68.9 131.1 68.9 130.8 68.6C130.5 68.3 130.5 67.7 130.8 67.4L133.6 64.7L125.9 64.7C125.4 64.7 125.1 64.3 125.1 63.9C125.1 63.4 125.5 63.1 125.9 63.1C125.9 63.1 133.6 63.1 133.6 63.1L133.6 63.1Z" id="Path_00000114059547565363743910000001896727221153628068_" fill="#373737" fill-rule="evenodd" stroke="none" />
    <path d="M112.6 68.2L108.2 70.6L108.9 65.7L105.4 62.2L110.3 61.5L112.6 57L114.8 61.5L119.7 62.2L116.2 65.7L116.9 70.6L112.6 68.2Z" id="Star" fill="#417505" fill-rule="evenodd" stroke="none" />
    <path d="M70.15 76.1C67.45 76.1 66.05 78 66.05 78C66.05 78 64.65 76.1 61.95 76.1C59.25 76.1 57.05 78.4 57.05 81.2C57.05 85.1 61.45 88.8 62.75 90C64.15 91.3 66.05 93.1 66.05 93.1C66.05 93.1 67.95 91.3 69.35 90C70.55 88.8 75.05 85.1 75.05 81.2C75.05 78.4 72.85 76.1 70.15 76.1L70.15 76.1ZM68.55 88.2C68.35 88.3 68.25 88.5 68.15 88.6C67.45 89.2 66.65 90 66.05 90.6C65.45 90 64.65 89.3 63.95 88.6C63.85 88.5 63.65 88.4 63.55 88.2C62.25 87 58.85 83.9 58.85 81.1C58.85 79.4 60.25 78 61.95 78C63.55 78 64.55 79.2 64.55 79.2L66.05 80.7L67.45 79.1C67.45 79.1 68.45 77.9 70.05 77.9C71.75 77.9 73.25 79.4 73.25 81.1C73.25 83.9 69.85 87.1 68.55 88.2L68.55 88.2Z" id="icons8-like" fill="#898989" fill-rule="evenodd" stroke="none" />
    <path d="M79.45 76C78.05 76 77.05 77 77.05 78.2C77.05 79.4 78.05 80.4 79.45 80.4C79.75 80.4 80.05 80.3 80.35 80.2L81.45 81.3L80.25 82.5C79.95 82.4 79.75 82.3 79.45 82.3C78.05 82.3 77.05 83.3 77.05 84.5C77.05 85.7 78.05 86.7 79.45 86.7C80.85 86.7 81.85 85.7 81.85 84.5C81.85 84.2 81.75 83.9 81.65 83.6L82.65 82.6L85.85 85.8L88.45 85.8L81.55 79.1C81.65 78.8 81.75 78.5 81.75 78.2C81.75 77 80.75 76 79.45 76L79.45 76ZM85.85 76.9L83.35 79.5L84.55 80.8L88.45 76.9C88.45 76.9 85.85 76.9 85.85 76.9L85.85 76.9ZM79.45 77.3C79.95 77.3 80.35 77.7 80.35 78.2C80.35 78.7 79.85 79.1 79.45 79.1C79.05 79.1 78.45 78.7 78.45 78.2C78.45 77.7 78.95 77.3 79.45 77.3L79.45 77.3ZM87.45 80.5L87.45 82.3L89.35 82.3L89.35 80.5L87.45 80.5L87.45 80.5ZM91.25 80.5L91.25 82.3L93.15 82.3L93.15 84.1L95.05 84.1L95.05 82.3C95.05 81.3 94.25 80.5 93.15 80.5L91.25 80.5L91.25 80.5ZM82.75 81.1C83.0833 81.1 83.25 81.2667 83.25 81.6C83.25 81.9333 83.0833 82.1 82.75 82.1C82.4167 82.1 82.25 81.9333 82.25 81.6C82.25 81.2667 82.4167 81.1 82.75 81.1L82.75 81.1ZM79.45 83.6C79.95 83.6 80.35 84 80.35 84.5C80.35 85 79.85 85.4 79.45 85.4C79.05 85.4 78.45 85 78.45 84.5C78.45 84 78.95 83.6 79.45 83.6L79.45 83.6ZM93.15 85.9L93.15 87.7L95.05 87.7L95.05 85.9L93.15 85.9L93.15 85.9ZM77.95 89.5L77.95 91.3C77.95 92.3 78.75 93.1 79.85 93.1L81.75 93.1L81.75 91.3L79.85 91.3L79.85 89.5L77.95 89.5L77.95 89.5ZM93.15 89.5L93.15 91.3L91.25 91.3L91.25 93.1L93.15 93.1C94.15 93.1 95.05 92.3 95.05 91.3L95.05 89.5L93.15 89.5L93.15 89.5ZM83.65 91.3L83.65 93.1L85.55 93.1L85.55 91.3L83.65 91.3L83.65 91.3ZM87.45 91.3L87.45 93.1L89.35 93.1L89.35 91.3L87.45 91.3L87.45 91.3Z" id="Group_00000113327142810101605190000007648954916707875718_" fill="#898989" fill-rule="evenodd" stroke="none" />
    <path d="M137.05 77L137.05 93C137.05 94.1 137.95 95 139.05 95L155.05 95L155.05 93L139.05 93L139.05 77L137.05 77L137.05 77ZM153.35 80.3L149.05 84.6L146.05 81.7L140.35 87.2L141.75 88.6L146.05 84.5L149.05 87.4L154.75 81.7L153.35 80.3L153.35 80.3Z" id="Group_00000062880706784373708800000000325697228152382125_" fill="#898989" fill-rule="evenodd" stroke="none" />
    <path d="M167.05 76C165.95 76 165.05 76.9 165.05 78C165.05 79.1 165.95 80 167.05 80C168.15 80 169.05 79.1 169.05 78C169.05 76.9 168.15 76 167.05 76L167.05 76ZM164.85 81L160.25 83.3L159.15 86.7L161.05 87.3L161.95 84.7L163.75 83.8L161.05 96L163.05 96L164.45 89.5C164.95 90 165.75 91 166.05 91.3L166.05 96L168.05 96L168.05 90.7L166.85 88.9L167.65 85.4C167.95 85.9 168.25 86.3 168.65 86.7C169.55 87.5 170.75 88 171.95 88L171.95 86C171.15 86 170.55 85.8 169.95 85.2C169.45 84.7 169.05 84 168.85 83.1C168.55 81.5 166.85 81 166.05 81L164.85 81L164.85 81Z" id="Group_00000119083961152046493840000012736726184363682977_" fill="#898989" fill-rule="evenodd" stroke="none" />
    <path d="M112.95 76.9C112.85 76.9 112.75 76.9 112.55 76.9L98.85 80.5L105.95 80.5L111.35 79.1C111.55 79.4 111.95 79.7 112.35 79.7L112.55 80.5L114.45 80.5L113.65 77.6C113.55 77.2 113.25 77 112.95 76.9L112.95 76.9ZM97.95 82.3C97.45 82.3 97.05 82.7 97.05 83.2L97.05 92.2C97.05 92.7 97.45 93.1 97.95 93.1L114.15 93.1C114.65 93.1 115.05 92.7 115.05 92.2L115.05 83.2C115.05 82.7 114.65 82.3 114.15 82.3C114.15 82.3 97.95 82.3 97.95 82.3L97.95 82.3ZM99.65 84.1L112.45 84.1C112.55 84.5 112.85 84.8 113.25 84.9L113.25 90.5C112.85 90.6 112.55 90.9 112.45 91.3L99.65 91.3C99.55 90.9 99.25 90.6 98.85 90.5L98.85 84.9C99.25 84.8 99.55 84.5 99.65 84.1L99.65 84.1ZM106.05 85C104.55 85 103.35 86.2 103.35 87.7C103.35 89.2 104.55 90.4 106.05 90.4C107.55 90.4 108.75 89.2 108.75 87.7C108.75 86.2 107.55 85 106.05 85L106.05 85L106.05 85ZM101.55 86.8C101.05 86.8 100.65 87.2 100.65 87.7C100.65 88.2 101.05 88.6 101.55 88.6C102.05 88.6 102.45 88.2 102.45 87.7C102.45 87.2 102.05 86.8 101.55 86.8L101.55 86.8ZM110.55 86.8C110.05 86.8 109.65 87.2 109.65 87.7C109.65 88.2 110.05 88.6 110.55 88.6C111.05 88.6 111.45 88.2 111.45 87.7C111.45 87.2 111.05 86.8 110.55 86.8L110.55 86.8Z" id="Group_00000077320685830574379130000008463149995047350445_" fill="#898989" fill-rule="evenodd" stroke="none" />
    <path d="M54.5 36L54.5 37.4L53 37.4C52.6 37.4 52.3 37.7 52.3 38.1L52.3 42.2L51.6 42.2C51.2 42.2 50.9 42.5 50.9 42.9L50.9 47.7C50.9 48.1 51.2 48.4 51.6 48.4L59.7 48.4C62.8 48.4 65.4 46.1 65.9 43L65.9 42.9L65.9 41.5L65.9 40.8C65.9 40.4 65.6 40.1 65.2 40.1L60.4 40.1C60.2 40.1 60 40.2 59.8 40.4L58.6 42.1L57.6 42.1L57.6 39.5L58.2 38.3C58.3 38.1 58.3 37.8 58.2 37.6C58.1 37.4 57.9 37.3 57.6 37.3L55.6 37.3L55.6 36L54.5 36L54.5 36ZM53.8 38.7L56.8 38.7L56.6 39.1C56.6 39.2 56.5 39.3 56.5 39.4L56.5 42.1L53.8 42.1L53.8 38.7L53.8 38.7L53.8 38.7ZM61 41.5L64.7 41.5L64.7 42.8C64.3 45.2 62.3 47 59.9 47L52.4 47L52.4 43.6L59.2 43.6C59.4 43.6 59.6 43.5 59.8 43.3L61 41.5L61 41.5ZM62 42.1L62 43.5L63.4 43.5L63.4 42.1L62 42.1L62 42.1Z" id="Shape_00000096763846937657914700000000084028547207510198_" fill="#898989" fill-rule="evenodd" stroke="none" />
    <path d="M72.2 35L69.4 37L69.4 39.6L68 39.6L68 41.1L68.7 41.1L68.7 50L81.4 50L81.4 41.1L82.1 41.1L82.1 39.6L80.7 39.6L80.7 38.1C80.7 37.3 80.1 36.6 79.3 36.6L74.6 36.6L72.2 35L72.2 35ZM72.2 36.8L73.6 37.8L73.6 39.6L72.9 39.6L72.9 38.1L71.5 38.1L71.5 39.6L70.8 39.6L70.8 37.8L72.2 36.8L72.2 36.8ZM75.2 38.1L76.6 38.1L76.6 39.6L75.2 39.6L75.2 38.1L75.2 38.1ZM77.9 38.1L79.3 38.1L79.3 39.6L77.9 39.6L77.9 38.1L77.9 38.1ZM70.2 41.1L75.1 41.1L80.1 41.1L80.1 48.5L78.7 48.5L78.7 45.5L77.3 45.5L77.3 48.5L70.2 48.5L70.2 41.1L70.2 41.1ZM71.6 42.6L71.6 44.1L73 44.1L73 42.6L71.6 42.6L71.6 42.6ZM74.3 42.6L74.3 44.1L75.7 44.1L75.7 42.6L74.3 42.6L74.3 42.6ZM77.2 42.6L77.2 44.1L78.6 44.1L78.6 42.6L77.2 42.6L77.2 42.6ZM71.6 45.5L71.6 47L73 47L73 45.5L71.6 45.5L71.6 45.5ZM74.3 45.5L74.3 47L75.7 47L75.7 45.5L74.3 45.5L74.3 45.5Z" id="Shape_00000034068993636121615980000001907748010415350456_" fill="#898989" fill-rule="evenodd" stroke="none" />
    <path d="M1.50001 37C0.700006 37 0.100006 37.6 0.100006 38.4L0.100006 46L1.50001 46C1.50001 47.1 2.40001 48.1 3.50001 48.1C4.60001 48.1 5.50001 47.2 5.50001 46L8.90001 46L9.60001 46C9.60001 47.1 10.5 48.1 11.6 48.1C12.7 48.1 13.6 47.2 13.6 46L14.3 46L15.1 46L15.1 42.5L13.2 38.7C13.1 38.5 12.8 38.3 12.6 38.3L10.3 38.3L10.3 37L1.50001 37L1.50001 37ZM1.5 38.4L9 38.4L9 41.2L9 42.6L9 44.7L5 44.7C4.6 44.3 4.1 44 3.5 44C2.9 44 2.3 44.3 2 44.7L1.5 44.7L1.5 38.4L1.5 38.4ZM10.2 39.8L12.1 39.8L12.8 41.2L10.2 41.2C10.2 41.2 10.2 39.8 10.2 39.8L10.2 39.8ZM10.2 42.5L13.4 42.5L13.6 42.8L13.6 43.2L13.6 44.1L13.6 44.5L13.1 44.5C12.7 44.1 12.2 43.8 11.6 43.8C11.1 43.8 10.6 44 10.2 44.3L10.2 43.4L10.2 43L10.2 42.5L10.2 42.5L10.2 42.5ZM3.50001 45.1C4.00001 45.1 4.40001 45.5 4.40001 46C4.40001 46.5 4.00001 46.9 3.50001 46.9C3.00001 46.9 2.70001 46.5 2.70001 46C2.70001 45.5 3.00001 45.1 3.50001 45.1L3.50001 45.1ZM11.6 45.1C12.1 45.1 12.5 45.5 12.5 46C12.5 46.5 12.1 46.9 11.6 46.9C11.1 46.9 10.7 46.5 10.7 46C10.7 45.5 11.1 45.1 11.6 45.1L11.6 45.1Z" id="Shape_00000088091452678208845940000007798783711456481441_" fill="#898989" fill-rule="evenodd" stroke="none" />
    <path d="M24.55 35.7L19.05 38.3L19.05 42.2C19.05 47.3 23.05 49.6 24.55 50C26.15 49.7 30.05 47.3 30.05 42.2L30.05 38.3L24.55 35.7L24.55 35.7ZM24.55 37.1L28.85 39.1L28.85 42.1C28.85 46.1 25.95 48.1 24.55 48.5C23.15 48.1 20.25 46 20.25 42.1L20.25 39.1L24.55 37.1L24.55 37.1ZM27.55 40.1L23.95 43.8L22.25 42.1L21.35 43L23.95 45.7L28.35 41L27.55 40.1L27.55 40.1Z" id="icons8-security_checked" fill="#898989" fill-rule="evenodd" stroke="none" />
    <path d="M36.8 36L34 40.6L41.5 50L42.1 49.3L49 40.6L46.3 36L36.8 36L36.8 36ZM38.5 37.5L44.7 37.5L43.4 39.8L39.8 39.8L38.5 37.5L38.5 37.5ZM37.2 38.2L38.1 39.7L36.3 39.7L37.2 38.2L37.2 38.2ZM46 38.2L46.9 39.7L45 39.7L46 38.2L46 38.2ZM36.5 41.3L38.8 41.3L39.9 45.6L36.5 41.3L36.5 41.3ZM40.3 41.3L42.8 41.3L41.5 45.7L40.3 41.3L40.3 41.3ZM44.2 41.3L46.5 41.3L43 45.9L44.2 41.3L44.2 41.3Z" id="Shape_00000041977803496557660970000016637977952197808048_" fill="#898989" fill-rule="evenodd" stroke="none" />
    <path d="M118.025 6.73617C117.825 6.73617 117.625 6.63617 117.425 6.53617L112.225 1.53617C111.925 1.23617 111.925 0.736168 112.225 0.336168C112.525 -0.0638322 113.125 0.0361678 113.425 0.336168L118.025 4.73617L122.625 0.336168C122.925 0.0361676 123.525 0.0361676 123.825 0.336168C124.125 0.636168 124.125 1.13617 123.825 1.53617L118.625 6.53617C118.425 6.63617 118.225 6.73617 118.025 6.73617L118.025 6.73617L118.025 6.73617Z" id="iconDownArrowWhite" fill="#FFFFFF" fill-rule="evenodd" stroke="none" />
    <g id="Group_00000016059441715016828440000010677887087627594660_" transform="translate(141.11865 61.899994)" opacity="0.6979">
      <path d="M3.46568 3.95C3.36568 3.95 3.16568 3.85 3.16568 3.85L0.16568 0.950001C-0.034317 0.649998 -0.034317 0.349998 0.0656891 0.149998C0.16568 -0.0499992 0.565689 -0.0499992 0.765686 0.149998L3.46568 2.75L6.16568 0.149998C6.36568 0.0499992 6.66568 0.0499992 6.86568 0.149998C7.06569 0.25 7.06569 0.649998 6.86568 0.849998L3.86568 3.75C3.76569 3.85 3.56569 3.95 3.46568 3.95L3.46568 3.95L3.46568 3.95Z" id="Path_00000001663096098096198050000000813267316673244823_" fill="#FFFFFF" fill-rule="evenodd" stroke="none" />
    </g>
    <path d="M29.55 65.3C29.25 65.3 29.05 65.2 28.85 65L22.35 58.7C21.95 58.3 21.95 57.7 22.35 57.3C22.75 56.9 23.45 56.9 23.85 57.3L29.55 62.8L35.25 57.3C35.65 56.9 36.35 56.9 36.75 57.3C37.15 57.7 37.15 58.3 36.75 58.7L30.25 65C30.05 65.2 29.85 65.3 29.55 65.3L29.55 65.3L29.55 65.3Z" id="Group_00000027596967365354432760000006619603778703373703_" fill="#898989" fill-rule="evenodd" stroke="none" />
    <path d="M139.55 0.5L130.55 9.5M130.55 0.5L139.55 9.5" id="Group_00000012474859439363355800000013832840436177880719_" fill="none" fill-rule="evenodd" stroke="#9B9B9B" stroke-width="1" stroke-linecap="square" />
    <path d="M159.25 0C159.05 0 158.85 0.1 158.65 0.3L150.15 9L147.45 6.2C147.25 6 146.95 5.9 146.65 5.9C146.35 6 146.15 6.3 146.05 6.5C146.05 6.8 146.05 7.2 146.35 7.4L149.65 10.8C149.95 11.1 150.45 11.1 150.85 10.8L159.85 1.5C160.05 1.3 160.15 0.9 160.05 0.6C159.95 0.3 159.55 0 159.25 0L159.25 0Z" id="icons8-checkmark" fill="#FFFFFF" fill-rule="evenodd" stroke="none" />
    <path d="M191.1 1L191.1 2.6L192.7 2.6L192.7 3.6C192.7 4.6 193.1 5.6 193.9 6.3L195.6 7.9L193.9 9.5C193.2 10.2 192.7 11.2 192.7 12.2L192.7 13.2L191.1 13.2L191.1 15L202.1 15L202.1 13.4L200.5 13.4L200.5 12.4C200.5 11.4 200.1 10.4 199.3 9.7L197.6 8L199.3 6.4C200 5.7 200.5 4.7 200.5 3.7L200.5 2.7L202.1 2.7L202.1 1L191.1 1L191.1 1ZM194.1 2.60001L198.8 2.60001L198.8 3.60001C198.8 4.20001 198.6 4.80001 198.1 5.20001L196.4 6.80001L194.7 5.10001C194.3 4.70001 194 4.10001 194 3.50001L194.1 2.60001L194.1 2.60001L194.1 2.60001ZM196.6 9.10001L198.3 10.7C198.7 11.1 199 11.7 199 12.3L199 13.3L198.1 13.3C197.7 12.3 196.7 11.7 196.7 11.7C196.7 11.7 195.7 12.2 195.3 13.3L194.4 13.3L194.4 12.3C194.4 11.7 194.6 11.1 195.1 10.7L196.6 9.10001L196.6 9.10001Z" id="Shape_00000096779301188133579140000002407213658344866234_" fill="#898989" fill-rule="evenodd" stroke="none" />
    <path d="M212.9 1L210.1 8.7L213.6 8.7L211.1 15L212.2 15L218.1 7.3L214.8 7.3L217.6 1L212.9 1Z" id="Path_00000054228504759237081420000013797216308825334456_" fill="#898989" fill-rule="evenodd" stroke="none" />
    <path d="M230.1 1C228.4 1 227 2.3 227 3.8C227 4.3 227.2 4.8 227.4 5.2L227 5.2L225.4 5.2C225 5.2 224.6 4.9 224.6 4.5C224.6 4.1 224.9 3.8 225.4 3.8C225.4 3.3 225.5 2.8 225.7 2.4L225.4 2.4C224.1 2.4 223.1 3.3 223.1 4.5L223.1 13.6C223.1 14.4 223.8 15 224.7 15L235.6 15C236.5 15 237.2 14.4 237.2 13.6L237.2 6.6C237.2 6 236.8 5.5 236.3 5.3C236.4 5 236.5 4.8 236.5 4.5C236.5 3 235.1 1.7 233.4 1.7C233.1 1.7 232.8 1.7 232.5 1.8C231.6 1.3 230.9 1 230.1 1L230.1 1ZM230.1 2.39999C231 2.39999 231.7 2.99999 231.7 3.79999C231.7 4.59999 231 5.19999 230.1 5.19999C229.2 5.19999 228.5 4.59999 228.5 3.79999C228.5 2.99999 229.1 2.39999 230.1 2.39999L230.1 2.39999ZM233.1 3.10001C234 3.10001 234.7 3.70001 234.7 4.50001C234.7 4.80001 234.6 5.00001 234.5 5.20001L232.7 5.20001C233 4.80001 233.1 4.30001 233.1 3.80001C233.1 3.60001 233.1 3.30001 233.1 3.10001L233.1 3.10001L233.1 3.10001ZM224.6 6.5C224.8 6.6 225.1 6.6 225.4 6.6L227 6.6L227.8 6.6L235.6 6.6L235.6 13.6L224.7 13.6L224.7 6.5L224.6 6.5L224.6 6.5ZM233.1 9.39999C232.7 9.39999 232.3 9.69999 232.3 10.1C232.3 10.5 232.6 10.8 233.1 10.8C233.6 10.8 233.9 10.5 233.9 10.1C233.9 9.69999 233.6 9.39999 233.1 9.39999L233.1 9.39999Z" id="Shape_00000093143288808819277920000006806410302839842946_" fill="#898989" fill-rule="evenodd" stroke="none" />
    <path d="M245.2 1C244 1 243 2 243 3.2C243 3.5 243.1 3.7 243.1 3.9L240 3.9L240 8.3L240.8 8.3L240.8 13.5C240.8 14.3 241.4 14.9 242.2 14.9L252.8 14.9C253.6 14.9 254.2 14.3 254.2 13.5L254.2 8.4L255 8.4L255 3.9L251.9 3.9C252 3.7 252 3.4 252 3.2C252 2 251 1 249.8 1C249.2 1 248.7 1.2 248.3 1.6L248.3 1.6L248.2 1.7C248.2 1.7 248.2 1.7 248.1 1.8L247.5 2.4L246.9 1.8C246.9 1.8 246.9 1.8 246.8 1.7L246.7 1.6L246.7 1.6C246.4 1.2 245.9 1 245.2 1L245.2 1ZM245.2 2.5C245.6 2.5 246 2.8 246 3.2C246 3.6 245.7 3.9 245.2 3.9C244.7 3.9 244.4 3.6 244.4 3.2C244.4 2.8 244.9 2.5 245.2 2.5L245.2 2.5ZM249.9 2.5C250.3 2.5 250.7 2.8 250.7 3.2C250.7 3.6 250.4 3.9 249.9 3.9C249.4 3.9 249.1 3.6 249.1 3.2C249.1 2.8 249.4 2.5 249.9 2.5L249.9 2.5ZM241.6 5.39999L253.6 5.39999L253.6 6.89999L241.6 6.89999L241.6 5.39999L241.6 5.39999ZM242.2 8.39999L246.7 8.39999L246.7 13.6L242.2 13.6L242.2 8.39999L242.2 8.39999ZM248.2 8.39999L252.7 8.39999L252.7 13.6L248.2 13.6L248.2 8.39999L248.2 8.39999Z" id="Shape_00000136402125169648896570000006039623582210589829_" fill="#898989" fill-rule="evenodd" stroke="none" />
    <path d="M258.5 4C257.7 4 257 4.7 257 5.5L257 11.5C257 12.3 257.7 13 258.5 13L266.9 13C267.3 13 267.7 12.9 268 12.6L272.1 8.5L268 4.4C267.8 4.1 267.4 4 267 4L258.5 4L258.5 4ZM258.5 5.5L266.9 5.5L266.9 5.5L269.9 8.5L266.9 11.5L258.5 11.5L258.5 5.5L258.5 5.5ZM266.9 7.8C266.5 7.8 266.1 8.1 266.1 8.6C266.1 9.1 266.4 9.4 266.9 9.4C267.4 9.4 267.7 9.1 267.7 8.6C267.7 8.1 267.2 7.8 266.9 7.8L266.9 7.8Z" id="Shape_00000160174831813439577400000013330392365942563518_" fill="#898989" fill-rule="evenodd" stroke="none" />
    <path d="M276.1 1C275.8 1 275.6 1.1 275.4 1.4L274 3.7C274 3.8 274 4 274 4.1L274 13.4C274 14.3 274.7 15 275.6 15L286.5 15C287.4 15 288.1 14.3 288.1 13.4L288.1 4.1C288.1 4 288.1 3.8 288 3.7L286.6 1.4C286.5 1.2 286.2 1 286 1L276.1 1L276.1 1ZM276.6 2.60001L285.4 2.60001L286.3 4.20001L275.7 4.20001L276.6 2.60001L276.6 2.60001ZM275.6 5.7L286.5 5.7L286.5 13.5L275.6 13.5L275.6 5.7L275.6 5.7ZM278.8 7.2L278.8 8.8L283.5 8.8L283.5 7.2L278.8 7.2L278.8 7.2Z" id="Shape_00000036949258436916864810000001585805239697699464_" fill="#898989" fill-rule="evenodd" stroke="none" />
    <path d="M91.6 38.3L92.7 40.6C92.8 40.8 92.9 40.9 93.1 40.9L95.6 41.3C95.8 41.3 96 41.5 96 41.7C96.1 41.9 96 42.1 95.9 42.3L94.1 43.9C94 44 93.9 44.2 93.9 44.4L94.3 46.9C94.3 47.1 94.3 47.3 94.1 47.4C93.9 47.5 93.7 47.5 93.5 47.4L91.2 46.2C91 46.1 90.9 46.1 90.7 46.2L88.4 47.4C88.2 47.5 88 47.5 87.8 47.4C87.6 47.3 87.6 47.1 87.6 46.9L88 44.4C88 44.2 88 44 87.8 43.9L86 42.1C86.1 42 86.1 41.8 86.1 41.6C86.2 41.4 86.3 41.3 86.5 41.2L89 40.8C89.2 40.8 89.3 40.7 89.4 40.5L90.5 38.2C90.6 38 90.8 37.9 91 37.9C91.2 37.9 91.4 38.1 91.6 38.3L91.6 38.3Z" id="Path_00000118387981191279360970000013677406840610389935_" fill="#FFFFFF" fill-rule="evenodd" stroke="none" />
    <path d="M116.55 41.9C116.85 41.4 117.05 40.9 117.05 40.3C117.05 39.6 116.75 39.1 116.25 38.6C115.75 38.1 115.05 37.9 114.35 37.9L112.55 37.9C112.85 37.3 113.05 36.7 113.05 36.1C113.05 35.3 112.95 34.8 112.65 34.3C112.45 33.9 112.05 33.5 111.55 33.3C111.15 33.1 110.65 33 110.05 33C109.65 33 109.35 33.1 109.15 33.4C108.85 33.6 108.55 34 108.45 34.4C108.35 34.8 108.25 35.2 108.15 35.6C108.05 36 107.95 36.3 107.75 36.4C107.45 36.8 107.05 37.2 106.65 37.7C105.95 38.5 105.45 39 105.25 39.2L102.35 39.2C102.05 39.2 101.75 39.3 101.45 39.5C101.15 39.8 101.05 40 101.05 40.4L101.05 46.6C101.05 46.9 101.15 47.2 101.45 47.5C101.75 47.7 102.05 47.9 102.35 47.9L105.35 47.9C105.55 47.9 105.95 48 106.75 48.3C107.65 48.6 108.35 48.8 109.05 48.9C109.65 49 110.35 49.1 111.05 49.1L112.05 49.1L112.45 49.1C113.45 49.1 114.25 48.8 114.85 48.3C115.45 47.8 115.75 47.1 115.75 46.2C116.15 45.7 116.35 45.1 116.35 44.5C116.35 44.4 116.35 44.2 116.35 44.1C116.65 43.7 116.75 43.2 116.75 42.7C116.65 42.4 116.65 42.2 116.55 41.9L116.55 41.9ZM103.75 46.7C103.55 46.9 103.45 46.9 103.15 46.9C102.95 46.9 102.75 46.8 102.55 46.7C102.35 46.5 102.35 46.4 102.35 46.1C102.35 45.9 102.45 45.7 102.55 45.5C102.75 45.3 102.85 45.3 103.15 45.3C103.35 45.3 103.55 45.4 103.75 45.5C103.95 45.7 103.95 45.8 103.95 46.1C103.95 46.3 103.95 46.5 103.75 46.7L103.75 46.7ZM115.45 41.2C115.35 41.5 115.15 41.6 114.85 41.7C114.95 41.8 115.05 42 115.15 42.2C115.25 42.4 115.25 42.6 115.25 42.7C115.25 43.1 115.05 43.5 114.65 43.8C114.75 44 114.85 44.2 114.85 44.5C114.85 44.7 114.75 45 114.65 45.2C114.55 45.4 114.35 45.6 114.15 45.7C114.15 45.9 114.25 46.1 114.25 46.2C114.25 47.3 113.55 47.8 112.25 47.8L111.05 47.8C110.15 47.8 108.95 47.6 107.45 47.1C107.45 47.1 107.35 47.1 107.15 47C106.95 46.9 106.85 46.9 106.75 46.9C106.65 46.9 106.55 46.8 106.35 46.8C106.15 46.8 106.05 46.7 105.95 46.7C105.85 46.7 105.75 46.7 105.65 46.6C105.55 46.6 105.45 46.6 105.35 46.6L105.05 46.6L105.05 40.4L105.35 40.4C105.45 40.4 105.55 40.4 105.75 40.3C105.85 40.2 106.05 40.2 106.15 40C106.25 39.9 106.45 39.8 106.55 39.7C106.65 39.6 106.85 39.4 106.95 39.3C107.15 39.1 107.25 39 107.35 38.9C107.45 38.8 107.55 38.7 107.65 38.5C107.75 38.3 107.85 38.2 107.85 38.2C108.25 37.8 108.45 37.5 108.65 37.3C109.05 37 109.25 36.7 109.35 36.3C109.45 35.8 109.55 35.4 109.65 35C109.75 34.7 109.85 34.4 110.05 34.2C110.75 34.2 111.15 34.4 111.35 34.7C111.55 35 111.65 35.5 111.65 36.1C111.65 36.5 111.45 37 111.15 37.6C110.85 38.3 110.75 38.8 110.75 39.2L114.45 39.2C114.75 39.2 115.15 39.3 115.35 39.6C115.65 39.8 115.75 40.1 115.75 40.5C115.75 40.6 115.65 40.9 115.45 41.2L115.45 41.2Z" id="Shape-2" fill="#50BD8E" fill-rule="evenodd" stroke="none" />
    <path d="M139.55 41.9C139.85 41.4 140.05 40.9 140.05 40.3C140.05 39.6 139.75 39.1 139.25 38.6C138.75 38.1 138.05 37.9 137.35 37.9L135.55 37.9C135.85 37.3 136.05 36.7 136.05 36.1C136.05 35.3 135.95 34.8 135.65 34.3C135.45 33.9 135.05 33.5 134.55 33.3C134.15 33.1 133.65 33 133.05 33C132.65 33 132.35 33.1 132.15 33.4C131.85 33.6 131.55 34 131.45 34.4C131.35 34.8 131.25 35.2 131.15 35.6C131.05 36 130.95 36.3 130.75 36.4C130.45 36.8 130.05 37.2 129.65 37.7C128.95 38.5 128.45 39 128.25 39.2L125.35 39.2C125.05 39.2 124.75 39.3 124.45 39.5C124.15 39.8 124.05 40 124.05 40.4L124.05 46.6C124.05 46.9 124.15 47.2 124.45 47.5C124.75 47.7 125.05 47.9 125.35 47.9L128.35 47.9C128.55 47.9 128.95 48 129.75 48.3C130.65 48.6 131.35 48.8 132.05 48.9C132.65 49 133.35 49.1 134.05 49.1L135.05 49.1L135.45 49.1C136.45 49.1 137.25 48.8 137.85 48.3C138.45 47.8 138.75 47.1 138.75 46.2C139.15 45.7 139.35 45.1 139.35 44.5C139.35 44.4 139.35 44.2 139.35 44.1C139.65 43.7 139.75 43.2 139.75 42.7C139.65 42.4 139.65 42.2 139.55 41.9L139.55 41.9ZM126.75 46.7C126.55 46.9 126.45 46.9 126.15 46.9C125.95 46.9 125.75 46.8 125.55 46.7C125.35 46.5 125.35 46.4 125.35 46.1C125.35 45.9 125.45 45.7 125.55 45.5C125.75 45.3 125.85 45.3 126.15 45.3C126.35 45.3 126.55 45.4 126.75 45.5C126.95 45.7 126.95 45.8 126.95 46.1C126.95 46.3 126.95 46.5 126.75 46.7L126.75 46.7ZM138.45 41.2C138.35 41.5 138.15 41.6 137.85 41.7C137.95 41.8 138.05 42 138.15 42.2C138.25 42.4 138.25 42.6 138.25 42.7C138.25 43.1 138.05 43.5 137.65 43.8C137.75 44 137.85 44.2 137.85 44.5C137.85 44.7 137.75 45 137.65 45.2C137.55 45.4 137.35 45.6 137.15 45.7C137.15 45.9 137.25 46.1 137.25 46.2C137.25 47.3 136.55 47.8 135.25 47.8L134.05 47.8C133.15 47.8 131.95 47.6 130.45 47.1C130.45 47.1 130.35 47.1 130.15 47C129.95 46.9 129.85 46.9 129.75 46.9C129.65 46.9 129.55 46.8 129.35 46.8C129.15 46.8 129.05 46.7 128.95 46.7C128.85 46.7 128.75 46.7 128.65 46.6C128.55 46.6 128.45 46.6 128.35 46.6L128.05 46.6L128.05 40.4L128.35 40.4C128.45 40.4 128.55 40.4 128.75 40.3C128.85 40.2 129.05 40.2 129.15 40C129.25 39.9 129.45 39.8 129.55 39.7C129.65 39.6 129.85 39.4 129.95 39.3C130.15 39.1 130.25 39 130.35 38.9C130.45 38.8 130.55 38.7 130.65 38.5C130.75 38.3 130.85 38.2 130.85 38.2C131.25 37.8 131.45 37.5 131.65 37.3C132.05 37 132.25 36.7 132.35 36.3C132.45 35.8 132.55 35.4 132.65 35C132.75 34.7 132.85 34.4 133.05 34.2C133.75 34.2 134.15 34.4 134.35 34.7C134.55 35 134.65 35.5 134.65 36.1C134.65 36.5 134.45 37 134.15 37.6C133.85 38.3 133.75 38.8 133.75 39.2L137.45 39.2C137.75 39.2 138.15 39.3 138.35 39.6C138.65 39.8 138.75 40.1 138.75 40.5C138.75 40.6 138.65 40.9 138.45 41.2L138.45 41.2Z" id="Group_00000132785839816160902880000000279445930635709083_" fill="#898989" fill-rule="evenodd" stroke="none" />
    <path d="M147.55 40.1C147.25 40.6 147.05 41.1 147.05 41.7C147.05 42.4 147.35 42.9 147.85 43.4C148.35 43.9 149.05 44.1 149.75 44.1L151.55 44.1C151.25 44.7 151.05 45.3 151.05 45.9C151.05 46.7 151.15 47.2 151.45 47.7C151.65 48.1 152.05 48.5 152.55 48.7C152.95 48.9 153.45 49 154.05 49C154.45 49 154.75 48.9 154.95 48.6C155.25 48.4 155.55 48 155.65 47.6C155.75 47.2 155.85 46.8 155.95 46.4C156.05 46 156.15 45.7 156.35 45.6C156.65 45.2 157.05 44.8 157.45 44.3C158.15 43.5 158.65 43 158.85 42.8L161.75 42.8C162.05 42.8 162.35 42.7 162.65 42.5C162.95 42.2 163.05 42 163.05 41.6L163.05 35.4C163.05 35.1 162.95 34.8 162.65 34.5C162.35 34.3 162.05 34.1 161.75 34.1L158.75 34.1C158.55 34.1 158.15 34 157.35 33.7C156.45 33.4 155.75 33.2 155.05 33.1C154.45 33 153.75 32.9 153.05 32.9L152.05 32.9L151.65 32.9C150.65 32.9 149.85 33.2 149.25 33.7C148.65 34.2 148.35 34.9 148.35 35.8C147.95 36.3 147.75 36.9 147.75 37.5C147.75 37.6 147.75 37.8 147.75 37.9C147.45 38.3 147.35 38.8 147.35 39.3C147.45 39.6 147.45 39.8 147.55 40.1L147.55 40.1ZM160.35 35.3C160.55 35.1 160.65 35.1 160.95 35.1C161.15 35.1 161.35 35.2 161.55 35.3C161.75 35.5 161.75 35.6 161.75 35.9C161.75 36.1 161.65 36.3 161.55 36.5C161.35 36.7 161.25 36.7 160.95 36.7C160.75 36.7 160.55 36.6 160.35 36.5C160.15 36.3 160.15 36.2 160.15 35.9C160.15 35.7 160.15 35.5 160.35 35.3L160.35 35.3ZM148.65 40.8C148.75 40.5 148.95 40.4 149.25 40.3C149.15 40.2 149.05 40 148.95 39.8C148.85 39.6 148.85 39.4 148.85 39.3C148.85 38.9 149.05 38.5 149.45 38.2C149.35 38 149.25 37.8 149.25 37.5C149.25 37.3 149.35 37 149.45 36.8C149.55 36.6 149.75 36.4 149.95 36.3C149.95 36.1 149.85 35.9 149.85 35.8C149.85 34.7 150.55 34.2 151.85 34.2L153.05 34.2C153.95 34.2 155.15 34.4 156.65 34.9C156.65 34.9 156.75 34.9 156.95 35C157.15 35.1 157.25 35.1 157.35 35.1C157.45 35.1 157.55 35.2 157.75 35.2C157.95 35.2 158.05 35.3 158.15 35.3C158.25 35.3 158.35 35.3 158.45 35.4C158.55 35.4 158.65 35.4 158.75 35.4L159.05 35.4L159.05 41.6L158.75 41.6C158.65 41.6 158.55 41.6 158.35 41.7C158.25 41.8 158.05 41.8 157.95 42C157.85 42.1 157.65 42.2 157.55 42.3C157.45 42.4 157.25 42.6 157.15 42.7C156.95 42.9 156.85 43 156.75 43.1C156.65 43.2 156.55 43.3 156.45 43.5C156.35 43.7 156.25 43.8 156.25 43.8C155.85 44.2 155.65 44.5 155.45 44.7C155.05 45 154.85 45.3 154.75 45.7C154.65 46.2 154.55 46.6 154.45 47C154.35 47.3 154.25 47.6 154.05 47.8C153.35 47.8 152.95 47.6 152.75 47.3C152.55 47 152.45 46.5 152.45 45.9C152.45 45.5 152.65 45 152.95 44.4C153.25 43.7 153.35 43.2 153.35 42.8L149.65 42.8C149.35 42.8 148.95 42.7 148.75 42.4C148.45 42.2 148.35 41.9 148.35 41.5C148.35 41.4 148.45 41.1 148.65 40.8L148.65 40.8Z" id="Group_00000034060645436486833310000007758935473656096132_" fill="#898989" fill-rule="evenodd" stroke="none" />
    <g id="Group-3" transform="translate(168.04999 33)">
      <path d="M2.75 3L12.95 3L12.95 13.5L2.75 13.5L2.75 3Z" id="Rectangle" fill="#FFFFFF" fill-rule="evenodd" stroke="none" />
      <path d="M8 0C3.60001 0 0 3.6 0 8C0 12.4 3.60001 16 8 16C12.4 16 16 12.4 16 8C16 3.6 12.4 0 8 0L8 0ZM6.5 12.1L3 8.59999L4.2 7.39999L6.5 9.69999L11.8 4.39999L13 5.59999L6.5 12.1L6.5 12.1Z" id="checked" fill="#3F763B" fill-rule="evenodd" stroke="none" />
    </g>
    <path d="M201.45 41.3C200.45 41.3 199.65 41.8 199.15 42.6L194.25 40.7C194.25 40.5 194.35 40.3 194.35 40.1C194.35 39.8 194.35 39.6 194.25 39.4L199.25 37.1C199.75 37.8 200.55 38.3 201.45 38.3C202.85 38.3 204.05 37.1 204.05 35.7C204.05 34.3 202.85 33 201.45 33C200.05 33 198.75 34.2 198.75 35.6C198.75 35.9 198.75 36.1 198.85 36.3L193.85 38.6C193.45 38 192.55 37.5 191.65 37.5C190.25 37.5 189.05 38.7 189.05 40.1C189.05 41.5 190.25 42.7 191.65 42.7C192.65 42.7 193.45 42.2 193.95 41.4L198.85 43.3C198.85 43.5 198.75 43.7 198.75 43.9C198.75 45.3 199.95 46.5 201.35 46.5C202.75 46.5 203.95 45.3 203.95 43.9C203.95 42.5 202.85 41.3 201.45 41.3L201.45 41.3ZM201.45 33.8C202.45 33.8 203.35 34.6 203.35 35.7C203.35 36.8 202.55 37.6 201.45 37.6C200.35 37.6 199.55 36.8 199.55 35.7C199.55 34.6 200.35 33.8 201.45 33.8L201.45 33.8ZM191.65 42C190.65 42 189.75 41.2 189.75 40.1C189.75 39 190.55 38.2 191.65 38.2C192.75 38.2 193.55 39 193.55 40.1C193.55 41.2 192.75 42 191.65 42L191.65 42ZM201.45 45.8C200.45 45.8 199.55 45 199.55 43.9C199.55 42.8 200.35 42 201.45 42C202.55 42 203.35 42.8 203.35 43.9C203.35 45 202.45 45.8 201.45 45.8L201.45 45.8Z" id="share" fill="#898989" fill-rule="evenodd" stroke="#979797" stroke-width="0.5" />
    <g id="facebook" transform="translate(209.04999 33)">
      <path d="M0 7.9C0 3.53695 3.53695 0 7.9 0C12.263 0 15.8 3.53695 15.8 7.9C15.8 12.263 12.263 15.8 7.9 15.8C3.53695 15.8 0 12.263 0 7.9Z" id="Oval_00000082330704801457791010000005906576442976656048_" fill="#3B5998" fill-rule="evenodd" stroke="none" />
      <path d="M9.89999 8.3L8.5 8.3L8.5 13.5L6.39999 13.5L6.39999 8.3L5.39999 8.3L5.39999 6.4L6.39999 6.4L6.39999 5.2C6.39999 4.4 6.8 3 8.60001 3L10.2 3L10.2 4.8L9 4.8C8.8 4.9 8.5 5 8.5 5.4L8.5 6.5L10.1 6.5L9.89999 8.3L9.89999 8.3Z" id="Path_00000031922153870049121280000015930345564489375624_" fill="#FFFFFF" fill-rule="evenodd" stroke="none" />
    </g>
    <g id="search" transform="translate(251.04999 33)">
      <path d="M3.5 9.7L3 11.7L1 11.7C0.300003 10.7 0 9.40001 0 8C0 6.7 0.300003 5.40001 0.899994 4.3L0.899994 4.3L2.7 4.6L3.5 6.40001C3.3 6.90001 3.2 7.5 3.2 8C3.2 8.6 3.39999 9.1 3.5 9.7L3.5 9.7Z" id="Path_00000087389099635390063310000001555560920489629587_" fill="#FBBB00" fill-rule="evenodd" stroke="none" />
      <path d="M15.9 6.5C16 7 16 7.5 16 8C16 8.6 15.9 9.1 15.8 9.7C15.4 11.5 14.4 13.1 13 14.3L13 14.3L10.7 14.2L10.4 12.2C11.3 11.7 12.1 10.8 12.5 9.8L8.20001 9.8L8.20001 6.5L12.5 6.5L15.9 6.5L15.9 6.5L15.9 6.5Z" id="Path_00000093857387481981584540000010509530113239068327_" fill="#518EF8" fill-rule="evenodd" stroke="none" />
      <path d="M13 14.2L13 14.2C11.6 15.3 9.90001 16 7.99999 16C4.99998 16 2.3 14.3 1 11.8L3.60001 9.7C4.2 11.5 5.99998 12.8 7.99999 12.8C8.90001 12.8 9.7 12.6 10.4 12.1L13 14.2L13 14.2Z" id="Path_00000181047708830597569260000007805126953392927104_" fill="#28B446" fill-rule="evenodd" stroke="none" />
      <path d="M13.1 1.8L10.5 4C9.8 3.5 8.90001 3.2 7.99999 3.2C5.90001 3.2 4.10001 4.5 3.5 6.4L0.899994 4.3L0.899994 4.3C2.2 1.8 4.89999 0 7.99999 0C9.90001 0 11.7 0.700001 13.1 1.8L13.1 1.8Z" id="Path_00000140692921059466733290000011728813755410218427_" fill="#F14336" fill-rule="evenodd" stroke="none" />
    </g>
    <path d="M278.45 36.2L278.45 33L274.45 37L278.45 41L278.45 37.8C281.05 37.8 283.25 40 283.25 42.6C283.25 45.2 281.05 47.4 278.45 47.4C275.85 47.4 273.65 45.2 273.65 42.6L272.05 42.6C272.05 46.1 274.95 49 278.45 49C281.95 49 284.85 46.1 284.85 42.6C284.85 39.1 281.95 36.2 278.45 36.2L278.45 36.2Z" id="replay-arrow" fill="#898989" fill-rule="evenodd" stroke="none" />
    <path d="M0.250003 63.45C0.150003 63.35 0.0500031 63.25 0.0500031 63.15C0.0500031 63.05 0.150003 62.85 0.250003 62.75L1.05 61.85C1.25 61.65 1.65 61.65 1.85 61.85L1.95 61.95L5.05 65.45C5.15 65.55 5.35 65.55 5.45 65.45L13.15 57.25L13.25 57.25L13.25 57.25C13.45 57.05 13.85 57.05 14.05 57.25L14.85 58.05C15.05 58.25 15.05 58.65 14.85 58.85L14.85 58.85L5.65 68.65C5.55 68.75 5.45 68.85 5.25 68.85C5.05 68.85 4.95 68.75 4.85 68.65L0.350003 63.65L0.250003 63.45L0.250003 63.45Z" id="Group_00000024720521054544217390000003358933256534761886_" fill="#3F763B" fill-rule="evenodd" stroke="none" />
    <path d="M19.85 76C19.45 76 19.15 76.2 18.95 76.5L17.15 79.5C17.05 79.6 17.05 79.8 17.05 80L17.05 92C17.05 93.1 17.95 94 19.05 94L33.05 94C34.15 94 35.05 93.1 35.05 92L35.05 80C35.05 79.8 35.05 79.6 34.95 79.5L33.15 76.5C32.95 76.2 32.65 76 32.25 76L19.85 76L19.85 76ZM20.35 78L31.75 78L32.95 80L19.25 80L20.35 78L20.35 78ZM19.05 82L33.05 82L33.05 92L19.05 92L19.05 82L19.05 82ZM23.05 84L23.05 86L29.05 86L29.05 84L23.05 84L23.05 84Z" id="icons8-box" fill="#898989" fill-rule="evenodd" stroke="none" />
    <path d="M46.05 76C43.85 76 42.05 77.8 42.05 80C42.05 82.2 43.85 84 46.05 84C48.25 84 50.05 82.2 50.05 80C50.05 77.8 48.25 76 46.05 76L46.05 76ZM46.05 78C47.15 78 48.05 78.9 48.05 80C48.05 81.1 47.15 82 46.05 82C44.95 82 44.05 81.1 44.05 80C44.05 78.9 44.95 78 46.05 78L46.05 78ZM46.05 87C44.35 87 42.25 87.4 40.45 88.1C39.55 88.4 38.75 88.9 38.15 89.4C37.55 89.9 37.05 90.6 37.05 91.5L37.05 94L55.05 94L55.05 93L55.05 91.5C55.05 90.6 54.55 89.9 53.85 89.4C53.15 88.9 52.45 88.5 51.55 88.1C49.85 87.4 47.75 87 46.05 87L46.05 87ZM46.05 89C47.45 89 49.35 89.4 50.85 90C51.55 90.3 52.25 90.6 52.55 91C52.95 91.3 52.95 91.5 52.95 91.6L52.95 92L39.05 92L39.05 91.5C39.05 91.4 39.15 91.2 39.45 90.9C39.75 90.6 40.45 90.2 41.15 89.9C42.75 89.4 44.65 89 46.05 89L46.05 89Z" id="Group_00000025405530538948165930000018042283348368635276_" fill="#898989" fill-rule="evenodd" stroke="none" />
    <path d="M126.1 76C122.2 76 119.1 79.1 119.1 83C119.1 87.5 125.1 94.8 125.3 95.1L126.1 96L126.9 95.1C127.2 94.8 133.1 87.5 133.1 83C133.1 79.1 129.9 76 126.1 76L126.1 76ZM126.1 78C128.9 78 131.1 80.2 131.1 83C131.1 85.7 128 90.4 126.1 92.8C124.2 90.3 121.1 85.7 121.1 83C121.1 80.3 123.2 78 126.1 78L126.1 78ZM126.1 80.5C124.7 80.5 123.6 81.6 123.6 83C123.6 84.4 124.7 85.5 126.1 85.5C127.5 85.5 128.6 84.4 128.6 83C128.6 81.6 127.4 80.5 126.1 80.5L126.1 80.5Z" id="Shape_00000016765091488571205260000017130505903752816298_" fill="#898989" fill-rule="evenodd" stroke="none" />
    <path d="M223.1 81L226.1 85L223.1 89L225.1 89L228.1 85L225.1 81L223.1 81Z" id="Path_00000158723666565168782740000012932540126918186128_" fill="#373737" fill-rule="evenodd" stroke="none" />
    <path d="M238.15 86L234.25 82.2C233.85 81.8 233.85 81.1 234.25 80.7L234.25 80.7C234.65 80.3 235.35 80.3 235.75 80.7L240.35 85.3C240.75 85.7 240.75 86.3 240.35 86.7L235.75 91.3C235.35 91.7 234.65 91.7 234.25 91.3L234.25 91.3C233.85 90.9 233.85 90.2 234.25 89.8L238.15 86L238.15 86Z" id="Group_00000174595736789738737060000018032705237232649880_" fill="#898989" fill-rule="evenodd" stroke="none" />
    <path d="M248.1 85.6L244.3 81.8C243.9 81.4 243.9 80.7 244.3 80.3L244.3 80.3C244.7 79.9 245.4 79.9 245.8 80.3L250.4 84.9C250.8 85.3 250.8 85.9 250.4 86.3L245.8 90.9C245.4 91.3 244.7 91.3 244.3 90.9L244.3 90.9C243.9 90.5 243.9 89.8 244.3 89.4L248.1 85.6L248.1 85.6Z" id="Path_00000087386518433334178270000017306949464675809977_" fill="#EC5A29" fill-rule="evenodd" stroke="none" />
    <path d="M97.3 55.3C97.7 54.9 98.3 54.9 98.7 55.3C99.1 55.7 99.1 56.3 98.7 56.7L86.7 68.7C86.3 69.1 85.7 69.1 85.3 68.7L80.3 63.7C79.9 63.3 79.9 62.7 80.3 62.3C80.7 61.9 81.3 61.9 81.7 62.3L86 66.6L97.3 55.3L97.3 55.3Z" id="Path_00000055702099496011807390000009523106485244961470_" fill="#000000" fill-rule="evenodd" stroke="none" />
    <path d="M14.8 105L13.8 105L13.8 103C13.8 100.2 11.6 98 8.8 98C6 98 3.8 100.2 3.8 103L3.8 105L2.8 105C1.7 105 0.800003 105.9 0.800003 107L0.800003 117C0.800003 118.1 1.7 119 2.8 119L14.8 119C15.9 119 16.8 118.1 16.8 117L16.8 107C16.8 105.9 15.9 105 14.8 105L14.8 105ZM8.8 114C7.7 114 6.8 113.1 6.8 112C6.8 110.9 7.7 110 8.8 110C9.9 110 10.8 110.9 10.8 112C10.8 113.1 9.9 114 8.8 114L8.8 114ZM11.9 105L5.7 105L5.7 103C5.7 101.3 7.1 99.9 8.8 99.9C10.5 99.9 11.9 101.3 11.9 103L11.9 105L11.9 105Z" id="Shape_00000066500237333575202690000002875074371337946529_" fill="#9B9B9B" fill-rule="evenodd" stroke="none" />
    <path d="M51.65 190.7L47.95 187C47.55 186.6 46.95 186.6 46.55 187L46.55 187C46.15 187.4 46.15 188 46.55 188.4L51.05 192.9C51.45 193.3 52.05 193.3 52.45 192.9L56.95 188.4C57.35 188 57.35 187.4 56.95 187L56.95 187C56.55 186.6 55.95 186.6 55.55 187L51.65 190.7L51.65 190.7Z" id="Group_00000116934951859400648730000009573577562903320200_" fill="#373737" fill-rule="evenodd" stroke="none" />
    <g id="Group_00000060715958281236105700000002979578749918755723_" transform="translate(21.65001 98)">
      <path d="M0 16C0 7.16344 7.16344 0 16 0C24.8366 0 32 7.16344 32 16C32 24.8366 24.8366 32 16 32C7.16344 32 0 24.8366 0 16Z" id="Oval_00000089565502535411970760000009467996231365541517_" fill="#E3F0E2" fill-rule="evenodd" stroke="none" />
      <path d="M22.2 10.7C22.5 10.4 23 10.4 23.3 10.7C23.6 11 23.6 11.5 23.3 11.8L13.9 21.2C13.6 21.5 13.1 21.5 12.8 21.2L8.9 17.3C8.6 17 8.6 16.5 8.9 16.2C9.2 15.9 9.7 15.9 10 16.2L13.4 19.6L22.2 10.7L22.2 10.7Z" id="Path_00000180358645157399183880000017148826452084442280_" fill="#88AD85" fill-rule="evenodd" stroke="none" />
    </g>
    <path d="M62.55 120.6C62.55 121 62.95 121.3 63.35 121.3L70.35 121.3C70.75 121.3 71.05 121 71.15 120.6L71.65 110.3L62.15 110.3L62.55 120.6L62.55 120.6ZM68.35 112.9C68.35 112.8 68.45 112.6 68.75 112.6L69.25 112.6C69.45 112.6 69.65 112.7 69.65 112.9L69.65 118.9C69.65 119 69.55 119.2 69.25 119.2L68.75 119.2C68.55 119.2 68.35 119.1 68.35 118.9L68.35 112.9L68.35 112.9ZM66.25 112.9C66.25 112.8 66.35 112.6 66.65 112.6L67.15 112.6C67.35 112.6 67.55 112.7 67.55 112.9L67.55 118.9C67.55 119 67.45 119.2 67.15 119.2L66.55 119.2C66.35 119.2 66.15 119.1 66.15 118.9L66.25 112.9L66.25 112.9L66.25 112.9ZM64.15 112.9C64.15 112.8 64.25 112.6 64.55 112.6L65.05 112.6C65.25 112.6 65.45 112.7 65.45 112.9L65.45 118.9C65.45 119 65.35 119.2 65.05 119.2L64.55 119.2C64.35 119.2 64.15 119.1 64.15 118.9C64.15 118.9 64.15 112.9 64.15 112.9L64.15 112.9ZM71.85 107.4L68.65 107.4L68.65 106.8C68.65 106.7 68.55 106.7 68.55 106.7L65.15 106.7C65.05 106.7 64.95 106.8 64.95 106.8L64.95 107.4L61.75 107.4C61.45 107.4 61.25 107.6 61.25 107.9L61.25 109.4L72.25 109.4L72.25 107.9C72.25 107.6 72.05 107.4 71.85 107.4L71.85 107.4Z" id="rubbish-bin_1_" fill="#898989" fill-rule="evenodd" stroke="none" />
    <g id="Group_1_" transform="translate(80.04999 104.899994)">
      <path d="M0 9C0 4.02944 4.02944 0 9 0C13.9706 0 18 4.02944 18 9C18 13.9706 13.9706 18 9 18C4.02944 18 0 13.9706 0 9Z" id="Oval_1_" fill="#E3F0E2" fill-rule="evenodd" stroke="none" />
      <path d="M12.7 6.89999L7.89999 11.7" id="Line-5_1_" fill="none" fill-rule="evenodd" stroke="#88AD85" stroke-width="2" stroke-linecap="square" />
      <path d="M5.79999 9.60001L7.89999 11.7" id="Line-4_1_" fill="none" fill-rule="evenodd" stroke="#88AD85" stroke-width="2" stroke-linecap="square" />
    </g>
    <path d="M115.05 110.8C116.15 109.8 117.75 108.4 117.85 105.1L118.85 105.1L118.85 104.1L105.85 104.1L105.85 105.1L106.85 105.1C106.95 108.4 108.55 109.8 109.65 110.8C110.45 111.5 110.85 111.9 110.85 112.6C110.85 113.3 110.45 113.7 109.65 114.4C108.55 115.4 106.95 116.8 106.85 120.1L105.85 120.1L105.85 121.1L118.85 121.1L118.85 120.1L117.85 120.1C117.75 116.8 116.15 115.4 115.05 114.4C114.25 113.7 113.85 113.3 113.85 112.6C113.85 111.9 114.25 111.5 115.05 110.8L115.05 110.8ZM111.85 116.3C111.65 116.3 111.55 116.4 111.35 116.4L108.25 117.7C108.75 116.4 109.55 115.7 110.25 115.1C111.05 114.4 111.75 113.7 111.75 112.6L111.85 116.3L111.85 116.3L111.85 116.3ZM114.35 115.1C115.05 115.7 115.85 116.5 116.35 117.7L113.25 116.4C113.15 116.3 112.95 116.3 112.75 116.3L112.75 112.6C112.85 113.7 113.55 114.4 114.35 115.1L114.35 115.1ZM108.35 107.4C108.15 106.8 107.95 106 107.85 105.1L116.85 105.1C116.85 106 116.65 106.8 116.35 107.4L108.35 107.4L108.35 107.4Z" id="Page-1_1_" fill="#F5A623" fill-rule="evenodd" stroke="none" />
    <path d="M287.45 86.2C285.95 85 285.05 83.2 285.05 81.3L285.05 78.7C285.05 75.4 282.45 72.6 279.05 72.1L279.05 71.1C279.05 70.6 278.65 70.2 278.05 70.2C277.45 70.2 277.05 70.6 277.05 71.1L277.05 72.1C273.65 72.6 271.05 75.3 271.05 78.7L271.05 81.3C271.05 83.2 270.15 85 268.65 86.2C268.25 86.5 268.05 87 268.05 87.5C268.05 88.4 268.85 89.2 269.75 89.2L286.25 89.2C287.25 89.2 288.05 88.5 288.05 87.5C288.05 87 287.85 86.5 287.45 86.2L287.45 86.2ZM278.05 94.1C280.05 94.1 281.65 92.4 282.05 90.1L274.05 90.1C274.45 92.4 276.05 94.1 278.05 94.1L278.05 94.1Z" id="Cart-_x2F_-Checkout" fill="#FBD69F" fill-rule="evenodd" stroke="none" />
    <path d="M228.45 150.2C226.95 149 226.05 147.2 226.05 145.3L226.05 142.7C226.05 139.4 223.45 136.6 220.05 136.1L220.05 135.1C220.05 134.6 219.65 134.2 219.05 134.2C218.45 134.2 218.05 134.6 218.05 135.1L218.05 136.1C214.65 136.6 212.05 139.3 212.05 142.7L212.05 145.3C212.05 147.2 211.15 149 209.65 150.2C209.25 150.5 209.05 151 209.05 151.5C209.05 152.4 209.85 153.2 210.75 153.2L227.25 153.2C228.25 153.2 229.05 152.5 229.05 151.5C229.05 151 228.85 150.5 228.45 150.2L228.45 150.2ZM219.05 158.1C221.05 158.1 222.65 156.4 223.05 154.1L215.05 154.1C215.45 156.4 217.05 158.1 219.05 158.1L219.05 158.1Z" id="Cart-_x2F_-Checkout_00000038408226917940697680000009957616730848869290_" fill="#D8D8D8" fill-rule="evenodd" stroke="none" />
    <path d="M171.525 62.475L169.025 59.975C168.725 59.675 168.725 59.275 169.025 58.975C169.325 58.675 169.725 58.675 170.025 58.975L173.025 61.975C173.325 62.275 173.325 62.675 173.025 62.875L170.025 65.875C169.725 66.175 169.325 66.175 169.025 65.875C168.725 65.575 168.725 65.175 169.025 64.875" id="Page-1_3_" fill="#2F73C2" fill-rule="evenodd" stroke="none" />
    <path d="M182.75 67C182.55 67 182.45 66.9 182.35 66.8L178.45 62.5C178.15 62.1 178.35 61.5 178.85 61.5L180.95 61.5L180.95 57C180.95 56.5 181.35 56 181.85 56L183.75 56C184.25 56 184.65 56.4 184.65 57L184.65 61.5L186.75 61.5C187.25 61.5 187.45 62.1 187.15 62.5L183.25 66.8C183.05 66.9 182.95 67 182.75 67L182.75 67ZM187.45 70L178.05 70C177.65 70 177.25 69.6 177.25 69.1L177.25 68.9C177.25 68.4 177.65 68 178.05 68L187.45 68C187.85 68 188.25 68.4 188.25 68.9L188.25 69.1C188.25 69.6 187.85 70 187.45 70L187.45 70Z" id="Page-1_4_" fill="#2F73C2" fill-rule="evenodd" stroke="none" />
    <path d="M201.45 57C197.85 57 194.95 59.925 194.95 63.5C194.95 67.075 197.85 70 201.45 70C205.05 70 207.95 67.075 207.95 63.5C207.95 59.925 205.05 57 201.45 57L201.45 57ZM202.85 67.075C202.55 67.1833 202.25 67.2917 202.05 67.4C201.85 67.5083 201.65 67.5083 201.35 67.5083C200.95 67.5083 200.65 67.4 200.45 67.1833C200.25 66.9667 200.15 66.75 200.15 66.425C200.15 66.3167 200.15 66.2083 200.15 66.1C200.15 65.9917 200.15 65.8833 200.25 65.6667L200.65 64.15C200.65 64.0417 200.75 63.825 200.75 63.7167C200.75 63.6083 200.75 63.5 200.75 63.3917C200.75 63.175 200.75 63.0667 200.65 62.9583C200.55 62.85 200.45 62.85 200.25 62.85C200.15 62.85 200.05 62.85 199.95 62.85C199.85 62.85 199.75 62.9583 199.65 62.9583L199.75 62.525C200.05 62.4167 200.25 62.3083 200.55 62.2C200.85 62.0917 201.05 62.0917 201.25 62.0917C201.65 62.0917 201.95 62.2 202.15 62.4167C202.35 62.6333 202.45 62.85 202.45 63.175C202.45 63.2833 202.45 63.3917 202.45 63.5C202.45 63.6083 202.45 63.825 202.35 63.9333L201.95 65.45C201.95 65.5583 201.85 65.6667 201.85 65.8833C201.85 65.9917 201.85 66.1 201.85 66.2083C201.85 66.425 201.85 66.5333 201.95 66.6417C202.05 66.75 202.15 66.75 202.45 66.75C202.55 66.75 202.65 66.75 202.75 66.75C202.85 66.75 202.95 66.6417 203.05 66.6417L202.85 67.075L202.85 67.075ZM202.75 61.1167C202.55 61.3333 202.35 61.3333 202.05 61.3333C201.75 61.3333 201.55 61.225 201.35 61.1167C201.15 60.9 201.05 60.6833 201.05 60.4667C201.05 60.25 201.15 60.0333 201.35 59.8167C201.55 59.6 201.75 59.4917 202.05 59.4917C202.35 59.4917 202.55 59.6 202.75 59.8167C202.95 60.0333 203.05 60.25 203.05 60.4667C203.05 60.6833 202.95 60.9 202.75 61.1167L202.75 61.1167Z" id="Page-1_5_" fill="#3F763B" fill-rule="evenodd" stroke="none" />
    <path d="M211.55 105.1C211.55 105 211.55 105 211.55 104.9L211.55 104.9L211.55 104.9C211.55 104.8 211.45 104.8 211.45 104.7L211.45 104.7L211.35 104.6L211.35 104.6C211.35 104.6 211.25 104.5 211.15 104.5L211.15 104.5C211.05 104.5 211.05 104.5 210.95 104.5L205.95 104.5C205.55 104.5 205.25 104.8 205.25 105.2C205.25 105.6 205.55 105.9 205.95 105.9L209.15 105.9L204.95 110.1C203.85 109.2 202.45 108.7 200.95 108.7C197.45 108.7 194.55 111.6 194.55 115.1C194.55 118.6 197.45 121.5 200.95 121.5C204.45 121.5 207.35 118.6 207.35 115.1C207.35 113.6 206.85 112.2 205.95 111.1L210.15 106.9L210.15 110.1C210.15 110.5 210.45 110.8 210.85 110.8C211.25 110.8 211.55 110.5 211.55 110.1L211.55 105.1C211.55 105.2 211.55 105.2 211.55 105.1L211.55 105.1L211.55 105.1ZM200.85 120.1C198.15 120.1 195.85 117.9 195.85 115.1C195.85 112.3 198.05 110.1 200.85 110.1C202.15 110.1 203.45 110.6 204.35 111.5C205.25 112.4 205.85 113.7 205.85 115C205.85 117.9 203.65 120.1 200.85 120.1L200.85 120.1Z" id="Page-1_6_" fill="#232A37" fill-rule="evenodd" stroke="none" />
    <path d="M230.05 111.3C230.05 107.2 226.95 103.9 223.05 103.9C219.15 103.9 216.05 107.2 216.05 111.3C216.05 115.1 218.75 118.2 222.25 118.7L222.25 120.5L220.65 120.5C220.15 120.5 219.85 120.9 219.85 121.4C219.85 121.9 220.25 122.3 220.65 122.3L222.25 122.3L222.25 124.1C222.25 124.6 222.65 125 223.05 125C223.45 125 223.85 124.6 223.85 124.1L223.85 122.3L225.45 122.3C225.95 122.3 226.25 121.9 226.25 121.4C226.25 120.9 225.85 120.5 225.45 120.5L223.85 120.5L223.85 118.7C227.35 118.3 230.05 115.1 230.05 111.3L230.05 111.3ZM217.65 111.3C217.65 108.2 220.05 105.6 223.05 105.6C226.05 105.6 228.45 108.2 228.45 111.3C228.45 114.4 226.05 117 223.05 117C220.05 117 217.65 114.5 217.65 111.3L217.65 111.3Z" id="Page-1_7_" fill="#4A4A4A" fill-rule="evenodd" stroke="none" />
    <path d="M255.95 103.9L251.55 103.5L251.45 104.8L253.85 105L249.75 109C248.65 108.1 247.25 107.6 245.75 107.6C244.25 107.6 242.85 108.1 241.75 109L240.55 107.8L241.65 106.7L240.75 105.8L239.65 106.9L237.75 105L239.95 104.8L239.85 103.5L235.75 103.8L235.45 107.9L236.75 108L236.95 105.8L238.85 107.7L237.75 108.8L238.65 109.7L239.75 108.6L240.95 109.8C240.05 110.9 239.55 112.3 239.55 113.8C239.55 115.5 240.25 117.1 241.45 118.3C242.55 119.3 243.85 120 245.35 120.1L245.35 122.4L243.55 122.4L243.55 123.7L245.35 123.7L245.35 125.4L246.65 125.4L246.65 123.7L248.45 123.7L248.45 122.4L246.65 122.4L246.65 120.1C248.15 120 249.45 119.3 250.55 118.3C252.85 116 253.05 112.3 250.95 109.8L255.05 105.8L255.25 108.2L256.55 108.1L255.95 103.9L255.95 103.9ZM249.45 117.5C248.45 118.5 247.25 119 245.85 119C244.45 119 243.25 118.5 242.25 117.5C240.25 115.5 240.25 112.3 242.25 110.4C243.25 109.4 244.45 108.9 245.85 108.9C247.25 108.9 248.45 109.4 249.45 110.4C251.45 112.3 251.45 115.5 249.45 117.5L249.45 117.5Z" id="Page-1_8_" fill="#232A37" fill-rule="evenodd" stroke="none" />
    <path d="M274.903 109.3C276.203 107.8 276.403 105.9 276.503 105.8C276.503 105.7 276.503 105.6 276.403 105.5C276.303 105.4 276.203 105.4 276.103 105.4C276.003 105.4 274.003 105.6 272.603 107C272.403 106.5 272.103 106 271.703 105.5C271.603 105.4 271.603 105.4 271.503 105.4C271.403 105.4 271.303 105.4 271.303 105.5L270.803 106C270.003 106.8 269.603 108 269.803 109.2C268.603 108.9 267.303 109.3 266.403 110.1L266.403 110.1L266.403 110.1C265.703 110.7 266.203 110.3 259.803 120.2C259.403 120.8 259.503 121.6 260.003 122.1C260.503 122.6 261.303 122.7 261.903 122.3C271.603 116.1 271.203 116.3 271.303 116.3C271.803 115.9 272.303 115.5 272.503 115C272.903 114.2 273.103 113.2 272.903 112.3C273.103 112.3 273.303 112.3 273.503 112.3C274.503 112.3 275.403 111.9 276.103 111.2L276.603 110.7C276.703 110.6 276.703 110.4 276.603 110.2C276.003 109.8 275.503 109.5 274.903 109.3L274.903 109.3ZM275.803 106.1C275.703 106.8 275.303 108 274.303 109C273.703 109.6 272.903 110 272.103 110.3L273.603 108.8C273.703 108.7 273.703 108.5 273.603 108.3C273.503 108.2 273.303 108.2 273.103 108.3L271.603 109.8C271.903 109 272.303 108.2 272.903 107.6C273.803 106.7 275.103 106.3 275.803 106.1L275.803 106.1L275.803 106.1ZM271.203 106.4L271.403 106.2C271.703 106.6 271.903 107 272.003 107.5C271.403 108.2 271.103 108.9 270.903 109.6C270.703 109.5 270.603 109.4 270.403 109.3C270.203 108.3 270.503 107.2 271.203 106.4L271.203 106.4ZM271.803 114.6C271.603 115 271.303 115.4 270.803 115.7L270.703 115.8L269.403 114.5C269.303 114.4 269.103 114.4 268.903 114.5C268.803 114.6 268.803 114.8 268.903 115L270.103 116.2L267.203 118L266.003 116.8C265.903 116.7 265.703 116.7 265.503 116.8C265.403 116.9 265.403 117.1 265.503 117.3L266.603 118.4L263.703 120.2L262.703 119.2C262.603 119.1 262.403 119.1 262.203 119.2C262.103 119.3 262.103 119.5 262.203 119.7L263.103 120.6L261.403 121.7C261.103 121.9 260.603 121.9 260.303 121.6C260.003 121.3 260.003 120.9 260.203 120.5L262.403 117L263.103 117.7C263.203 117.8 263.403 117.8 263.603 117.7C263.703 117.6 263.703 117.4 263.603 117.2L262.703 116.3L264.503 113.4L265.903 114.8C266.003 114.9 266.203 114.9 266.403 114.8C266.503 114.7 266.503 114.5 266.403 114.3L264.903 112.8L266.203 110.8C266.303 110.7 266.303 110.6 266.403 110.5L267.803 111.9C267.903 112 268.103 112 268.303 111.9C268.403 111.8 268.403 111.6 268.303 111.4L266.903 110C268.103 109.2 269.903 109.2 271.103 110.4C272.303 111.7 272.503 113.3 271.803 114.6L271.803 114.6ZM275.503 110.7C274.703 111.5 273.603 111.8 272.603 111.5C272.503 111.3 272.403 111.2 272.303 111C272.903 110.8 273.703 110.5 274.403 109.9C274.903 110 275.303 110.2 275.703 110.5L275.503 110.7L275.503 110.7Z" id="Page-1_9_" fill="#000000" fill-rule="evenodd" stroke="none" />
    <path d="M15.8002 138.649C13.9002 136.749 11.0002 136.649 9.1002 138.049C8.2002 138.749 7.5002 139.649 7.2002 140.749C7.1002 141.049 7.0002 141.349 7.0002 141.649C6.6002 143.349 6.3002 144.249 5.0002 145.649L4.4002 146.249L5.2002 147.049L3.7002 148.549C3.4002 148.349 3.0002 148.149 2.6002 148.149C1.3002 148.149 0.200196 149.449 0.500196 150.749C0.600196 151.449 1.1002 151.949 1.8002 152.149C2.1002 152.249 2.3002 152.449 2.4002 152.749C2.5002 153.049 2.6002 153.249 2.9002 153.449C3.7002 154.249 5.0002 154.149 5.9002 153.349C6.6002 152.549 6.7002 151.449 6.1002 150.749L7.6002 149.249L8.4002 150.049L8.9002 149.549C10.5002 147.949 11.5002 147.849 13.9002 147.149C15.6002 146.649 16.9002 145.349 17.4002 143.649C17.7002 141.849 17.2002 139.949 15.8002 138.649L15.8002 138.649ZM6.70019 148.549L4.50019 150.749L5.00019 151.049C5.30019 151.249 5.30019 151.549 5.30019 151.749C5.40019 152.449 4.80019 153.049 4.10019 153.049C3.70019 153.049 3.30019 152.749 3.20019 152.449C3.00019 151.849 2.60019 151.449 2.00019 151.249C1.70019 151.149 1.50019 150.949 1.40019 150.549C1.30019 150.149 1.50019 149.749 1.80019 149.449C2.20019 149.049 3.00019 148.949 3.30019 149.449L3.60019 149.949L5.80019 147.749C6.20019 148.049 6.40019 148.249 6.70019 148.549L6.70019 148.549ZM13.5002 146.249C11.2002 146.849 10.0002 147.049 8.3002 148.649C8.0002 148.349 6.0002 146.349 5.8002 146.149C7.5002 144.349 7.6002 143.249 8.2002 140.949C8.7002 139.149 10.3002 137.949 12.1002 137.949C13.2002 137.949 14.3002 138.449 15.1002 139.249C17.4002 141.649 16.4002 145.449 13.5002 146.249L13.5002 146.249Z" id="Page-1_10_" fill="#232A37" fill-rule="evenodd" stroke="none" />
    <path d="M33.65 140.1C33.55 139.9 33.35 139.9 33.15 139.9L23.55 139.9C23.35 139.9 23.25 140 23.05 140.1C22.95 140.3 22.85 140.4 22.85 140.6C22.85 140.8 22.95 141 23.05 141.1L27.85 146.5C27.95 146.7 28.15 146.7 28.35 146.7C28.55 146.7 28.65 146.6 28.85 146.5L33.65 141.1C33.75 140.9 33.85 140.8 33.85 140.6C33.85 140.4 33.75 140.2 33.65 140.1L33.65 140.1Z" id="Page-1_11_" fill="#373737" fill-rule="evenodd" stroke="none" />
    <path d="M45.15 139.024L55.75 136.024L55.15 134.824C54.75 134.024 53.85 133.724 53.15 134.124L43.75 138.924L45.15 139.024L45.15 139.024L45.15 139.024ZM59.75 136.024C59.65 136.024 59.45 136.024 59.35 136.124L56.75 136.824L48.75 139.024L57.85 139.024L61.75 139.024L61.25 137.224C61.05 136.524 60.45 136.024 59.75 136.024L59.75 136.024ZM63.25 140.024L62.85 140.024L62.35 140.024L61.85 140.024L58.15 140.024L44.75 140.024L42.95 140.024L41.45 140.024L41.15 140.024L40.25 140.024C39.75 140.024 39.35 140.224 39.05 140.624C38.95 140.824 38.85 140.924 38.75 141.224C38.75 141.324 38.65 141.524 38.65 141.624L38.65 141.824L38.65 143.524L38.65 158.524C38.65 159.324 39.35 160.024 40.15 160.024L63.05 160.024C63.95 160.024 64.55 159.324 64.55 158.524L64.55 154.324L55.35 154.324C53.85 154.324 52.75 153.124 52.75 151.724L52.75 150.324L52.75 149.824L52.75 149.324L52.75 148.324C52.75 147.624 53.05 147.024 53.45 146.524C53.85 146.124 54.45 145.824 55.05 145.724C55.15 145.724 55.25 145.724 55.35 145.724L63.25 145.724L63.75 145.724L64.25 145.724L64.55 145.724L64.55 141.524C64.75 140.724 64.05 140.024 63.25 140.024L63.25 140.024Z" id="Page-1_12_" fill="#232A37" fill-rule="evenodd" stroke="none" />
    <g id="Page-1_13_" transform="translate(69.25 137.9)">
      <g id="plus">
        <path d="M12.5 0C5.6 0 0 5.60001 0 12.5C0 19.4 5.6 25 12.5 25C19.4 25 25 19.4 25 12.5C25 5.60001 19.4 0 12.5 0L12.5 0Z" id="Path_11_" fill="#DBDCDE" fill-rule="evenodd" stroke="none" />
        <path d="M13.5 13.5L13.5 17.9C13.5 18.5 13 18.9 12.5 18.9C11.9 18.9 11.5 18.4 11.5 17.9L11.5 13.5L7.10001 13.5C6.50001 13.5 6.10001 13 6.10001 12.5C6.10001 12 6.60001 11.5 7.10001 11.5L11.5 11.5L11.5 7.10001C11.5 6.5 12 6.10001 12.5 6.10001C13.1 6.10001 13.5 6.60001 13.5 7.10001L13.5 11.5L17.9 11.5C18.5 11.5 18.9 12 18.9 12.5C18.9 13 18.4 13.5 17.9 13.5L13.5 13.5L13.5 13.5Z" id="Path_10_" fill="#FAFAFA" fill-rule="evenodd" stroke="none" />
      </g>
    </g>
    <g id="Page-1_14_" transform="translate(97.149994 137.9)">
      <g id="negative">
        <path d="M0 12.5C0 5.59644 5.59644 0 12.5 0C19.4036 0 25 5.59644 25 12.5C25 19.4036 19.4036 25 12.5 25C5.59644 25 0 19.4036 0 12.5Z" id="Oval_2_" fill="#DBDCDE" fill-rule="evenodd" stroke="none" />
        <path d="M6 11L20 11L20 14L6 14L6 11Z" id="Rectangle_1_" fill="#FFFFFF" fill-rule="evenodd" stroke="none" />
      </g>
    </g>
    <path d="M2.8 0L1 0C0.600004 0 0.300004 0.2 0.200004 0.5C0.100004 0.8 3.73274e-06 1.2 0.200004 1.5C0.400004 1.8 0.800004 2 1 2L2.1 2L5.4 9.9L4.2 11.8C3.3 13.2 4.4 15 5.9 15L17 15C17.4 15 17.7 14.8 17.9 14.5C18.1 14.2 18.1 13.8 17.9 13.5C17.8 13.2 17.5 13 17 13L5.9 13C5.8 13 5.8 13 5.8 12.9L5.8 12.9L7.2 11L14.7 11C15.4 11 16.1 10.6 16.4 10L20 3.5C20.2 2.8 19.9 2 19 2L4.3 2L3.8 0.6C3.5 0.2 3.2 0 2.8 0L2.8 0ZM6.10001 16C5.00001 16 4.10001 16.9 4.10001 18C4.10001 19.1 5.00001 20 6.10001 20C7.20001 20 8.10001 19.1 8.10001 18C8.10001 16.9 7.20001 16 6.10001 16L6.10001 16ZM16 16C14.9 16 14 16.9 14 18C14 19.1 14.9 20 16 20C17.1 20 18 19.1 18 18C18 16.9 17.1 16 16 16L16 16Z" id="Symbols" fill="#FFFFFF" fill-rule="evenodd" stroke="none" />
    <path d="M129.325 149.175L126.425 146.275C126.125 145.975 125.625 145.975 125.325 146.275L125.325 146.275C125.025 146.575 125.025 147.075 125.325 147.375L128.825 150.875C129.125 151.175 129.625 151.175 129.925 150.875L133.425 147.375C133.725 147.075 133.725 146.575 133.425 146.275L133.425 146.275C133.125 145.975 132.625 145.975 132.325 146.275L129.325 149.175L129.325 149.175Z" id="Group_00000030446557809348216730000005643225960417443214_" fill="#898989" fill-rule="evenodd" stroke="none" />
    <g id="Group_00000173143752441239484920000001675244340514545032_" transform="translate(0.05000305 248.4)">
      <path d="M0 10C0 4.47715 4.47715 0 10 0C15.5228 0 20 4.47715 20 10C20 15.5228 15.5228 20 10 20C4.47715 20 0 15.5228 0 10Z" id="Oval_00000152247571149901050330000017235526197455860632_" fill="#3F763B" fill-rule="evenodd" stroke="none" />
      <path d="M14.1 7.60001L8.89999 13" id="Line-5_00000041295858985143523880000017285945202783171463_" fill="none" fill-rule="evenodd" stroke="#FFFFFF" stroke-width="2" stroke-linecap="square" />
      <path d="M6.5 10.6L8.9 13" id="Line-4_00000070108341018760334570000016297727764038619282_" fill="none" fill-rule="evenodd" stroke="#FFFFFF" stroke-width="2" stroke-linecap="square" />
    </g>
    <path d="M159.406 114.223C159.006 113.523 156.606 109.723 152.606 109.923C148.906 110.023 146.806 113.223 146.206 114.223C146.106 114.423 146.106 114.723 146.206 114.923C146.606 115.623 148.906 119.223 152.806 119.223L153.006 119.223C156.706 119.123 158.806 115.923 159.406 114.923C159.606 114.723 159.606 114.423 159.406 114.223L159.406 114.223ZM153.006 117.923C150.106 118.023 148.306 115.523 147.706 114.623C148.406 113.523 150.106 111.323 152.806 111.323C155.706 111.223 157.506 113.723 158.106 114.623C157.406 115.623 155.706 117.823 153.006 117.923L153.006 117.923ZM152.906 112.223C151.606 112.223 150.606 113.223 150.606 114.523C150.606 115.823 151.606 116.823 152.906 116.823C154.206 116.823 155.206 115.823 155.206 114.523C155.206 113.223 154.206 112.223 152.906 112.223L152.906 112.223ZM152.906 115.623C152.306 115.623 151.906 115.223 151.906 114.623C151.906 114.023 152.306 113.623 152.906 113.623C153.506 113.623 153.906 114.023 153.906 114.623C153.906 115.223 153.406 115.623 152.906 115.623L152.906 115.623Z" id="Log-in-_x2F_-Register_00000040569844121110272430000015884934157524345473_" fill="#2F73C2" fill-rule="evenodd" stroke="none" />
    <g id="Log-in-_x2F_-Register_00000102515718965510461960000008247690630112734368_" transform="translate(164.0307 109.91525)">
      <g id="Group-4_00000061463288034986970540000004202286394850806205_">
        <path d="M13.275 4.30762C12.875 3.60761 10.475 -0.192383 6.47499 0.00761414C2.77499 0.107613 0.674988 3.30762 0.0749969 4.30762C-0.0250092 4.50761 -0.0250092 4.80762 0.0749969 5.00761C0.474991 5.70761 2.77499 9.30762 6.67499 9.30762L6.87498 9.30762C10.575 9.20761 12.675 6.00761 13.275 5.00761C13.375 4.80762 13.375 4.50761 13.275 4.30762L13.275 4.30762ZM6.875 8.00761C3.97501 8.1076 2.175 5.6076 1.57501 4.7076C2.27501 3.6076 3.97501 1.40761 6.675 1.40761C9.57501 1.30761 11.375 3.80761 11.975 4.7076C11.275 5.7076 9.57501 7.90761 6.875 8.00761L6.875 8.00761Z" id="Shape_00000164492053491648114300000009351879054373856129_" fill="#2F73C2" fill-rule="evenodd" stroke="none" />
        <path d="M6.675 2.30762C5.375 2.30762 4.375 3.30762 4.375 4.60761C4.375 5.90762 5.375 6.90762 6.675 6.90762C7.97501 6.90762 8.97501 5.90762 8.97501 4.60761C8.97501 3.30762 7.97501 2.30762 6.675 2.30762L6.675 2.30762ZM6.67499 5.70761C6.075 5.70761 5.67499 5.30762 5.67499 4.70761C5.67499 4.10761 6.075 3.70761 6.67499 3.70761C7.27499 3.70761 7.67499 4.10761 7.67499 4.70761C7.67499 5.30762 7.27499 5.70761 6.67499 5.70761L6.67499 5.70761Z" id="Shape_00000011721353410216038550000005947401211075401914_" fill="#2F73C2" fill-rule="evenodd" stroke="none" />
        <path d="M2.17499 0.207611L11.375 9.40761" id="Line-2" fill="none" fill-rule="evenodd" stroke="#2F73C2" stroke-width="1" stroke-linecap="square" />
      </g>
    </g>
    <path d="M121.4 113.1C121.4 107.577 125.877 103.1 131.4 103.1C136.923 103.1 141.4 107.577 141.4 113.1C141.4 118.623 136.923 123.1 131.4 123.1C125.877 123.1 121.4 118.623 121.4 113.1Z" id="Oval_00000044879697934247168030000008765278150986374077_" fill="#D0021B" fill-opacity="0.1" fill-rule="evenodd" stroke="none" />
    <path d="M131.05 108.1C130.95 108.2 130.85 108.3 130.75 108.4L130.65 108.6L130.65 111.4C130.65 113.4 130.65 114.3 130.65 114.4C130.75 114.6 130.95 114.8 131.05 114.9C131.25 115 131.55 115 131.75 114.9C131.95 114.8 132.15 114.6 132.15 114.4C132.15 114.3 132.15 113.4 132.15 111.4L132.15 108.6L132.05 108.4C131.85 108.2 131.65 108 131.35 108C131.25 108 131.15 108 131.05 108.1L131.05 108.1ZM131.05 116C130.85 116.1 130.55 116.3 130.45 116.6C130.35 116.7 130.35 116.8 130.35 117.1C130.35 117.4 130.35 117.4 130.45 117.6C130.75 118.1 131.25 118.3 131.75 118.1C132.05 118 132.15 117.8 132.35 117.6C132.45 117.4 132.45 117.3 132.45 117.1C132.45 116.9 132.45 116.8 132.35 116.6C132.15 116.1 131.55 115.8 131.05 116L131.05 116Z" id="Group_00000111160415430262631490000001883055322662303901_" fill="#E2574C" fill-rule="evenodd" stroke="none" />
    <path d="M150.32 148.372L150.32 145.972L146.22 145.972L146.22 141.872L143.82 141.872L143.82 145.972L139.72 145.972L139.72 148.372L143.82 148.372L143.82 152.472L146.22 152.472L146.22 148.372L150.32 148.372ZM150.32 148.372L150.32 145.972L146.22 145.972L146.22 141.872L143.82 141.872L143.82 145.972L139.72 145.972L139.72 148.372L143.82 148.372L143.82 152.472L146.22 152.472L146.22 148.372L150.32 148.372Z" id="_x2B_" fill="#373737" fill-rule="evenodd" stroke="none" />
    <path d="M166.104 147.832L166.104 145.432L159.904 145.432L159.904 147.832L166.104 147.832ZM166.104 147.832L166.104 145.432L159.904 145.432L159.904 147.832L166.104 147.832Z" id="_x2D_" fill="#373737" fill-rule="evenodd" stroke="none" />
    <path d="M174.8 140L174.1 140.6L171 140.6L171 141.8L181 141.8L181 140.6L177.9 140.6L177.2 140L174.8 140L174.8 140ZM171.6 143L171.6 150.8C171.6 151.5 172.2 152 172.8 152L179 152C179.7 152 180.2 151.5 180.2 150.8L180.2 143L171.6 143L171.6 143ZM173.5 144.2L174.7 144.2L174.7 150.8L173.5 150.8L173.5 144.2L173.5 144.2ZM177.2 144.2L178.4 144.2L178.4 150.8L177.2 150.8L177.2 144.2L177.2 144.2Z" id="icons_x2F_action_x2F_bin" fill="#979797" fill-rule="evenodd" stroke="none" />
    <path d="M195.7 141C195.5 141 195.3 141.1 195.2 141.2L195.1 141.3C194.8 141.6 194.8 142.1 195.1 142.4L198.2 145.3L187.8 145.3C187.4 145.2 187 145.6 187 146C187 146.4 187.4 146.8 187.8 146.8L198.2 146.8L195.1 149.7C194.8 150 194.8 150.5 195.1 150.8L195.2 150.9C195.5 151.2 196 151.2 196.3 150.9L200.8 146.7C201.1 146.4 201.1 145.9 200.8 145.6L196.3 141.2C196.1 141.1 195.9 141 195.7 141L195.7 141Z" id="icons8-right-copy" fill="#373737" fill-rule="evenodd" stroke="none" />
    <g id="Group-36" transform="translate(235 133)">
      <path d="M0 0L24 0L24 24L0 24L0 0Z" id="Rectangle_00000172432710637265028900000005478564937623441300_" fill="none" fill-rule="evenodd" stroke="none" />
      <path d="M12 4C8.7 4 6 6.5 6 9.60001C6 13.8 12 20 12 20C12 20 18 13.8 18 9.60001C18 6.5 15.3 4 12 4L12 4L12 4ZM12 12C10.5 12 9.29999 10.9 9.29999 9.5C9.29999 8.10001 10.5 7 12 7C13.5 7 14.7 8.10001 14.7 9.5C14.7 10.9 13.5 12 12 12L12 12L12 12Z" id="Group-18-Copy" fill="#FF9A00" fill-rule="evenodd" stroke="none" />
    </g>
    <g id="Group-40" transform="translate(259 134)">
      <path d="M0 0L20 0L20 20L0 20L0 0Z" id="Rectangle_00000062160801059550620510000009096471714302107527_" fill="none" fill-rule="evenodd" stroke="none" />
      <path d="M13.1 1C13.3 1 13.4 1 13.5 1.10001C13.6 1.2 13.8 1.3 13.9 1.5L13.9 1.5L15 3.7L17.5 4.2C18 4.3 18.3 4.7 18.2 5.2L18.2 5.2L17.9 7.60001L19.6 9.39999C19.9 9.8 19.9 10.3 19.6 10.6L19.6 10.6L17.9 12.4L18.2 14.9C18.3 15.4 17.9 15.8 17.5 15.9L17.5 15.9L15 16.3L13.8 18.5C13.6 18.8 13.3 19 13 19C12.9 19 12.7 19 12.6 18.9L12.6 18.9L10.4 17.8L10.4 17.8L8.10001 18.9C7.70001 19.1 7.10001 18.9 6.89999 18.5L6.89999 18.5L5.70001 16.3L3.20001 15.8C2.70001 15.7 2.39999 15.3 2.5 14.8L2.5 14.8L3 12.4L1.20001 10.6C0.899994 10.2 0.899994 9.7 1.20001 9.39999L1.20001 9.39999L3 7.60001L2.60001 5.10001C2.5 4.60001 2.89999 4.2 3.29999 4.10001L3.29999 4.10001L5.70001 3.7L7 1.5C7.20001 1 7.79999 0.899994 8.20001 1.10001L8.20001 1.10001L10.4 2.2L12.6 1.10001C12.8 1 12.9 1 13.1 1L13.1 1ZM12.7 3.10001L10.8 4C10.6 4.10001 10.3 4.10001 10 4L10 4L8.20001 3.10001L7.20001 4.89999C7.10001 5.10001 6.79999 5.3 6.60001 5.39999L6.60001 5.39999L4.60001 5.8L4.89999 7.8C4.89999 8.10001 4.79999 8.39999 4.70001 8.60001L4.70001 8.60001L3.10001 10L4.5 11.5C4.70001 11.7 4.79999 12 4.70001 12.3L4.70001 12.3L4.39999 14.3L6.39999 14.7C6.70001 14.7 6.89999 14.9 7 15.2L7 15.2L8 17L10 16C10.1 15.9 10.3 15.9 10.4 15.9C10.5 15.9 10.7 15.9 10.8 16L10.8 16L12.6 16.9L13.6 15.1C13.7 14.9 14 14.7 14.2 14.6L14.2 14.6L16.2 14.2L15.9 12.2C15.9 11.9 15.9 11.6 16.1 11.4L16.1 11.4L16.4 11.1L17.7 10L16.3 8.5C16.1 8.3 16 8 16 7.8L16 7.8L16.3 5.8L14.3 5.39999C14 5.39999 13.8 5.2 13.7 4.89999L13.7 4.89999L12.7 3.10001L12.7 3.10001ZM12.6 6L13.7 6.8L8.20001 14L7.10001 13.2L12.6 6L12.6 6ZM12.7 10.9C13.4 10.9 14.1 11.5 14.1 12.3C14.1 13 13.5 13.7 12.7 13.7C12 13.7 11.3 13.1 11.3 12.3C11.3 11.5 11.9 10.9 12.7 10.9L12.7 10.9ZM8.20001 6.39999C8.89999 6.39999 9.60001 7 9.60001 7.8C9.60001 8.60001 8.89999 9.10001 8.20001 9.10001C7.5 9.10001 6.79999 8.5 6.79999 7.7C6.79999 6.89999 7.39999 6.39999 8.20001 6.39999L8.20001 6.39999Z" id="icons8-discount-copy-2" fill="#727272" fill-rule="evenodd" stroke="none" />
    </g>
    <g id="Accounts-page" transform="translate(296 0)">
      <g id="My-Account_x2C_-Order-details_x2C_-Payment-Due-Mobile">
        <g id="Group-38">
          <g id="Group-3-Copy">
            <path d="M0 18C0 8.05887 8.05887 0 18 0C27.9411 0 36 8.05887 36 18C36 27.9411 27.9411 36 18 36C8.05887 36 0 27.9411 0 18Z" id="Oval_00000113324101790911694950000004285654769533388966_" fill="#D0021B" fill-opacity="0.09411765" fill-rule="evenodd" stroke="none" />
            <path d="M18 8C12.5 8 8 12.5 8 18C8 23.5 12.5 28 18 28C23.5 28 28 23.5 28 18C28 12.5 23.6 8 18 8L18 8ZM18 26.1C13.5 26.1 9.89999 22.5 9.89999 18C9.89999 13.5 13.5 9.89999 18 9.89999C22.5 9.89999 26.1 13.5 26.1 18C26.1 22.5 22.5 26.1 18 26.1L18 26.1ZM18 12.4C17.3 12.4 16.7 12.8 16.7 13.4L16.7 18.9C16.7 19.5 17.2 19.9 18 19.9C18.7 19.9 19.3 19.5 19.3 18.9L19.3 13.4C19.3 12.8 18.7 12.4 18 12.4L18 12.4ZM18 21.1C17.3 21.1 16.8 21.7 16.8 22.3C16.8 23 17.4 23.5 18 23.5C18.7 23.5 19.2 22.9 19.2 22.3C19.3 21.7 18.7 21.1 18 21.1L18 21.1Z" id="exclamation-mark-_x28_1_x29_" fill="#E2574C" fill-rule="evenodd" stroke="none" />
          </g>
        </g>
      </g>
    </g>
    <path d="M305.2 40L325.2 40L325.2 60L305.2 60L305.2 40Z" id="Symbols_00000178899083474763179970000013245545528866261426_" fill="none" fill-rule="evenodd" stroke="none" />
    <g id="Group-33" transform="translate(331 37.5)">
      <path d="M0 0L16 0L16 16L0 16L0 0Z" id="Rectangle_00000094617575087934357070000014726353192793675419_" fill="none" fill-rule="evenodd" stroke="none" />
      <path d="M10.4 9.8L10.2 9.6C11 8.7 11.5 7.5 11.5 6.2C11.5 3.3 9.20001 1 6.29999 1C3.39999 1 1.09998 3.3 1.09998 6.2C1.09998 9.1 3.39996 11.4 6.29999 11.4C7.59998 11.4 8.79999 10.9 9.69998 10.1L9.89999 10.3L9.89999 10.9L13.9 14.9L15.1 13.7L11.1 9.7L10.4 9.7L10.4 9.8L10.4 9.8ZM6.20004 9.8C4.20004 9.8 2.60004 8.2 2.60004 6.2C2.60004 4.2 4.20004 2.60001 6.20004 2.60001C8.20004 2.60001 9.80005 4.2 9.80005 6.2C9.80002 8.2 8.20004 9.8 6.20004 9.8L6.20004 9.8L6.20004 9.8Z" id="Icon-Copy_00000160156874029199388820000002374679939888179844_" fill="#373737" fill-rule="evenodd" stroke="none" />
    </g>
    <path d="M344 116.8L337 116.8C336.4 116.8 335.8 117.3 335.8 118L335.8 126.2L337 126.2L337 118L344 118L344 116.8L344 116.8L344 116.8ZM345.7 119.1L339.3 119.1C338.7 119.1 338.1 119.6 338.1 120.3L338.1 128.5C338.1 129.1 338.6 129.7 339.3 129.7L345.7 129.7C346.3 129.7 346.9 129.2 346.9 128.5L346.9 120.3C346.9 119.6 346.4 119.1 345.7 119.1L345.7 119.1L345.7 119.1ZM345.7 128.4L339.3 128.4L339.3 120.2L345.7 120.2L345.7 128.4L345.7 128.4L345.7 128.4Z" id="Icon_00000116941659794642488530000013023116066505252004_" fill="#2F73C2" fill-rule="evenodd" stroke="none" />
    <g id="Group-2" transform="translate(50 245)">
      <path d="M16.5 0C7.3873 0 0 7.3873 0 16.5C0 25.6127 7.3873 33 16.5 33C25.6127 33 33 25.6127 33 16.5C33 7.3873 25.6127 0 16.5 0ZM16.5 2.5C8.76801 2.5 2.5 8.76801 2.5 16.5C2.5 24.232 8.76801 30.5 16.5 30.5C24.232 30.5 30.5 24.232 30.5 16.5C30.5 8.76801 24.232 2.5 16.5 2.5Z" id="Oval-Subtract" fill="#FFFFFF" fill-rule="evenodd" stroke="none" />
      <path d="M22.1667 16.5L12.8333 23.5L12.8333 9.50001L22.1667 16.5Z" id="Triangle" fill="#FFFFFF" fill-rule="evenodd" stroke="none" />
    </g>
    <path d="M309.333 142.111L306.667 142.111L306.667 137L302.667 137L302.667 142.111L300 142.111L304.667 148.074L309.333 142.111L309.333 142.111L309.333 142.111ZM300 149.778L300 151.481L309.333 151.481L309.333 149.778L300 149.778L300 149.778L300 149.778Z" id="Icon" fill="#727272" fill-rule="evenodd" stroke="none" />
    <g id="google-playstore" transform="translate(112 254)">
      <path d="M0.317853 0.275409C0.0943155 0.546131 -0.018507 0.893088 0.00248623 1.24524L0.00248623 16.5089C-0.0185299 16.8609 0.0943022 17.2077 0.317853 17.4782L0.366823 17.5278L8.81659 8.97667L8.81659 8.77497L0.368292 0.225357L0.317853 0.275409L0.317853 0.275409Z" id="Path-Copy" fill="#40BFF2" fill-rule="evenodd" stroke="none" />
      <path d="M11.698 11.7925L8.81806 8.87656L0.317853 17.4787C0.63224 17.8152 1.15034 17.8573 1.73553 17.5213L11.6985 11.7925" id="Path-Copy-3" fill="url(#gradient_1)" fill-rule="evenodd" stroke="none" />
      <path d="M11.6343 11.8297L8.81806 8.97815L8.81806 8.77645L11.6353 5.92543L11.6985 5.9621L15.0353 7.88095C15.9882 8.42906 15.9882 9.32555 15.0353 9.87365L11.6985 11.7925L11.6343 11.8297L11.6343 11.8297Z" id="Path-Copy-2" fill="url(#gradient_2)" fill-rule="evenodd" stroke="none" />
      <path d="M11.698 5.9621L1.73553 0.232295C1.15132 -0.104199 0.63273 -0.0620756 0.317853 0.274418L8.81806 8.87656L11.698 5.9621L11.698 5.9621Z" id="Path-Copy-4" fill="url(#gradient_3)" fill-rule="evenodd" stroke="none" />
    </g>
    <g id="Group" transform="translate(158 253)">
      <path d="M0 8C0 3.58172 3.58172 0 8 0C12.4183 0 16 3.58172 16 8C16 12.4183 12.4183 16 8 16C3.58172 16 0 12.4183 0 8Z" id="Oval" fill="#E3F0E2" fill-rule="evenodd" stroke="none" />
      <path d="M11.2941 6.11765C8.47059 8.94118 7.05882 10.3529 7.05882 10.3529" id="Line-5" fill="#3F763B" fill-rule="evenodd" stroke="#3F763B" stroke-width="1.2" stroke-linecap="square" />
      <path d="M5.17647 8.47059L7.17647 10.4706" id="Line-4" fill="none" fill-rule="evenodd" stroke="#3F763B" stroke-width="1.2" stroke-linecap="square" />
    </g>
    <g id="Group" transform="translate(212 54)">
      <path d="M0 0L20 0L20 20L0 20L0 0Z" id="Bounds" fill="none" fill-rule="evenodd" stroke="none" />
      <path d="M10 1.66667C5.4 1.66667 1.66667 5.4 1.66667 10C1.66667 14.6 5.4 18.3333 10 18.3333C14.6 18.3333 18.3333 14.6 18.3333 10C18.3333 5.4 14.6 1.66667 10 1.66667L10 1.66667L10 1.66667ZM10.8333 14.1667L9.16667 14.1667L9.16667 12.5L10.8333 12.5L10.8333 14.1667L10.8333 14.1667L10.8333 14.1667ZM10.8333 10.8333L9.16667 10.8333L9.16667 5.83333L10.8333 5.83333L10.8333 10.8333L10.8333 10.8333L10.8333 10.8333Z" id="Icon" fill="#C4C4C4" fill-rule="evenodd" stroke="none" />
    </g>
    <g id="Close-icon_-Web-(2)" transform="translate(0 173.1)">
      <g id="Product-Details-page">
        <g id="PDP,-7-days-replacement-pop-up-Web">
          <g id="Group-2">
            <g id="Group">
              <path d="M0 16C0 7.16344 7.16344 0 16 0C24.8366 0 32 7.16344 32 16C32 24.8366 24.8366 32 16 32C7.16344 32 0 24.8366 0 16Z" id="Oval" fill="#F1F3F6" fill-rule="evenodd" stroke="none" />
              <path d="M21.6 10.4L10.4 21.6M10.4 10.4L21.6 21.6" id="Group-5" fill="none" fill-rule="evenodd" stroke="#2F73C2" stroke-width="3" stroke-linecap="square" />
            </g>
          </g>
        </g>
      </g>
    </g>
    <g id="Home-Page" transform="translate(332 155)">
      <g id="Homepage-final-Web">
        <g id="Product-Sider-Right">
          <g id="Rectangle">
            <path d="M0 4.09756L0 2.04878C0 1.48303 0.200025 1.00012 0.600074 0.600074C1.00012 0.200025 1.48303 0 2.04878 0L25.9512 0C26.517 0 26.9999 0.200025 27.3999 0.600074C27.8 1.00012 28 1.48303 28 2.04878L28 53.9512C28 54.517 27.8 54.9999 27.3999 55.3999C26.9999 55.8 26.517 56 25.9512 56L2.04878 56C1.48303 56 1.00012 55.8 0.600074 55.3999C0.200025 54.9999 0 54.517 0 53.9512L0 4.09756Z" id="path-1" fill="#000000" fill-rule="evenodd" stroke="none" />
            <path d="M0 4.09756L0 2.04878C0 1.48303 0.200025 1.00012 0.600074 0.600074C1.00012 0.200025 1.48303 0 2.04878 0L25.9512 0C26.517 0 26.9999 0.200025 27.3999 0.600074C27.8 1.00012 28 1.48303 28 2.04878L28 53.9512C28 54.517 27.8 54.9999 27.3999 55.3999C26.9999 55.8 26.517 56 25.9512 56L2.04878 56C1.48303 56 1.00012 55.8 0.600074 55.3999C0.200025 54.9999 0 54.517 0 53.9512L0 4.09756Z" id="path-1" fill="#FFFFFF" fill-rule="evenodd" stroke="none" />
          </g>
          <g id="Icons--Arrow-(Right)" transform="translate(10.562083 21.170732)">
            <path d="M0.200024 12.4927C-0.0666751 12.7594 -0.0666751 13.1918 0.200024 13.4585C0.466725 13.7252 0.899129 13.7252 1.16583 13.4585L7.31217 7.31217C7.57887 7.04547 7.57887 6.61307 7.31217 6.34637L1.16583 0.200024C0.899129 -0.0666738 0.466725 -0.0666738 0.200024 0.200024C-0.0666751 0.466725 -0.0666751 0.899129 0.200024 1.16583L5.86346 6.82927L0.200024 12.4927L0.200024 12.4927Z" id="path-3" fill="#000000" stroke="none" />
          </g>
        </g>
      </g>
    </g>
    <g id="Group" transform="translate(317 85)">
      <path d="M28.9987 16.3716C28.3985 19.561 26.6983 22.3637 24.31 24.3703C21.9066 26.3894 18.8126 27.6049 15.4374 27.6049C12.2655 27.6049 9.33977 26.5326 7.00671 24.7294C4.62091 22.8886 2.85793 20.2843 2.0769 17.2807L3.7997 16.8337C4.47776 19.448 6.01472 21.7158 8.09162 23.3205C10.1208 24.8876 12.6673 25.8193 15.4348 25.8193C18.3807 25.8193 21.0779 24.7621 23.1648 23.0091C25.1614 21.3315 26.6054 19.0135 27.178 16.3691L25.3372 16.3691L28.0972 13.0064L30.8571 16.3691L28.9987 16.3691L28.9987 16.3716L28.9987 16.3716ZM1.87348 11.2358C2.46867 8.07404 4.14375 5.29396 6.4969 3.28989C8.90781 1.2381 12.0294 0 15.4348 0C18.4309 0 21.2035 0.954318 23.4662 2.57666C25.7892 4.2417 27.5723 6.60991 28.509 9.37241L27.6652 9.65871L26.8214 9.94501C26.7988 9.87469 26.7737 9.80437 26.7486 9.73656C25.9173 7.4236 24.3929 5.43962 22.429 4.03074C20.4601 2.61935 18.0467 1.78809 15.4374 1.78809C12.4639 1.78809 9.7441 2.86296 7.64962 4.64603C5.68071 6.32111 4.26179 8.61901 3.69171 11.2358L5.52249 11.2358L2.75999 14.5986L0 11.2358L1.87348 11.2358L1.87348 11.2358L1.87348 11.2358Z" id="Group" fill="#727272" fill-rule="evenodd" stroke="#727272" stroke-width="0.5" />
      <path d="M18.4286 9.44286L12.4286 9.44286M18.4286 12.4429L12.4286 12.4429M12.4286 9.44286L13.6286 9.44286C15.2854 9.44286 16.6286 10.786 16.6286 12.4429C16.6286 14.0997 15.2854 15.4429 13.6286 15.4429L12.4286 15.4429L17.2286 20.2429" id="rupee" fill="none" fill-rule="evenodd" stroke="#727272" stroke-width="1.5" stroke-linecap="square" stroke-linejoin="bevel" />
    </g>
    <g id="Group-5" transform="translate(317 53)">
      <path d="M28.9987 16.3716C28.3985 19.561 26.6983 22.3637 24.31 24.3703C21.9066 26.3894 18.8126 27.6049 15.4374 27.6049C12.2655 27.6049 9.33977 26.5326 7.00671 24.7294C4.62091 22.8886 2.85793 20.2843 2.0769 17.2807L3.7997 16.8337C4.47776 19.448 6.01472 21.7158 8.09162 23.3205C10.1208 24.8876 12.6673 25.8193 15.4348 25.8193C18.3807 25.8193 21.0779 24.7621 23.1648 23.0091C25.1614 21.3315 26.6054 19.0135 27.178 16.3691L25.3372 16.3691L28.0972 13.0064L30.8571 16.3691L28.9987 16.3691L28.9987 16.3716L28.9987 16.3716ZM1.87348 11.2358C2.46867 8.07404 4.14375 5.29396 6.4969 3.28989C8.90781 1.2381 12.0294 0 15.4348 0C18.4309 0 21.2035 0.954318 23.4662 2.57666C25.7892 4.2417 27.5723 6.60991 28.509 9.37241L27.6652 9.65871L26.8214 9.94501C26.7988 9.87469 26.7737 9.80437 26.7486 9.73656C25.9173 7.4236 24.3929 5.43962 22.429 4.03074C20.4601 2.61935 18.0467 1.78809 15.4374 1.78809C12.4639 1.78809 9.7441 2.86296 7.64962 4.64603C5.68071 6.32111 4.26179 8.61901 3.69171 11.2358L5.52249 11.2358L2.75999 14.5986L0 11.2358L1.87348 11.2358L1.87348 11.2358L1.87348 11.2358Z" id="Group" fill="#3F763B" fill-rule="evenodd" stroke="#3F763B" stroke-width="0.5" />
      <path d="M18.4286 9.44286L12.4286 9.44286M18.4286 12.4429L12.4286 12.4429M12.4286 9.44286L13.6286 9.44286C15.2854 9.44286 16.6286 10.786 16.6286 12.4429C16.6286 14.0997 15.2854 15.4429 13.6286 15.4429L12.4286 15.4429L17.2286 20.2429" id="rupee" fill="none" fill-rule="evenodd" stroke="#3F763B" stroke-width="1.5" stroke-linecap="square" stroke-linejoin="bevel" />
    </g>
  </g>
</svg>