<svg width="11" height="10" viewBox="0 0 11 10" fill="none" xmlns="http://www.w3.org/2000/svg">
<path fill-rule="evenodd" clip-rule="evenodd" d="M3.34327 9.38386C2.90309 9.61528 2.38863 9.2415 2.47269 8.75136L2.83127 6.6607C2.86465 6.46606 2.80012 6.26746 2.65871 6.12962L1.13976 4.649C0.783649 4.30188 0.980155 3.6971 1.47229 3.62559L3.57143 3.32056C3.76686 3.29217 3.9358 3.16942 4.02319 2.99234L4.96196 1.09019C5.18205 0.644245 5.81795 0.644244 6.03804 1.09019L6.97681 2.99234C7.0642 3.16942 7.23314 3.29217 7.42857 3.32056L9.52771 3.62559C10.0198 3.6971 10.2164 4.30188 9.86024 4.649L8.34129 6.12962C8.19988 6.26746 8.13535 6.46606 8.16873 6.6607L8.52731 8.75136C8.61137 9.2415 8.09691 9.61528 7.65674 9.38386L5.7792 8.39679C5.60441 8.30489 5.39559 8.30489 5.2208 8.39679L3.34327 9.38386Z" fill="#FFBD59" stroke="#FFBD59" stroke-width="0.6"/>
</svg>
